<?xml version="1.0" encoding="UTF-8"?>
<!DOCTYPE svg PUBLIC "-//W3C//DTD SVG 1.1//EN" "http://www.w3.org/Graphics/SVG/1.1/DTD/svg11.dtd">
<svg xmlns="http://www.w3.org/2000/svg" version="1.1" width="5632px" height="2048px" style="shape-rendering:geometricPrecision; text-rendering:geometricPrecision; image-rendering:optimizeQuality; fill-rule:evenodd; clip-rule:evenodd" xmlns:xlink="http://www.w3.org/1999/xlink">
<g><path style="opacity:1" fill="#7b9a6f" d="M 2728.5,987.5 C 2730.72,984.376 2733.72,982.209 2737.5,981C 2739.04,979.421 2740.21,977.587 2741,975.5C 2743.63,973.874 2745.96,971.874 2748,969.5C 2752.63,958.581 2756.96,947.581 2761,936.5C 2763.38,935.446 2765.88,934.779 2768.5,934.5C 2768.5,932.833 2768.5,931.167 2768.5,929.5C 2770.86,929.663 2773.19,929.497 2775.5,929C 2780.99,926.833 2786.66,925.166 2792.5,924C 2795.53,922.809 2797.2,920.642 2797.5,917.5C 2798.5,917.5 2799.5,917.5 2800.5,917.5C 2800.85,914.762 2801.52,912.096 2802.5,909.5C 2801.39,905.223 2801.23,900.89 2802,896.5C 2804.42,895.039 2806.92,893.706 2809.5,892.5C 2810.39,891.675 2810.72,890.675 2810.5,889.5C 2814.01,888.493 2817.34,886.993 2820.5,885C 2821.98,883.701 2822.65,882.034 2822.5,880C 2818.2,872.703 2814.87,864.87 2812.5,856.5C 2811.07,854.878 2809.4,853.545 2807.5,852.5C 2809.37,848.795 2812.37,846.961 2816.5,847C 2817.64,846.259 2817.64,845.425 2816.5,844.5C 2817.03,843.808 2817.69,843.308 2818.5,843C 2823.95,843.513 2828.61,842.013 2832.5,838.5C 2833.29,838.931 2834.13,839.265 2835,839.5C 2840.7,836.999 2846.53,834.665 2852.5,832.5C 2853.17,832.833 2853.83,833.167 2854.5,833.5C 2857.61,831.816 2860.95,831.15 2864.5,831.5C 2863.69,826.376 2864.52,821.376 2867,816.5C 2868.72,816.038 2870.55,815.872 2872.5,816C 2878.66,813 2878.5,809.833 2872,806.5C 2871.92,804.343 2871.76,802.343 2871.5,800.5C 2873.18,799.146 2873.68,797.479 2873,795.5C 2871.46,791.956 2868.79,789.956 2865,789.5C 2864.07,787.308 2862.91,785.308 2861.5,783.5C 2862.43,782.685 2863.43,781.852 2864.5,781C 2867.53,781.399 2870.53,781.232 2873.5,780.5C 2876.81,781.163 2880.14,781.663 2883.5,782C 2884.84,784.016 2886.67,785.183 2889,785.5C 2892.22,783.647 2895.72,782.48 2899.5,782C 2901.98,780.842 2904.14,779.342 2906,777.5C 2909.83,780.68 2914,781.514 2918.5,780C 2918.93,779.08 2919.26,778.247 2919.5,777.5C 2922.95,778.648 2926.29,779.982 2929.5,781.5C 2931.19,781.24 2932.69,780.573 2934,779.5C 2935.5,780.667 2937,781.833 2938.5,783C 2937.6,785.179 2936.27,787.012 2934.5,788.5C 2936.91,792.583 2936.91,796.75 2934.5,801C 2936.77,803.362 2937.1,806.029 2935.5,809C 2936.1,810.605 2937.1,811.938 2938.5,813C 2936.17,816.075 2934.84,819.575 2934.5,823.5C 2931.85,825.724 2928.85,827.391 2925.5,828.5C 2924.06,830.021 2923.4,831.855 2923.5,834C 2924.17,839.497 2925.83,844.663 2928.5,849.5C 2933.89,851.717 2936.72,855.717 2937,861.5C 2941.03,864.022 2944.7,867.022 2948,870.5C 2950.36,879.779 2952.52,889.112 2954.5,898.5C 2953.83,899.5 2953.17,900.5 2952.5,901.5C 2953.82,905.923 2954.82,910.423 2955.5,915C 2954.85,919.524 2954.51,924.024 2954.5,928.5C 2957.16,932.83 2959.83,937.163 2962.5,941.5C 2960.22,947.627 2958.72,953.96 2958,960.5C 2955.01,962.807 2952.85,965.64 2951.5,969C 2952.62,974.241 2955.29,978.574 2959.5,982C 2958.97,985.495 2957.63,988.662 2955.5,991.5C 2957.4,994.223 2959.06,997.057 2960.5,1000C 2963.09,1000.23 2965.59,1000.73 2968,1001.5C 2968.8,1004.54 2969.96,1007.38 2971.5,1010C 2976.84,1013.84 2982.84,1016.18 2989.5,1017C 2990.5,1017.83 2991.5,1018.67 2992.5,1019.5C 2969.7,1033.13 2947.03,1046.97 2924.5,1061C 2915.13,1069.01 2905.79,1077.01 2896.5,1085C 2884.86,1088 2873.02,1090.5 2861,1092.5C 2858.95,1092.31 2857.12,1091.64 2855.5,1090.5C 2854.96,1087.27 2853.63,1084.43 2851.5,1082C 2852.83,1080.33 2852.83,1078.67 2851.5,1077C 2845.41,1074.79 2839.41,1072.46 2833.5,1070C 2825.46,1060.3 2816.46,1051.63 2806.5,1044C 2780.61,1024.9 2754.61,1006.07 2728.5,987.5 Z"/></g>
<g><path style="opacity:1" fill="#e7c793" d="M 2853.5,783.5 C 2854.48,785.145 2855.81,786.479 2857.5,787.5C 2859.11,786.68 2859.78,785.346 2859.5,783.5C 2860.17,783.5 2860.83,783.5 2861.5,783.5C 2862.91,785.308 2864.07,787.308 2865,789.5C 2868.79,789.956 2871.46,791.956 2873,795.5C 2873.68,797.479 2873.18,799.146 2871.5,800.5C 2871.76,802.343 2871.92,804.343 2872,806.5C 2878.5,809.833 2878.66,813 2872.5,816C 2870.55,815.872 2868.72,816.038 2867,816.5C 2864.52,821.376 2863.69,826.376 2864.5,831.5C 2860.95,831.15 2857.61,831.816 2854.5,833.5C 2853.83,833.167 2853.17,832.833 2852.5,832.5C 2846.53,834.665 2840.7,836.999 2835,839.5C 2834.13,839.265 2833.29,838.931 2832.5,838.5C 2828.61,842.013 2823.95,843.513 2818.5,843C 2817.69,843.308 2817.03,843.808 2816.5,844.5C 2817.64,845.425 2817.64,846.259 2816.5,847C 2812.37,846.961 2809.37,848.795 2807.5,852.5C 2809.4,853.545 2811.07,854.878 2812.5,856.5C 2814.87,864.87 2818.2,872.703 2822.5,880C 2822.65,882.034 2821.98,883.701 2820.5,885C 2817.34,886.993 2814.01,888.493 2810.5,889.5C 2810.72,890.675 2810.39,891.675 2809.5,892.5C 2806.92,893.706 2804.42,895.039 2802,896.5C 2801.23,900.89 2801.39,905.223 2802.5,909.5C 2801.52,912.096 2800.85,914.762 2800.5,917.5C 2799.5,917.5 2798.5,917.5 2797.5,917.5C 2797.2,920.642 2795.53,922.809 2792.5,924C 2786.66,925.166 2780.99,926.833 2775.5,929C 2773.19,929.497 2770.86,929.663 2768.5,929.5C 2768.5,931.167 2768.5,932.833 2768.5,934.5C 2765.88,934.779 2763.38,935.446 2761,936.5C 2756.96,947.581 2752.63,958.581 2748,969.5C 2745.96,971.874 2743.63,973.874 2741,975.5C 2740.21,977.587 2739.04,979.421 2737.5,981C 2733.72,982.209 2730.72,984.376 2728.5,987.5C 2710.73,975.579 2693.07,963.413 2675.5,951C 2674.21,950.51 2672.87,950.343 2671.5,950.5C 2671.33,942.826 2671.5,935.159 2672,927.5C 2673.35,925.566 2674.85,923.733 2676.5,922C 2682.7,918.067 2689.04,914.4 2695.5,911C 2698.46,911.32 2701.46,911.32 2704.5,911C 2705.17,910 2705.83,909 2706.5,908C 2710.89,907.697 2715.23,907.03 2719.5,906C 2727.67,901.076 2735.33,895.409 2742.5,889C 2745.06,887.921 2747.73,887.421 2750.5,887.5C 2750.68,884.671 2749.34,883.004 2746.5,882.5C 2747.42,880.214 2747.42,877.881 2746.5,875.5C 2753.07,876.149 2758.4,873.983 2762.5,869C 2769.84,868.452 2777.17,867.952 2784.5,867.5C 2784.55,864.901 2785.55,862.734 2787.5,861C 2785.38,859.878 2783.54,858.378 2782,856.5C 2780.81,851.003 2779.31,845.67 2777.5,840.5C 2778.23,834.106 2778.23,828.106 2777.5,822.5C 2773.82,821.151 2772.15,818.484 2772.5,814.5C 2776.77,813.731 2780.77,812.231 2784.5,810C 2786.51,803.937 2790.51,801.271 2796.5,802C 2797.67,800.833 2798.83,799.667 2800,798.5C 2801.32,801.047 2803.15,801.713 2805.5,800.5C 2806.8,798.063 2808.47,795.896 2810.5,794C 2821.7,788.162 2833.37,785.662 2845.5,786.5C 2848.24,786.047 2850.41,784.714 2852,782.5C 2852.76,782.57 2853.26,782.903 2853.5,783.5 Z"/></g>
<g><path style="opacity:1" fill="#416ca7" d="M 2853.5,783.5 C 2855.5,783.5 2857.5,783.5 2859.5,783.5C 2859.78,785.346 2859.11,786.68 2857.5,787.5C 2855.81,786.479 2854.48,785.145 2853.5,783.5 Z"/></g>
</svg>
