<?xml version="1.0" encoding="UTF-8"?>
<!DOCTYPE svg PUBLIC "-//W3C//DTD SVG 1.1//EN" "http://www.w3.org/Graphics/SVG/1.1/DTD/svg11.dtd">
<svg xmlns="http://www.w3.org/2000/svg" version="1.1" width="5632px" height="2048px" style="shape-rendering:geometricPrecision; text-rendering:geometricPrecision; image-rendering:optimizeQuality; fill-rule:evenodd; clip-rule:evenodd" xmlns:xlink="http://www.w3.org/1999/xlink">
<g><path style="opacity:1" fill="#97acd4" d="M 4180.5,941.5 C 4180.73,945.271 4180.73,949.104 4180.5,953C 4178.34,954.085 4178.18,955.251 4180,956.5C 4180.22,959.426 4180.72,962.26 4181.5,965C 4175.49,966.943 4169.66,966.776 4164,964.5C 4162.7,964.96 4161.37,965.294 4160,965.5C 4156.56,964.311 4153.06,963.311 4149.5,962.5C 4146.24,964.106 4144.08,963.106 4143,959.5C 4141.81,960.43 4140.47,961.097 4139,961.5C 4136.33,958.829 4133.16,956.995 4129.5,956C 4127.84,954.556 4127.18,952.722 4127.5,950.5C 4124.91,950.604 4122.58,949.937 4120.5,948.5C 4117.32,949.141 4115.32,950.474 4114.5,952.5C 4109.5,950.663 4104.5,948.83 4099.5,947C 4095.29,943.969 4091.13,940.802 4087,937.5C 4086.33,938.167 4085.67,938.833 4085,939.5C 4081.66,936.759 4078.16,934.426 4074.5,932.5C 4072.15,930.468 4069.48,928.635 4066.5,927C 4062.6,928.384 4059.93,927.051 4058.5,923C 4060.77,919.907 4061.94,916.407 4062,912.5C 4064.77,910.401 4066.77,907.734 4068,904.5C 4070.21,903.08 4072.21,901.413 4074,899.5C 4075.34,900.765 4076.84,901.265 4078.5,901C 4077.65,898.194 4078.65,896.027 4081.5,894.5C 4084.46,895.625 4087.46,896.625 4090.5,897.5C 4091.01,899.225 4091.68,900.892 4092.5,902.5C 4096.98,906.244 4101.98,909.244 4107.5,911.5C 4109,913.833 4110.5,916.167 4112,918.5C 4114.15,914.318 4116.99,913.652 4120.5,916.5C 4121.62,917.598 4121.62,918.765 4120.5,920C 4122.94,921.554 4124.94,923.554 4126.5,926C 4128.88,927.259 4131.38,927.092 4134,925.5C 4134.5,925.833 4135,926.167 4135.5,926.5C 4134.87,928.478 4134.87,930.645 4135.5,933C 4140.47,931.824 4144.47,933.324 4147.5,937.5C 4148.29,937.069 4149.13,936.735 4150,936.5C 4152.74,939.144 4155.4,939.144 4158,936.5C 4161.22,938.193 4164.38,940.027 4167.5,942C 4171.88,941.607 4176.22,941.441 4180.5,941.5 Z"/></g>
<g><path style="opacity:1" fill="#628952" d="M 4074.5,932.5 C 4078.16,934.426 4081.66,936.759 4085,939.5C 4085.67,938.833 4086.33,938.167 4087,937.5C 4091.13,940.802 4095.29,943.969 4099.5,947C 4104.5,948.83 4109.5,950.663 4114.5,952.5C 4115.32,950.474 4117.32,949.141 4120.5,948.5C 4122.58,949.937 4124.91,950.604 4127.5,950.5C 4127.18,952.722 4127.84,954.556 4129.5,956C 4133.16,956.995 4136.33,958.829 4139,961.5C 4140.47,961.097 4141.81,960.43 4143,959.5C 4144.08,963.106 4146.24,964.106 4149.5,962.5C 4153.06,963.311 4156.56,964.311 4160,965.5C 4161.37,965.294 4162.7,964.96 4164,964.5C 4169.66,966.776 4175.49,966.943 4181.5,965C 4180.72,962.26 4180.22,959.426 4180,956.5C 4178.18,955.251 4178.34,954.085 4180.5,953C 4180.73,949.104 4180.73,945.271 4180.5,941.5C 4183.1,941.226 4185.6,939.893 4188,937.5C 4191.52,939.234 4192.35,941.9 4190.5,945.5C 4191.19,946.518 4191.86,947.518 4192.5,948.5C 4191.72,952.059 4192.56,955.393 4195,958.5C 4201.16,963.353 4207.66,963.687 4214.5,959.5C 4217.13,963.043 4220.13,963.376 4223.5,960.5C 4229.43,961.319 4235.1,960.319 4240.5,957.5C 4246.49,957.321 4252.49,957.821 4258.5,959C 4261.24,958.197 4263.91,957.197 4266.5,956C 4269.2,952.962 4272.2,950.295 4275.5,948C 4285.29,944.88 4294.29,941.38 4302.5,937.5C 4309.2,938.355 4315.87,939.355 4322.5,940.5C 4322.5,941.833 4322.5,943.167 4322.5,944.5C 4320.52,944.383 4318.85,945.05 4317.5,946.5C 4323.12,956.033 4321.62,957.033 4313,949.5C 4307.47,950.12 4302.97,952.62 4299.5,957C 4295.92,959.938 4291.92,962.272 4287.5,964C 4288.17,964.333 4288.83,964.667 4289.5,965C 4286.86,967.275 4286.86,969.609 4289.5,972C 4287.1,976.898 4284.1,981.398 4280.5,985.5C 4281.49,986.665 4282.49,987.832 4283.5,989C 4279.88,995.415 4277.21,1002.25 4275.5,1009.5C 4270.33,1008.43 4264.99,1007.26 4259.5,1006C 4262.33,1010.4 4263.16,1015.24 4262,1020.5C 4260.83,1021.89 4259.33,1022.73 4257.5,1023C 4259.01,1024.44 4259.35,1025.94 4258.5,1027.5C 4260.09,1031.04 4260.59,1034.7 4260,1038.5C 4257.82,1042.29 4255.82,1042.29 4254,1038.5C 4250.24,1043.02 4250.07,1047.52 4253.5,1052C 4252.35,1052.64 4251.35,1053.48 4250.5,1054.5C 4249.11,1053.39 4247.94,1052.06 4247,1050.5C 4245.3,1053.47 4245.47,1056.47 4247.5,1059.5C 4247.19,1060.31 4246.69,1060.97 4246,1061.5C 4242.44,1056.58 4241.1,1051.25 4242,1045.5C 4240,1040.83 4238,1036.17 4236,1031.5C 4233.71,1027.73 4231.54,1027.89 4229.5,1032C 4228.06,1032.78 4226.72,1032.61 4225.5,1031.5C 4223.23,1027.33 4221.56,1023 4220.5,1018.5C 4218.77,1018.19 4217.11,1018.02 4215.5,1018C 4218.71,1021.33 4219.04,1024.67 4216.5,1028C 4217.76,1029.84 4218.76,1031.84 4219.5,1034C 4218.14,1038.34 4215.98,1042.17 4213,1045.5C 4212.17,1044.67 4211.33,1043.83 4210.5,1043C 4211.83,1041.67 4213.17,1040.33 4214.5,1039C 4212.61,1038.84 4211.11,1039.67 4210,1041.5C 4209.58,1038.76 4209.58,1036.1 4210,1033.5C 4208.9,1037.02 4208.07,1040.69 4207.5,1044.5C 4206.25,1045.04 4205.09,1045.71 4204,1046.5C 4203.87,1043.49 4203.87,1040.49 4204,1037.5C 4202.91,1040.04 4202.24,1042.71 4202,1045.5C 4200.98,1046.63 4200.32,1046.3 4200,1044.5C 4199.67,1045.5 4199.33,1046.5 4199,1047.5C 4197.11,1045.97 4196.11,1043.97 4196,1041.5C 4195.26,1043.44 4195.42,1045.27 4196.5,1047C 4194.57,1047.12 4192.74,1047.96 4191,1049.5C 4189.31,1046.98 4189.48,1044.48 4191.5,1042C 4191.06,1040.24 4190.56,1040.4 4190,1042.5C 4189.67,1041.5 4189.33,1040.5 4189,1039.5C 4188.67,1042.83 4188.33,1046.17 4188,1049.5C 4187.67,1047.5 4187.33,1045.5 4187,1043.5C 4186.8,1045.26 4186.3,1046.92 4185.5,1048.5C 4184.12,1045.92 4183.28,1046.26 4183,1049.5C 4182.8,1047.62 4182.3,1045.95 4181.5,1044.5C 4182.01,1042.49 4182.18,1040.49 4182,1038.5C 4179.07,1045.74 4173.57,1049.57 4165.5,1050C 4164.33,1051.17 4163.17,1052.33 4162,1053.5C 4161.42,1057.49 4161.92,1060.99 4163.5,1064C 4162.17,1065.33 4160.83,1066.67 4159.5,1068C 4159.83,1068.33 4160.17,1068.67 4160.5,1069C 4157.05,1071.58 4154.38,1074.25 4152.5,1077C 4148.21,1077.82 4144.21,1079.32 4140.5,1081.5C 4140.83,1080.34 4140.83,1079 4140.5,1077.5C 4135.89,1076.62 4134.06,1078.62 4135,1083.5C 4135.67,1082.17 4136.67,1081.17 4138,1080.5C 4138.67,1081.17 4138.67,1081.83 4138,1082.5C 4134.66,1085.01 4131.5,1087.67 4128.5,1090.5C 4127.91,1090.29 4127.41,1089.96 4127,1089.5C 4125.67,1092.17 4123.67,1094.17 4121,1095.5C 4117.81,1091.81 4117.97,1088.14 4121.5,1084.5C 4118.08,1083.46 4116.42,1081.46 4116.5,1078.5C 4117.94,1077.07 4119.6,1075.9 4121.5,1075C 4120.48,1073.95 4120.32,1072.78 4121,1071.5C 4123.96,1069.21 4126.13,1066.38 4127.5,1063C 4131.01,1062.47 4134.34,1061.47 4137.5,1060C 4136.71,1058.91 4136.04,1057.75 4135.5,1056.5C 4137.68,1053.74 4138.01,1050.74 4136.5,1047.5C 4137.03,1045.39 4138.03,1043.55 4139.5,1042C 4137.52,1040.11 4135.18,1038.78 4132.5,1038C 4135.36,1035.66 4135.02,1033.83 4131.5,1032.5C 4129.5,1033.5 4127.5,1034.5 4125.5,1035.5C 4123.66,1035.24 4121.66,1035.08 4119.5,1035C 4118.33,1034.58 4117.33,1033.91 4116.5,1033C 4119.31,1031.36 4121.64,1029.19 4123.5,1026.5C 4121.85,1025.01 4119.85,1024.01 4117.5,1023.5C 4117.75,1021.08 4117.75,1018.74 4117.5,1016.5C 4116.68,1014.89 4115.35,1014.22 4113.5,1014.5C 4112.71,1011.03 4110.71,1008.36 4107.5,1006.5C 4105.14,1008.84 4102.47,1010.34 4099.5,1011C 4097.59,1009.59 4096.25,1007.75 4095.5,1005.5C 4095.67,1002.5 4095.83,999.5 4096,996.5C 4093.72,993.936 4091.72,994.27 4090,997.5C 4087.17,995.333 4084.67,992.833 4082.5,990C 4081.21,989.51 4079.87,989.343 4078.5,989.5C 4078.5,988.5 4078.5,987.5 4078.5,986.5C 4075,986.833 4072.66,985.333 4071.5,982C 4072.57,980.584 4072.57,979.25 4071.5,978C 4075.21,975.658 4078.21,972.658 4080.5,969C 4079.99,966.43 4078.99,964.097 4077.5,962C 4078.8,961.196 4079.47,960.029 4079.5,958.5C 4076.46,951.352 4073.8,944.018 4071.5,936.5C 4072.04,934.739 4073.04,933.406 4074.5,932.5 Z"/></g>
<g><path style="opacity:1" fill="#477c2e" d="M 4240.5,957.5 C 4235.1,960.319 4229.43,961.319 4223.5,960.5C 4220.13,963.376 4217.13,963.043 4214.5,959.5C 4207.66,963.687 4201.16,963.353 4195,958.5C 4192.56,955.393 4191.72,952.059 4192.5,948.5C 4195.6,945.165 4198.6,941.665 4201.5,938C 4202.45,937.383 4203.28,937.549 4204,938.5C 4207.74,934.139 4211.9,933.639 4216.5,937C 4214.34,939.68 4215.17,940.18 4219,938.5C 4222.76,939.985 4226.6,940.818 4230.5,941C 4231.34,942.787 4231.51,944.62 4231,946.5C 4234.08,947.639 4237.08,948.972 4240,950.5C 4240.71,952.367 4240.21,953.867 4238.5,955C 4239.38,955.708 4240.05,956.542 4240.5,957.5 Z"/></g>
<g><path style="opacity:1" fill="#628952" d="M 4219.5,1026.5 C 4221,1029.26 4222.67,1032.09 4224.5,1035C 4224.16,1037.58 4223.16,1039.74 4221.5,1041.5C 4221.1,1038.58 4220.93,1035.58 4221,1032.5C 4219.44,1030.5 4218.94,1028.5 4219.5,1026.5 Z"/></g>
<g><path style="opacity:1" fill="#628952" d="M 4232.5,1031.5 C 4234.27,1032.31 4234.77,1033.65 4234,1035.5C 4232.81,1034.44 4232.31,1033.1 4232.5,1031.5 Z"/></g>
<g><path style="opacity:1" fill="#628952" d="M 4227.5,1034.5 C 4229.77,1035.94 4229.93,1037.61 4228,1039.5C 4227.51,1037.87 4227.34,1036.2 4227.5,1034.5 Z"/></g>
<g><path style="opacity:1" fill="#628952" d="M 4181.5,1044.5 C 4181.65,1045.55 4181.48,1046.55 4181,1047.5C 4180.26,1046.25 4180.43,1045.25 4181.5,1044.5 Z"/></g>
<g><path style="opacity:1" fill="#628952" d="M 4239.5,1045.5 C 4241.3,1046.89 4241.63,1048.56 4240.5,1050.5C 4239.55,1048.95 4239.21,1047.29 4239.5,1045.5 Z"/></g>
<g><path style="opacity:1" fill="#628952" d="M 4257.5,1180.5 C 4257.93,1186.09 4257.93,1191.76 4257.5,1197.5C 4256.49,1200.87 4255.15,1204.04 4253.5,1207C 4254.52,1207.52 4255.18,1208.35 4255.5,1209.5C 4254.05,1212.34 4252.88,1215.34 4252,1218.5C 4249.9,1212.78 4250.4,1207.28 4253.5,1202C 4253.8,1197.42 4253.8,1192.76 4253.5,1188C 4254.97,1185.57 4256.3,1183.07 4257.5,1180.5 Z"/></g>
<g><path style="opacity:1" fill="#628952" d="M 4247.5,1226.5 C 4252.83,1228.17 4252.83,1229.83 4247.5,1231.5C 4247.5,1229.83 4247.5,1228.17 4247.5,1226.5 Z"/></g>
<g><path style="opacity:1" fill="#628952" d="M 4253.5,1252.5 C 4254.77,1253.08 4254.77,1253.74 4253.5,1254.5C 4252.54,1254.03 4252.54,1253.36 4253.5,1252.5 Z"/></g>
<g><path style="opacity:1" fill="#628952" d="M 4264.5,1269.5 C 4265.57,1270.25 4265.74,1271.25 4265,1272.5C 4264.52,1271.55 4264.35,1270.55 4264.5,1269.5 Z"/></g>
<g><path style="opacity:1" fill="#628952" d="M 4262.5,1272.5 C 4263.29,1272.78 4263.96,1273.28 4264.5,1274C 4263.18,1274.53 4262.52,1274.03 4262.5,1272.5 Z"/></g>
<g><path style="opacity:1" fill="#628952" d="M 4267.5,1282.5 C 4268.77,1283.08 4268.77,1283.74 4267.5,1284.5C 4266.54,1284.03 4266.54,1283.36 4267.5,1282.5 Z"/></g>
<g><path style="opacity:1" fill="#628952" d="M 4269.5,1284.5 C 4271.03,1285.49 4271.69,1286.99 4271.5,1289C 4271.17,1290.17 4270.83,1291.33 4270.5,1292.5C 4269.59,1290.6 4268.59,1288.76 4267.5,1287C 4268.06,1285.99 4268.72,1285.16 4269.5,1284.5 Z"/></g>
</svg>
