<?xml version="1.0" encoding="UTF-8"?>
<!DOCTYPE svg PUBLIC "-//W3C//DTD SVG 1.1//EN" "http://www.w3.org/Graphics/SVG/1.1/DTD/svg11.dtd">
<svg xmlns="http://www.w3.org/2000/svg" version="1.1" width="5632px" height="2048px" style="shape-rendering:geometricPrecision; text-rendering:geometricPrecision; image-rendering:optimizeQuality; fill-rule:evenodd; clip-rule:evenodd" xmlns:xlink="http://www.w3.org/1999/xlink">
<g><path style="opacity:1" fill="#9295a0" d="M 10.5,-0.5 C 37.8333,-0.5 65.1667,-0.5 92.5,-0.5C 92.5824,1.25169 91.7491,2.25169 90,2.5C 84.8819,0.969171 80.0485,1.63584 75.5,4.5C 74.0928,8.48352 74.4262,12.3168 76.5,16C 75.1667,17.6667 73.8333,19.3333 72.5,21C 69.9293,21.9009 67.596,23.2342 65.5,25C 65.8179,27.0419 65.9846,29.2086 66,31.5C 67.4936,30.2528 68.9936,30.2528 70.5,31.5C 67.8694,33.0046 68.2027,33.6713 71.5,33.5C 71.2965,35.3904 71.9632,36.8904 73.5,38C 70.2339,40.474 67.7339,39.974 66,36.5C 66.5279,42.3065 64.0279,44.4732 58.5,43C 57.3333,42.5 56.5,41.6667 56,40.5C 51.511,41.1522 48.6777,39.1522 47.5,34.5C 44.3456,31.7567 41.0122,29.2567 37.5,27C 37.8333,26.6667 38.1667,26.3333 38.5,26C 34.8846,26.3035 31.3846,26.4701 28,26.5C 27.3828,25.5509 27.5494,24.7175 28.5,24C 26.1667,22.3333 23.8333,20.6667 21.5,19C 23.7382,15.1609 23.4049,11.3275 20.5,7.5C 20.8333,6.83333 21.1667,6.16667 21.5,5.5C 17.3808,4.23209 13.7141,2.23209 10.5,-0.5 Z"/></g>
<g><path style="opacity:1" fill="#9295a0" d="M 70.5,23.5 C 72.3046,24.2371 73.9713,25.2371 75.5,26.5C 68.1415,31.4402 66.4749,30.4402 70.5,23.5 Z"/></g>
<g><path style="opacity:1" fill="#6489be" d="M 214.5,44.5 C 215.525,44.8966 215.692,45.5632 215,46.5C 214.536,45.9056 214.369,45.2389 214.5,44.5 Z"/></g>
<g><path style="opacity:1" fill="#86bdb7" d="M 3727.5,77.5 C 3726.24,77.5386 3725.24,77.0386 3724.5,76C 3726,75.4153 3727,75.9153 3727.5,77.5 Z"/></g>
<g><path style="opacity:1" fill="#86bdb7" d="M 3727.5,77.5 C 3729.69,77.5106 3730.52,78.5106 3730,80.5C 3728.96,79.6266 3728.12,78.6266 3727.5,77.5 Z"/></g>
<g><path style="opacity:1" fill="#86bdb7" d="M 3700.5,90.5 C 3702.98,90.7467 3702.98,91.4134 3700.5,92.5C 3699.54,92.0302 3699.54,91.3635 3700.5,90.5 Z"/></g>
<g><path style="opacity:1" fill="#6489be" d="M 2051.5,175.5 C 2051.9,174.475 2052.56,174.308 2053.5,175C 2052.91,175.464 2052.24,175.631 2051.5,175.5 Z"/></g>
<g><path style="opacity:1" fill="#81122c" d="M 75.5,264.5 C 78.5571,263.859 81.3904,262.526 84,260.5C 84.8928,261.711 85.7261,261.711 86.5,260.5C 85.624,259.749 84.624,259.249 83.5,259C 86.0595,256.884 88.3929,257.051 90.5,259.5C 86.4756,264.175 81.4756,265.841 75.5,264.5 Z"/></g>
<g><path style="opacity:1" fill="#81122c" d="M 113.5,257.5 C 114.675,257.281 115.675,257.614 116.5,258.5C 115.131,260.124 113.464,260.624 111.5,260C 112.381,259.292 113.047,258.458 113.5,257.5 Z"/></g>
<g><path style="opacity:1" fill="#81122c" d="M 94.5,262.5 C 98.1419,263.08 101.809,263.58 105.5,264C 101.241,265.107 97.0746,265.607 93,265.5C 92.5,265 92,264.5 91.5,264C 92.7375,263.768 93.7375,263.268 94.5,262.5 Z"/></g>
<g><path style="opacity:1" fill="#81122c" d="M 56.5,263.5 C 59.6741,263.952 60.0075,264.952 57.5,266.5C 56.6143,265.675 56.281,264.675 56.5,263.5 Z"/></g>
<g><path style="opacity:1" fill="#81122c" d="M 75.5,264.5 C 74.0536,265.613 72.3869,265.78 70.5,265C 72.1341,264.506 73.8008,264.34 75.5,264.5 Z"/></g>
<g><path style="opacity:1" fill="#81122c" d="M 47.5,266.5 C 50.999,266.259 51.3323,267.092 48.5,269C 49.1667,269.167 49.8333,269.333 50.5,269.5C 53.1316,268.56 55.7983,268.393 58.5,269C 53.8746,270.828 49.2079,272.662 44.5,274.5C 44.1667,274.167 43.8333,273.833 43.5,273.5C 44.8611,271.15 46.1944,268.816 47.5,266.5 Z"/></g>
<g><path style="opacity:1" fill="#81122c" d="M 24.5,268.5 C 29.9699,267.053 31.4699,269.053 29,274.5C 25.9031,273.711 25.7364,272.544 28.5,271C 27.3066,269.905 25.9733,269.072 24.5,268.5 Z"/></g>
<g><path style="opacity:1" fill="#81122c" d="M 40.5,267.5 C 41.2389,267.369 41.9056,267.536 42.5,268C 41.6198,269.356 41.2865,270.856 41.5,272.5C 39.8967,272.688 38.5634,272.188 37.5,271C 39.4257,270.578 40.4257,269.411 40.5,267.5 Z"/></g>
<g><path style="opacity:1" fill="#81122c" d="M 32.5,272.5 C 32.8966,271.475 33.5632,271.308 34.5,272C 33.9056,272.464 33.2389,272.631 32.5,272.5 Z"/></g>
<g><path style="opacity:1" fill="#a1a2a1" d="M 3288.5,281.5 C 3289.77,282.077 3289.77,282.743 3288.5,283.5C 3287.54,283.03 3287.54,282.363 3288.5,281.5 Z"/></g>
<g><path style="opacity:1" fill="#c9c6b1" d="M 5151.5,335.5 C 5154.07,336.484 5154.07,337.651 5151.5,339C 5150.5,339.667 5149.5,339.667 5148.5,339C 5149.71,337.961 5150.71,336.794 5151.5,335.5 Z"/></g>
<g><path style="opacity:1" fill="#c5ac81" d="M 2549.5,1077.5 C 2550.57,1078.25 2550.74,1079.25 2550,1080.5C 2549.52,1079.55 2549.35,1078.55 2549.5,1077.5 Z"/></g>
<g><path style="opacity:1" fill="#81122c" d="M 5155.5,1440.5 C 5155.9,1439.47 5156.56,1439.31 5157.5,1440C 5156.91,1440.46 5156.24,1440.63 5155.5,1440.5 Z"/></g>
<g><path style="opacity:1" fill="#81122c" d="M 5160.5,1444.5 C 5161.08,1443.23 5161.74,1443.23 5162.5,1444.5C 5162.03,1445.46 5161.36,1445.46 5160.5,1444.5 Z"/></g>
<g><path style="opacity:1" fill="#6972e4" d="M 3977.5,1999.5 C 3979.1,2002.11 3981.1,2004.44 3983.5,2006.5C 3981.88,2007.87 3981.38,2009.54 3982,2011.5C 3987.61,2009.04 3992.77,2009.54 3997.5,2013C 3992.81,2013.91 3988.14,2014.91 3983.5,2016C 3980.62,2017.34 3978.96,2019.17 3978.5,2021.5C 3976.51,2020.71 3976.18,2019.54 3977.5,2018C 3976.87,2017.25 3976.37,2016.42 3976,2015.5C 3974.51,2017.56 3972.67,2017.89 3970.5,2016.5C 3972.8,2014.57 3974.64,2012.24 3976,2009.5C 3976.29,2007.22 3975.79,2005.05 3974.5,2003C 3975.07,2001.4 3976.07,2000.23 3977.5,1999.5 Z"/></g>
<g><path style="opacity:1" fill="#6972e4" d="M 3984.5,2018.5 C 3985.5,2018.5 3986.5,2018.5 3987.5,2018.5C 3987.5,2019.5 3987.5,2020.5 3987.5,2021.5C 3984.43,2021.88 3983.43,2020.88 3984.5,2018.5 Z"/></g>
<g><path style="opacity:1" fill="#000000" d="M 582.5,2040.5 C 583.833,2040.5 585.167,2040.5 586.5,2040.5C 586.5,2041.83 586.5,2043.17 586.5,2044.5C 585.167,2044.5 583.833,2044.5 582.5,2044.5C 582.5,2043.17 582.5,2041.83 582.5,2040.5 Z"/></g>
<g><path style="opacity:1" fill="#959695" d="M 587.5,2040.5 C 588.833,2040.5 590.167,2040.5 591.5,2040.5C 591.5,2041.83 591.5,2043.17 591.5,2044.5C 590.167,2044.5 588.833,2044.5 587.5,2044.5C 587.5,2043.17 587.5,2041.83 587.5,2040.5 Z"/></g>
<g><path style="opacity:1" fill="#000000" d="M 592.5,2040.5 C 593.833,2040.5 595.167,2040.5 596.5,2040.5C 596.5,2041.83 596.5,2043.17 596.5,2044.5C 595.167,2044.5 593.833,2044.5 592.5,2044.5C 592.5,2043.17 592.5,2041.83 592.5,2040.5 Z"/></g>
<g><path style="opacity:1" fill="#000000" d="M 597.5,2040.5 C 598.833,2040.5 600.167,2040.5 601.5,2040.5C 601.5,2041.83 601.5,2043.17 601.5,2044.5C 600.167,2044.5 598.833,2044.5 597.5,2044.5C 597.5,2043.17 597.5,2041.83 597.5,2040.5 Z"/></g>
<g><path style="opacity:1" fill="#000000" d="M 602.5,2040.5 C 603.833,2040.5 605.167,2040.5 606.5,2040.5C 606.5,2041.83 606.5,2043.17 606.5,2044.5C 605.167,2044.5 603.833,2044.5 602.5,2044.5C 602.5,2043.17 602.5,2041.83 602.5,2040.5 Z"/></g>
<g><path style="opacity:1" fill="#000000" d="M 607.5,2040.5 C 608.833,2040.5 610.167,2040.5 611.5,2040.5C 611.5,2041.83 611.5,2043.17 611.5,2044.5C 610.167,2044.5 608.833,2044.5 607.5,2044.5C 607.5,2043.17 607.5,2041.83 607.5,2040.5 Z"/></g>
<g><path style="opacity:1" fill="#000000" d="M 612.5,2040.5 C 613.833,2040.5 615.167,2040.5 616.5,2040.5C 616.5,2041.83 616.5,2043.17 616.5,2044.5C 615.167,2044.5 613.833,2044.5 612.5,2044.5C 612.5,2043.17 612.5,2041.83 612.5,2040.5 Z"/></g>
<g><path style="opacity:1" fill="#000000" d="M 617.5,2040.5 C 618.833,2040.5 620.167,2040.5 621.5,2040.5C 621.5,2041.83 621.5,2043.17 621.5,2044.5C 620.167,2044.5 618.833,2044.5 617.5,2044.5C 617.5,2043.17 617.5,2041.83 617.5,2040.5 Z"/></g>
<g><path style="opacity:1" fill="#000000" d="M 622.5,2040.5 C 623.833,2040.5 625.167,2040.5 626.5,2040.5C 626.5,2041.83 626.5,2043.17 626.5,2044.5C 625.167,2044.5 623.833,2044.5 622.5,2044.5C 622.5,2043.17 622.5,2041.83 622.5,2040.5 Z"/></g>
<g><path style="opacity:1" fill="#000000" d="M 5563.5,2040.5 C 5564.83,2040.5 5566.17,2040.5 5567.5,2040.5C 5567.5,2041.83 5567.5,2043.17 5567.5,2044.5C 5566.17,2044.5 5564.83,2044.5 5563.5,2044.5C 5563.5,2043.17 5563.5,2041.83 5563.5,2040.5 Z"/></g>
</svg>
