<?xml version="1.0" encoding="UTF-8"?>
<!DOCTYPE svg PUBLIC "-//W3C//DTD SVG 1.1//EN" "http://www.w3.org/Graphics/SVG/1.1/DTD/svg11.dtd">
<svg xmlns="http://www.w3.org/2000/svg" version="1.1" width="5632px" height="2048px" style="shape-rendering:geometricPrecision; text-rendering:geometricPrecision; image-rendering:optimizeQuality; fill-rule:evenodd; clip-rule:evenodd" xmlns:xlink="http://www.w3.org/1999/xlink">
<g><path style="opacity:1" fill="#775d5c" d="M 3158.5,643.5 C 3160.42,644.757 3162.42,645.923 3164.5,647C 3163.5,647.833 3162.5,648.667 3161.5,649.5C 3163.6,651.815 3166.1,652.149 3169,650.5C 3174.16,651.308 3179.5,652.641 3185,654.5C 3189.63,654.562 3194.13,654.229 3198.5,653.5C 3200.06,653.722 3201.39,654.389 3202.5,655.5C 3207.17,653.675 3211.51,651.175 3215.5,648C 3223.59,646.085 3231.59,646.252 3239.5,648.5C 3240.09,648.291 3240.59,647.957 3241,647.5C 3243.8,650.653 3247.3,652.319 3251.5,652.5C 3251.7,654.575 3251.87,656.575 3252,658.5C 3250.81,660.525 3249.31,660.859 3247.5,659.5C 3242.02,662.492 3240.02,667.158 3241.5,673.5C 3238.21,673.12 3235.88,674.453 3234.5,677.5C 3235.37,677.564 3236.37,677.897 3237.5,678.5C 3238.24,680.747 3239.58,682.58 3241.5,684C 3239.67,685.167 3237.83,686.333 3236,687.5C 3234.59,685.586 3232.75,684.253 3230.5,683.5C 3227.43,685.39 3224.1,686.557 3220.5,687C 3218.18,689.439 3215.51,691.439 3212.5,693C 3215.18,697.998 3213.68,699.831 3208,698.5C 3203.06,701.164 3198.4,700.83 3194,697.5C 3191.01,698.89 3189.01,697.89 3188,694.5C 3182.95,695.22 3177.78,696.553 3172.5,698.5C 3168.59,698.33 3164.76,698.33 3161,698.5C 3159.12,699.093 3158.12,700.427 3158,702.5C 3156.28,702.589 3154.45,702.256 3152.5,701.5C 3148.82,701.726 3145.82,703.226 3143.5,706C 3141.86,706.601 3140.2,707.101 3138.5,707.5C 3135.61,705.522 3132.61,703.688 3129.5,702C 3130.7,698.79 3132.7,696.123 3135.5,694C 3134.29,690.963 3133.46,687.796 3133,684.5C 3129.83,682.093 3130.49,680.76 3135,680.5C 3135.77,680.645 3136.44,680.978 3137,681.5C 3140.03,679.128 3143.03,676.795 3146,674.5C 3146.49,673.207 3146.66,671.873 3146.5,670.5C 3147.55,670.649 3148.55,670.483 3149.5,670C 3151.67,668.241 3153.33,666.074 3154.5,663.5C 3154.07,662.707 3153.74,661.873 3153.5,661C 3155.87,656.94 3155.87,652.773 3153.5,648.5C 3155.39,647.055 3157.06,645.388 3158.5,643.5 Z"/></g>
</svg>
