<?xml version="1.0" encoding="UTF-8"?>
<!DOCTYPE svg PUBLIC "-//W3C//DTD SVG 1.1//EN" "http://www.w3.org/Graphics/SVG/1.1/DTD/svg11.dtd">
<svg xmlns="http://www.w3.org/2000/svg" version="1.1" width="5632px" height="2048px" style="shape-rendering:geometricPrecision; text-rendering:geometricPrecision; image-rendering:optimizeQuality; fill-rule:evenodd; clip-rule:evenodd" xmlns:xlink="http://www.w3.org/1999/xlink">
<g><path style="opacity:1" fill="#432849" d="M 2880.5,498.5 C 2885.32,501.533 2890.99,503.867 2897.5,505.5C 2897.33,508.179 2896.33,510.513 2894.5,512.5C 2896.03,513.284 2897.7,514.284 2899.5,515.5C 2899.95,517.368 2900.28,519.201 2900.5,521C 2898.97,525.535 2896.97,529.869 2894.5,534C 2896.26,535.654 2896.6,537.487 2895.5,539.5C 2898.48,542.023 2898.81,544.69 2896.5,547.5C 2898.15,549.995 2900.48,551.495 2903.5,552C 2905.77,554.897 2908.77,556.897 2912.5,558C 2914.73,559.62 2916.06,561.786 2916.5,564.5C 2914.74,567.934 2913.07,571.434 2911.5,575C 2912.33,575.915 2913.33,576.581 2914.5,577C 2914.04,577.414 2913.71,577.914 2913.5,578.5C 2914.5,579.333 2915.5,580.167 2916.5,581C 2913.39,581.851 2913.05,583.017 2915.5,584.5C 2912.65,587.513 2909.48,590.18 2906,592.5C 2904.42,595.751 2902.42,598.751 2900,601.5C 2899.69,609.724 2897.53,610.224 2893.5,603C 2901.13,594.575 2899.13,589.908 2887.5,589C 2889.59,587.745 2890.59,585.912 2890.5,583.5C 2890.27,580.242 2889.27,577.242 2887.5,574.5C 2887.61,573.558 2887.94,572.725 2888.5,572C 2886.44,569.357 2885.77,566.524 2886.5,563.5C 2885.62,561.571 2884.62,559.737 2883.5,558C 2883.76,556.739 2884.43,555.739 2885.5,555C 2883.08,550.828 2880.41,546.828 2877.5,543C 2874.94,541.921 2872.27,541.421 2869.5,541.5C 2869.67,542.822 2869.34,543.989 2868.5,545C 2863.94,545.389 2859.61,544.555 2855.5,542.5C 2854.17,541.167 2854.17,539.833 2855.5,538.5C 2852.02,538.918 2849.35,537.418 2847.5,534C 2840.61,533.05 2834.28,530.717 2828.5,527C 2830.02,522.329 2830.85,517.495 2831,512.5C 2831.83,511.667 2832.67,510.833 2833.5,510C 2841.67,508.878 2849.34,506.378 2856.5,502.5C 2858.05,504.146 2859.72,504.479 2861.5,503.5C 2863.3,504.265 2865.13,504.932 2867,505.5C 2870.26,503.914 2873.26,501.914 2876,499.5C 2877.75,500.613 2879.25,500.28 2880.5,498.5 Z"/></g>
</svg>
