<?xml version="1.0" encoding="UTF-8"?>
<!DOCTYPE svg PUBLIC "-//W3C//DTD SVG 1.1//EN" "http://www.w3.org/Graphics/SVG/1.1/DTD/svg11.dtd">
<svg xmlns="http://www.w3.org/2000/svg" version="1.1" width="5632px" height="2048px" style="shape-rendering:geometricPrecision; text-rendering:geometricPrecision; image-rendering:optimizeQuality; fill-rule:evenodd; clip-rule:evenodd" xmlns:xlink="http://www.w3.org/1999/xlink">
<g><path style="opacity:1" fill="#6a9e8d" d="M 4345.5,1209.5 C 4346.82,1207.39 4346.49,1205.39 4344.5,1203.5C 4347.03,1202.48 4347.03,1201.32 4344.5,1200C 4345.17,1198.67 4345.83,1197.33 4346.5,1196C 4344.02,1189.23 4341.52,1182.4 4339,1175.5C 4338.67,1177.83 4338.33,1180.17 4338,1182.5C 4337.51,1175.76 4335.84,1169.09 4333,1162.5C 4332.7,1159.29 4332.2,1156.13 4331.5,1153C 4332,1148.82 4331.33,1144.65 4329.5,1140.5C 4329.68,1139.45 4330.01,1138.45 4330.5,1137.5C 4330.06,1136.49 4329.4,1136.49 4328.5,1137.5C 4325.7,1135.43 4326.04,1133.93 4329.5,1133C 4328.22,1132.32 4327.05,1132.48 4326,1133.5C 4324.07,1130.05 4322.74,1126.39 4322,1122.5C 4317.73,1116.88 4316.57,1117.55 4318.5,1124.5C 4318,1129.16 4315.5,1132.16 4311,1133.5C 4309.26,1132.32 4308.26,1130.65 4308,1128.5C 4307.67,1130.85 4307.83,1133.18 4308.5,1135.5C 4305.88,1136.75 4303.21,1138.09 4300.5,1139.5C 4299.23,1142.44 4297.23,1144.77 4294.5,1146.5C 4293.75,1145.62 4293.25,1144.62 4293,1143.5C 4292.69,1144.31 4292.19,1144.97 4291.5,1145.5C 4290.76,1143.31 4290.43,1141.31 4290.5,1139.5C 4289.77,1141.34 4289.1,1143.17 4288.5,1145C 4288.17,1145.17 4287.83,1145.33 4287.5,1145.5C 4286.82,1144.4 4286.16,1143.4 4285.5,1142.5C 4285.59,1139.4 4285.09,1139.07 4284,1141.5C 4283.09,1140.35 4282.25,1140.51 4281.5,1142C 4281.83,1142.33 4282.17,1142.67 4282.5,1143C 4281.5,1143.67 4280.5,1143.67 4279.5,1143C 4280.59,1140.83 4281.92,1138.83 4283.5,1137C 4283.17,1136.83 4282.83,1136.67 4282.5,1136.5C 4280.84,1138.46 4279.18,1140.46 4277.5,1142.5C 4277.17,1141.17 4276.83,1139.83 4276.5,1138.5C 4278.96,1131.01 4280.96,1123.34 4282.5,1115.5C 4281.31,1107.75 4278.64,1100.58 4274.5,1094C 4276.09,1090.77 4275.26,1088.27 4272,1086.5C 4271.5,1087 4271,1087.5 4270.5,1088C 4272.19,1089.91 4272.69,1092.08 4272,1094.5C 4269.16,1091.99 4266.66,1089.16 4264.5,1086C 4265,1085.5 4265.5,1085 4266,1084.5C 4269.57,1088.47 4270.07,1088.13 4267.5,1083.5C 4267.83,1083.17 4268.17,1082.83 4268.5,1082.5C 4270.08,1083.64 4271.74,1084.14 4273.5,1084C 4271.73,1081.61 4269.4,1079.94 4266.5,1079C 4267.17,1078.33 4267.83,1077.67 4268.5,1077C 4265.9,1075.86 4263.24,1075.03 4260.5,1074.5C 4260.3,1076.39 4260.96,1077.89 4262.5,1079C 4262,1079.17 4261.5,1079.33 4261,1079.5C 4259.13,1078.62 4257.97,1077.12 4257.5,1075C 4260.61,1072.66 4260.77,1069.82 4258,1066.5C 4257.49,1068.88 4256.82,1071.21 4256,1073.5C 4255.5,1073 4255,1072.5 4254.5,1072C 4255.89,1070.04 4255.72,1068.2 4254,1066.5C 4254.62,1068.09 4254.28,1069.43 4253,1070.5C 4252.07,1067.64 4250.4,1065.31 4248,1063.5C 4247.47,1060.09 4246.64,1056.76 4245.5,1053.5C 4245.56,1052.26 4246.06,1051.26 4247,1050.5C 4247.94,1052.06 4249.11,1053.39 4250.5,1054.5C 4251.35,1053.48 4252.35,1052.64 4253.5,1052C 4250.07,1047.52 4250.24,1043.02 4254,1038.5C 4255.82,1042.29 4257.82,1042.29 4260,1038.5C 4260.59,1034.7 4260.09,1031.04 4258.5,1027.5C 4259.35,1025.94 4259.01,1024.44 4257.5,1023C 4261.73,1022.26 4263.39,1019.76 4262.5,1015.5C 4262.79,1011.88 4261.79,1008.71 4259.5,1006C 4264.99,1007.26 4270.33,1008.43 4275.5,1009.5C 4277.21,1002.25 4279.88,995.415 4283.5,989C 4282.49,987.832 4281.49,986.665 4280.5,985.5C 4284.1,981.398 4287.1,976.898 4289.5,972C 4286.86,969.609 4286.86,967.275 4289.5,965C 4288.83,964.667 4288.17,964.333 4287.5,964C 4293.65,960.753 4299.31,956.753 4304.5,952C 4307.59,951.852 4310.42,951.019 4313,949.5C 4321.62,957.033 4323.12,956.033 4317.5,946.5C 4320.33,944.838 4323.16,943.171 4326,941.5C 4326.59,940.101 4326.43,938.768 4325.5,937.5C 4329.47,932.796 4333.8,932.796 4338.5,937.5C 4339.29,940.848 4340.12,944.182 4341,947.5C 4343.18,946.892 4345.18,947.559 4347,949.5C 4348.24,957.136 4348.57,964.803 4348,972.5C 4346.38,973.536 4346.22,974.703 4347.5,976C 4346.96,978.109 4345.96,978.609 4344.5,977.5C 4343.33,979.167 4342.17,980.833 4341,982.5C 4340.59,982.043 4340.09,981.709 4339.5,981.5C 4338.72,982.729 4338.22,984.062 4338,985.5C 4333.97,987.832 4331.3,991.165 4330,995.5C 4330.45,998.659 4330.95,1001.66 4331.5,1004.5C 4330.69,1005.81 4329.69,1006.98 4328.5,1008C 4331.21,1008.74 4333.55,1008.07 4335.5,1006C 4339.17,1005.33 4342.83,1005.33 4346.5,1006C 4348.96,1007.51 4348.96,1008.85 4346.5,1010C 4348.51,1013.53 4349.85,1017.36 4350.5,1021.5C 4353.42,1022.41 4356.42,1022.74 4359.5,1022.5C 4358.77,1025.62 4357.77,1028.62 4356.5,1031.5C 4358.17,1035.28 4356.84,1036.45 4352.5,1035C 4350.94,1032.34 4348.61,1031.17 4345.5,1031.5C 4345.58,1032.93 4345.25,1034.26 4344.5,1035.5C 4346.49,1037.82 4347.49,1040.48 4347.5,1043.5C 4346.5,1043.5 4345.5,1043.5 4344.5,1043.5C 4344.49,1047.47 4345.49,1051.14 4347.5,1054.5C 4347.45,1057.19 4346.12,1058.52 4343.5,1058.5C 4343.5,1060.84 4344.34,1062.84 4346,1064.5C 4346.81,1066.58 4346.64,1068.58 4345.5,1070.5C 4340.52,1073.41 4335.19,1075.41 4329.5,1076.5C 4329.22,1080.85 4328.22,1085.02 4326.5,1089C 4326.83,1089.33 4327.17,1089.67 4327.5,1090C 4325.23,1092.37 4323.9,1095.21 4323.5,1098.5C 4328.4,1104.62 4332.57,1111.29 4336,1118.5C 4338.74,1121.41 4341.58,1124.08 4344.5,1126.5C 4343.83,1127.5 4343.17,1128.5 4342.5,1129.5C 4343.75,1131 4344.75,1132.67 4345.5,1134.5C 4346.39,1135.59 4347.39,1135.59 4348.5,1134.5C 4348.83,1135 4349.17,1135.5 4349.5,1136C 4347.76,1138.51 4346.09,1141.01 4344.5,1143.5C 4345.16,1146.47 4345.49,1149.47 4345.5,1152.5C 4343.1,1153.05 4340.77,1153.88 4338.5,1155C 4339.72,1159.43 4341.55,1163.6 4344,1167.5C 4356.21,1176.14 4358.38,1186.81 4350.5,1199.5C 4351.05,1202.83 4351.55,1206.16 4352,1209.5C 4354.21,1211.71 4356.37,1213.87 4358.5,1216C 4356.35,1219.49 4354.18,1222.99 4352,1226.5C 4351,1227.17 4350,1227.83 4349,1228.5C 4349.26,1233.21 4347.76,1237.21 4344.5,1240.5C 4343.72,1237.01 4343.06,1233.51 4342.5,1230C 4344.02,1228.81 4345.19,1227.31 4346,1225.5C 4347.26,1221.53 4347.76,1217.53 4347.5,1213.5C 4346.76,1212.71 4345.92,1212.05 4345,1211.5C 4344.58,1213.29 4343.58,1214.62 4342,1215.5C 4340.92,1212.09 4342.09,1210.09 4345.5,1209.5 Z"/></g>
<g><path style="opacity:1" fill="#6a9e8d" d="M 4264.5,1077.5 C 4265.53,1077.9 4265.69,1078.56 4265,1079.5C 4264.54,1078.91 4264.37,1078.24 4264.5,1077.5 Z"/></g>
<g><path style="opacity:1" fill="#6a9e8d" d="M 4265.5,1093.5 C 4266.85,1094.17 4268.01,1094.17 4269,1093.5C 4269.78,1094.94 4269.61,1096.28 4268.5,1097.5C 4266.71,1096.72 4265.71,1095.38 4265.5,1093.5 Z"/></g>
<g><path style="opacity:1" fill="#6a9e8d" d="M 4285.5,1142.5 C 4285.22,1143.29 4284.72,1143.96 4284,1144.5C 4283.47,1143.18 4283.97,1142.52 4285.5,1142.5 Z"/></g>
<g><path style="opacity:1" fill="#6a9e8d" d="M 4340.5,1196.5 C 4342.92,1198.23 4343.09,1200.23 4341,1202.5C 4340.5,1200.53 4340.34,1198.53 4340.5,1196.5 Z"/></g>
<g><path style="opacity:1" fill="#6a9e8d" d="M 4335.5,1200.5 C 4337.98,1200.75 4337.98,1201.41 4335.5,1202.5C 4334.54,1202.03 4334.54,1201.36 4335.5,1200.5 Z"/></g>
<g><path style="opacity:1" fill="#6a9e8d" d="M 4336.5,1203.5 C 4337.53,1203.9 4337.69,1204.56 4337,1205.5C 4336.54,1204.91 4336.37,1204.24 4336.5,1203.5 Z"/></g>
<g><path style="opacity:1" fill="#6a9e8d" d="M 4345.5,1209.5 C 4344.5,1209.5 4343.5,1209.5 4342.5,1209.5C 4342.72,1205.94 4343.72,1205.94 4345.5,1209.5 Z"/></g>
<g><path style="opacity:1" fill="#6a9e8d" d="M 4339.5,1210.5 C 4340.71,1212.43 4340.54,1214.43 4339,1216.5C 4338.82,1214.51 4338.99,1212.51 4339.5,1210.5 Z"/></g>
<g><path style="opacity:1" fill="#6a9e8d" d="M 4338.5,1240.5 C 4338.9,1239.47 4339.56,1239.31 4340.5,1240C 4339.91,1240.46 4339.24,1240.63 4338.5,1240.5 Z"/></g>
<g><path style="opacity:1" fill="#6a9e8d" d="M 4338.5,1240.5 C 4339.24,1240.63 4339.91,1240.46 4340.5,1240C 4339.56,1239.31 4338.9,1239.47 4338.5,1240.5 Z"/></g>
</svg>
