<?xml version="1.0" encoding="UTF-8"?>
<!DOCTYPE svg PUBLIC "-//W3C//DTD SVG 1.1//EN" "http://www.w3.org/Graphics/SVG/1.1/DTD/svg11.dtd">
<svg xmlns="http://www.w3.org/2000/svg" version="1.1" width="5632px" height="2048px" style="shape-rendering:geometricPrecision; text-rendering:geometricPrecision; image-rendering:optimizeQuality; fill-rule:evenodd; clip-rule:evenodd" xmlns:xlink="http://www.w3.org/1999/xlink">
<g><path style="opacity:1" fill="#ae9f41" d="M 3042.5,1039.5 C 3042.54,1044.92 3044.71,1049.25 3049,1052.5C 3049.05,1056.33 3050.72,1059.67 3054,1062.5C 3054.71,1064.37 3054.21,1065.87 3052.5,1067C 3055.96,1070.07 3055.79,1073.24 3052,1076.5C 3050.99,1082.8 3050.49,1089.13 3050.5,1095.5C 3053.91,1094.83 3056.57,1095.83 3058.5,1098.5C 3056.97,1100.23 3055.97,1102.23 3055.5,1104.5C 3056.53,1108.46 3056.7,1112.46 3056,1116.5C 3053.04,1118.22 3051.54,1120.89 3051.5,1124.5C 3053.39,1128.56 3052.56,1131.89 3049,1134.5C 3049,1137.83 3049,1141.17 3049,1144.5C 3046.43,1145.98 3044.26,1145.48 3042.5,1143C 3040.5,1142.33 3038.5,1142.33 3036.5,1143C 3031.69,1147.48 3027.19,1152.31 3023,1157.5C 3022.21,1158.74 3021.71,1160.08 3021.5,1161.5C 3021.63,1162.24 3021.46,1162.91 3021,1163.5C 3019.42,1162.04 3018.08,1160.37 3017,1158.5C 3016.44,1159.02 3015.77,1159.36 3015,1159.5C 3012.48,1156.92 3009.98,1156.92 3007.5,1159.5C 3006.99,1157.15 3005.99,1155.15 3004.5,1153.5C 3003.9,1156.89 3002.57,1159.89 3000.5,1162.5C 3001.93,1165.33 3002.6,1168.33 3002.5,1171.5C 3004.93,1171.12 3007.26,1170.45 3009.5,1169.5C 3009.98,1172.66 3010.98,1175.66 3012.5,1178.5C 3010.06,1179.11 3008.39,1180.61 3007.5,1183C 3006.55,1183.48 3005.55,1183.65 3004.5,1183.5C 3004.79,1185.29 3004.45,1186.95 3003.5,1188.5C 3001.57,1189.38 2999.74,1190.38 2998,1191.5C 2995.31,1189.23 2992.48,1187.06 2989.5,1185C 2984.97,1184.33 2980.47,1183.49 2976,1182.5C 2972.25,1183.92 2968.42,1185.08 2964.5,1186C 2962.88,1186.62 2961.55,1187.62 2960.5,1189C 2956.14,1189.11 2951.98,1189.94 2948,1191.5C 2944.09,1189.3 2939.93,1187.8 2935.5,1187C 2934.83,1186.33 2934.17,1185.67 2933.5,1185C 2931.11,1184.71 2928.78,1184.21 2926.5,1183.5C 2924.13,1186.11 2921.29,1188.11 2918,1189.5C 2913.06,1187.62 2909.56,1184.95 2907.5,1181.5C 2904.62,1180.69 2901.78,1180.69 2899,1181.5C 2897.29,1180.92 2896.12,1179.76 2895.5,1178C 2891.8,1177.32 2888.13,1177.49 2884.5,1178.5C 2882.21,1176.55 2879.54,1175.55 2876.5,1175.5C 2872.71,1171.06 2868.71,1170.89 2864.5,1175C 2862.43,1175.69 2860.43,1175.52 2858.5,1174.5C 2857.5,1171.84 2856,1169.5 2854,1167.5C 2853.35,1165.76 2853.52,1164.1 2854.5,1162.5C 2852.66,1162.24 2850.66,1162.08 2848.5,1162C 2847.76,1160.22 2847.09,1158.38 2846.5,1156.5C 2845.31,1155.57 2843.98,1155.24 2842.5,1155.5C 2842.19,1153.08 2842.53,1150.74 2843.5,1148.5C 2846.25,1147.49 2848.25,1145.66 2849.5,1143C 2851.57,1142.46 2853.4,1142.96 2855,1144.5C 2857.01,1142.52 2856.85,1140.69 2854.5,1139C 2850.84,1137.5 2847.5,1135.5 2844.5,1133C 2836.87,1133.2 2831.87,1129.7 2829.5,1122.5C 2824.51,1122.6 2820.68,1120.6 2818,1116.5C 2816.75,1113.92 2816.42,1111.26 2817,1108.5C 2820.17,1104 2824,1100.17 2828.5,1097C 2834.91,1096.05 2841.25,1094.72 2847.5,1093C 2860.34,1093.5 2872.67,1091.5 2884.5,1087C 2887.83,1086.67 2891.17,1086.33 2894.5,1086C 2904.46,1077.68 2914.46,1069.34 2924.5,1061C 2947.17,1046.66 2970.17,1032.83 2993.5,1019.5C 3000.92,1022.77 3008.58,1025.27 3016.5,1027C 3018.83,1028.67 3021.17,1030.33 3023.5,1032C 3028.88,1033.57 3033.88,1035.9 3038.5,1039C 3039.79,1039.49 3041.13,1039.66 3042.5,1039.5 Z"/></g>
<g><path style="opacity:1" fill="#477771" d="M 3042.5,1039.5 C 3045.39,1040.78 3048.39,1041.78 3051.5,1042.5C 3058.04,1041.42 3063.7,1043.26 3068.5,1048C 3071.09,1049.66 3073.76,1049.99 3076.5,1049C 3080.8,1052.3 3084.8,1055.96 3088.5,1060C 3091.79,1059.63 3095.12,1059.63 3098.5,1060C 3125.12,1072.26 3151.79,1084.43 3178.5,1096.5C 3179.5,1111.15 3179.83,1125.82 3179.5,1140.5C 3174.5,1139.92 3169.5,1139.75 3164.5,1140C 3162.63,1143.63 3161.13,1147.46 3160,1151.5C 3158.42,1155.25 3155.92,1158.25 3152.5,1160.5C 3147.67,1159.97 3142.83,1159.64 3138,1159.5C 3134.32,1160.28 3130.82,1161.45 3127.5,1163C 3125.19,1163.5 3122.86,1163.66 3120.5,1163.5C 3120.88,1166.52 3121.04,1169.52 3121,1172.5C 3118.41,1174.64 3115.74,1176.64 3113,1178.5C 3112.31,1177.64 3111.48,1176.98 3110.5,1176.5C 3107.88,1180.52 3105.55,1184.69 3103.5,1189C 3102.5,1189.67 3101.5,1189.67 3100.5,1189C 3099.9,1186.95 3098.57,1185.79 3096.5,1185.5C 3092.5,1186.83 3088.5,1186.83 3084.5,1185.5C 3082.91,1186.01 3081.75,1187.01 3081,1188.5C 3080.29,1187.03 3079.12,1186.36 3077.5,1186.5C 3077.8,1188.6 3077.47,1190.6 3076.5,1192.5C 3073.91,1193.74 3071.75,1195.4 3070,1197.5C 3068.5,1197.33 3067.67,1196.5 3067.5,1195C 3068.17,1193.67 3068.83,1192.33 3069.5,1191C 3068.28,1188.29 3067.28,1185.63 3066.5,1183C 3066,1182.83 3065.5,1182.67 3065,1182.5C 3063.63,1184.2 3061.96,1185.54 3060,1186.5C 3058.5,1185.52 3057,1184.52 3055.5,1183.5C 3052.53,1184.41 3049.53,1184.41 3046.5,1183.5C 3043.18,1183.04 3039.85,1181.7 3036.5,1179.5C 3035.46,1181.99 3034.63,1181.99 3034,1179.5C 3032.33,1179.83 3030.67,1180.17 3029,1180.5C 3029.41,1177.71 3030.41,1175.04 3032,1172.5C 3032.65,1173.7 3033.15,1173.7 3033.5,1172.5C 3030.99,1169.49 3028.32,1166.66 3025.5,1164C 3025.83,1163 3026.17,1162 3026.5,1161C 3024.8,1160.62 3023.14,1160.78 3021.5,1161.5C 3021.71,1160.08 3022.21,1158.74 3023,1157.5C 3027.19,1152.31 3031.69,1147.48 3036.5,1143C 3038.5,1142.33 3040.5,1142.33 3042.5,1143C 3044.26,1145.48 3046.43,1145.98 3049,1144.5C 3049,1141.17 3049,1137.83 3049,1134.5C 3052.56,1131.89 3053.39,1128.56 3051.5,1124.5C 3051.54,1120.89 3053.04,1118.22 3056,1116.5C 3056.7,1112.46 3056.53,1108.46 3055.5,1104.5C 3055.97,1102.23 3056.97,1100.23 3058.5,1098.5C 3056.57,1095.83 3053.91,1094.83 3050.5,1095.5C 3050.49,1089.13 3050.99,1082.8 3052,1076.5C 3055.79,1073.24 3055.96,1070.07 3052.5,1067C 3054.21,1065.87 3054.71,1064.37 3054,1062.5C 3050.72,1059.67 3049.05,1056.33 3049,1052.5C 3044.71,1049.25 3042.54,1044.92 3042.5,1039.5 Z"/></g>
<g><path style="opacity:1" fill="#356b42" d="M 3152.5,1160.5 C 3154.6,1163.14 3155.27,1165.97 3154.5,1169C 3152.1,1169.79 3149.93,1170.96 3148,1172.5C 3148.58,1175.32 3149.42,1178.15 3150.5,1181C 3148.32,1183.02 3146.32,1185.18 3144.5,1187.5C 3145.07,1189.06 3145.74,1190.56 3146.5,1192C 3149.13,1192.11 3151.63,1192.27 3154,1192.5C 3154.28,1197.2 3154.78,1201.86 3155.5,1206.5C 3155.39,1207.44 3155.06,1208.28 3154.5,1209C 3156.96,1210.46 3159.13,1212.29 3161,1214.5C 3160.16,1221.14 3162.82,1226.14 3169,1229.5C 3173.79,1236.98 3173.62,1244.31 3168.5,1251.5C 3171.85,1256.4 3170.51,1259.4 3164.5,1260.5C 3163.83,1261.83 3163.17,1263.17 3162.5,1264.5C 3159.12,1265.61 3156.45,1267.61 3154.5,1270.5C 3151.95,1269.25 3150.62,1267.25 3150.5,1264.5C 3149.13,1264.34 3147.79,1264.51 3146.5,1265C 3145.83,1267 3145.17,1269 3144.5,1271C 3142.5,1271.33 3140.5,1271.67 3138.5,1272C 3136.25,1278.74 3132.42,1280.24 3127,1276.5C 3125.31,1278.03 3123.47,1279.36 3121.5,1280.5C 3118.19,1279.71 3114.86,1279.04 3111.5,1278.5C 3109.02,1278.81 3106.85,1279.81 3105,1281.5C 3103.6,1280.61 3102.1,1279.94 3100.5,1279.5C 3098.5,1280.83 3096.5,1280.83 3094.5,1279.5C 3092.06,1280.04 3089.72,1280.87 3087.5,1282C 3085.41,1285.51 3083.08,1288.84 3080.5,1292C 3077.08,1292.1 3073.91,1292.93 3071,1294.5C 3067.44,1289.46 3063.61,1289.29 3059.5,1294C 3055.78,1293.93 3052.11,1294.09 3048.5,1294.5C 3047.83,1294.17 3047.17,1293.83 3046.5,1293.5C 3047.83,1292.5 3047.83,1291.5 3046.5,1290.5C 3045.26,1289.64 3043.93,1288.98 3042.5,1288.5C 3038.74,1290.51 3036.4,1293.51 3035.5,1297.5C 3034.5,1297.5 3033.5,1297.5 3032.5,1297.5C 3032.66,1298.87 3032.49,1300.21 3032,1301.5C 3028.91,1302.92 3026.91,1305.26 3026,1308.5C 3020.76,1309.4 3016.93,1312.23 3014.5,1317C 3010.83,1317.33 3007.17,1317.67 3003.5,1318C 2999.55,1320.65 2995.55,1323.32 2991.5,1326C 2988.17,1326.33 2984.83,1326.67 2981.5,1327C 2979.18,1329.49 2976.51,1331.49 2973.5,1333C 2972.75,1336.21 2970.75,1337.71 2967.5,1337.5C 2967.67,1338.82 2967.34,1339.99 2966.5,1341C 2964.08,1342.17 2961.74,1343.17 2959.5,1344C 2957.81,1342.35 2956.48,1340.52 2955.5,1338.5C 2955.82,1337.35 2956.48,1336.52 2957.5,1336C 2955.95,1334.79 2954.78,1333.29 2954,1331.5C 2953.78,1332.94 2953.28,1334.27 2952.5,1335.5C 2950.27,1334.1 2947.94,1332.93 2945.5,1332C 2945.83,1331.67 2946.17,1331.33 2946.5,1331C 2945.04,1328.73 2944.21,1326.23 2944,1323.5C 2942.85,1324.46 2941.85,1324.12 2941,1322.5C 2940.38,1323.45 2940.55,1324.28 2941.5,1325C 2940.36,1325.75 2939.36,1325.58 2938.5,1324.5C 2939.33,1323.55 2939.49,1322.55 2939,1321.5C 2938.67,1321.83 2938.33,1322.17 2938,1322.5C 2937.31,1321.64 2936.48,1320.98 2935.5,1320.5C 2935.83,1321.66 2935.83,1323 2935.5,1324.5C 2930.83,1325.37 2926.33,1325.7 2922,1325.5C 2920.29,1324.06 2918.46,1323.22 2916.5,1323C 2917.38,1323.71 2918.05,1324.54 2918.5,1325.5C 2917.5,1325.5 2916.5,1325.5 2915.5,1325.5C 2915.73,1323.65 2915.06,1322.81 2913.5,1323C 2916.44,1327.85 2916.11,1328.35 2912.5,1324.5C 2912.09,1325.56 2912.09,1326.89 2912.5,1328.5C 2909.29,1328.99 2906.46,1328.32 2904,1326.5C 2902.43,1330.23 2901.27,1330.23 2900.5,1326.5C 2901.04,1323.75 2901.87,1321.09 2903,1318.5C 2906.17,1314.16 2908.84,1309.49 2911,1304.5C 2911.11,1298.33 2910.94,1292.33 2910.5,1286.5C 2912.36,1280.9 2912.69,1275.23 2911.5,1269.5C 2908.96,1265.59 2906.29,1261.76 2903.5,1258C 2894.84,1257.83 2887.17,1255 2880.5,1249.5C 2877.84,1241.13 2878.17,1232.96 2881.5,1225C 2879.62,1222.89 2877.29,1221.56 2874.5,1221C 2872.51,1219.68 2871.35,1217.85 2871,1215.5C 2868.71,1214.18 2866.55,1212.68 2864.5,1211C 2865.31,1205.92 2865.81,1200.75 2866,1195.5C 2868.04,1193.13 2870.37,1191.13 2873,1189.5C 2872.68,1186.54 2872.68,1183.54 2873,1180.5C 2874.67,1179.15 2875.84,1177.49 2876.5,1175.5C 2879.54,1175.55 2882.21,1176.55 2884.5,1178.5C 2888.13,1177.49 2891.8,1177.32 2895.5,1178C 2896.12,1179.76 2897.29,1180.92 2899,1181.5C 2901.78,1180.69 2904.62,1180.69 2907.5,1181.5C 2909.56,1184.95 2913.06,1187.62 2918,1189.5C 2921.29,1188.11 2924.13,1186.11 2926.5,1183.5C 2928.78,1184.21 2931.11,1184.71 2933.5,1185C 2934.17,1185.67 2934.83,1186.33 2935.5,1187C 2939.93,1187.8 2944.09,1189.3 2948,1191.5C 2951.98,1189.94 2956.14,1189.11 2960.5,1189C 2961.55,1187.62 2962.88,1186.62 2964.5,1186C 2968.42,1185.08 2972.25,1183.92 2976,1182.5C 2980.47,1183.49 2984.97,1184.33 2989.5,1185C 2992.48,1187.06 2995.31,1189.23 2998,1191.5C 2999.74,1190.38 3001.57,1189.38 3003.5,1188.5C 3004.45,1186.95 3004.79,1185.29 3004.5,1183.5C 3005.55,1183.65 3006.55,1183.48 3007.5,1183C 3008.39,1180.61 3010.06,1179.11 3012.5,1178.5C 3015.84,1182.01 3019.01,1185.67 3022,1189.5C 3022.72,1191.11 3022.55,1192.61 3021.5,1194C 3022.17,1194.67 3022.83,1195.33 3023.5,1196C 3026.45,1195.6 3029.45,1195.1 3032.5,1194.5C 3032.09,1192.89 3032.09,1191.56 3032.5,1190.5C 3036.7,1190.76 3039.7,1192.76 3041.5,1196.5C 3045.78,1196.24 3047.12,1194.24 3045.5,1190.5C 3049.03,1188.58 3049.37,1186.25 3046.5,1183.5C 3049.53,1184.41 3052.53,1184.41 3055.5,1183.5C 3057,1184.52 3058.5,1185.52 3060,1186.5C 3061.96,1185.54 3063.63,1184.2 3065,1182.5C 3065.5,1182.67 3066,1182.83 3066.5,1183C 3067.28,1185.63 3068.28,1188.29 3069.5,1191C 3068.83,1192.33 3068.17,1193.67 3067.5,1195C 3067.67,1196.5 3068.5,1197.33 3070,1197.5C 3071.75,1195.4 3073.91,1193.74 3076.5,1192.5C 3077.47,1190.6 3077.8,1188.6 3077.5,1186.5C 3079.12,1186.36 3080.29,1187.03 3081,1188.5C 3081.75,1187.01 3082.91,1186.01 3084.5,1185.5C 3088.5,1186.83 3092.5,1186.83 3096.5,1185.5C 3098.57,1185.79 3099.9,1186.95 3100.5,1189C 3101.5,1189.67 3102.5,1189.67 3103.5,1189C 3105.55,1184.69 3107.88,1180.52 3110.5,1176.5C 3111.48,1176.98 3112.31,1177.64 3113,1178.5C 3115.74,1176.64 3118.41,1174.64 3121,1172.5C 3121.04,1169.52 3120.88,1166.52 3120.5,1163.5C 3122.86,1163.66 3125.19,1163.5 3127.5,1163C 3130.82,1161.45 3134.32,1160.28 3138,1159.5C 3142.83,1159.64 3147.67,1159.97 3152.5,1160.5 Z"/></g>
<g><path style="opacity:1" fill="#356b42" d="M 2918.5,1325.5 C 2920.05,1325.82 2920.71,1326.82 2920.5,1328.5C 2916.36,1329.04 2915.69,1328.04 2918.5,1325.5 Z"/></g>
</svg>
