<?xml version="1.0" encoding="UTF-8"?>
<!DOCTYPE svg PUBLIC "-//W3C//DTD SVG 1.1//EN" "http://www.w3.org/Graphics/SVG/1.1/DTD/svg11.dtd">
<svg xmlns="http://www.w3.org/2000/svg" version="1.1" width="5632px" height="2048px" style="shape-rendering:geometricPrecision; text-rendering:geometricPrecision; image-rendering:optimizeQuality; fill-rule:evenodd; clip-rule:evenodd" xmlns:xlink="http://www.w3.org/1999/xlink">
<g><path style="opacity:1" fill="#934550" d="M 1469.5,998.5 C 1473.1,999.698 1476.76,1000.7 1480.5,1001.5C 1484.56,1000.84 1488.23,1002 1491.5,1005C 1494.7,1005.99 1497.53,1005.49 1500,1003.5C 1503.38,1012.39 1508.88,1019.72 1516.5,1025.5C 1515.24,1024.97 1513.74,1024.97 1512,1025.5C 1510.9,1029.28 1511.74,1032.45 1514.5,1035C 1513.5,1036 1512.5,1037 1511.5,1038C 1513.09,1040.87 1512.42,1043.03 1509.5,1044.5C 1508.56,1041.9 1506.9,1039.9 1504.5,1038.5C 1504.17,1038.83 1503.83,1039.17 1503.5,1039.5C 1507.86,1043.09 1507.19,1044.26 1501.5,1043C 1500.5,1042.17 1499.5,1041.33 1498.5,1040.5C 1501.5,1037.96 1501.83,1035.29 1499.5,1032.5C 1495.31,1029.16 1490.64,1026.66 1485.5,1025C 1484.76,1023.22 1484.09,1021.38 1483.5,1019.5C 1480.87,1018.04 1478.37,1016.37 1476,1014.5C 1475.51,1015.55 1475.67,1016.55 1476.5,1017.5C 1481.63,1019.31 1481.79,1021.64 1477,1024.5C 1476.53,1023.07 1475.7,1021.9 1474.5,1021C 1469.31,1020.81 1466.31,1018.14 1465.5,1013C 1466.44,1011.06 1467.77,1009.39 1469.5,1008C 1468.69,1006.03 1467.36,1004.53 1465.5,1003.5C 1466.32,1002.61 1467.32,1002.28 1468.5,1002.5C 1468.43,1001.04 1468.77,999.708 1469.5,998.5 Z"/></g>
</svg>
