<?xml version="1.0" encoding="UTF-8"?>
<!DOCTYPE svg PUBLIC "-//W3C//DTD SVG 1.1//EN" "http://www.w3.org/Graphics/SVG/1.1/DTD/svg11.dtd">
<svg xmlns="http://www.w3.org/2000/svg" version="1.1" width="5632px" height="2048px" style="shape-rendering:geometricPrecision; text-rendering:geometricPrecision; image-rendering:optimizeQuality; fill-rule:evenodd; clip-rule:evenodd" xmlns:xlink="http://www.w3.org/1999/xlink">
<g><path style="opacity:1" fill="#d57d52" d="M 1687.5,856.5 C 1691.16,857.722 1694.83,857.722 1698.5,856.5C 1700.6,857.592 1702.77,858.592 1705,859.5C 1705.41,859.043 1705.91,858.709 1706.5,858.5C 1708.62,861.41 1711.29,862.243 1714.5,861C 1715.17,862.667 1715.83,864.333 1716.5,866C 1719.86,866.314 1723.03,866.481 1726,866.5C 1726.17,866.833 1726.33,867.167 1726.5,867.5C 1724.23,868.314 1721.9,868.814 1719.5,869C 1723.56,870.889 1727.9,871.889 1732.5,872C 1734.87,874.176 1737.21,876.343 1739.5,878.5C 1738.4,881.386 1736.4,883.386 1733.5,884.5C 1732.5,884.167 1731.83,883.5 1731.5,882.5C 1726.68,881.696 1721.85,881.029 1717,880.5C 1714.67,880.817 1712.84,881.984 1711.5,884C 1709.44,884.311 1707.44,884.811 1705.5,885.5C 1704.31,880.782 1702.14,880.449 1699,884.5C 1698.59,884.043 1698.09,883.709 1697.5,883.5C 1695.9,887.577 1693.73,891.243 1691,894.5C 1689.09,892.343 1687.42,890.009 1686,887.5C 1684,882.833 1682,878.167 1680,873.5C 1674.02,870.105 1673.69,866.771 1679,863.5C 1680.9,865.016 1683.06,865.683 1685.5,865.5C 1685.53,863.418 1684.86,861.584 1683.5,860C 1684.45,859.383 1685.28,859.549 1686,860.5C 1686.41,859.099 1686.91,857.766 1687.5,856.5 Z"/></g>
</svg>
