<?xml version="1.0" encoding="UTF-8"?>
<!DOCTYPE svg PUBLIC "-//W3C//DTD SVG 1.1//EN" "http://www.w3.org/Graphics/SVG/1.1/DTD/svg11.dtd">
<svg xmlns="http://www.w3.org/2000/svg" version="1.1" width="5632px" height="2048px" style="shape-rendering:geometricPrecision; text-rendering:geometricPrecision; image-rendering:optimizeQuality; fill-rule:evenodd; clip-rule:evenodd" xmlns:xlink="http://www.w3.org/1999/xlink">
<g><path style="opacity:1" fill="#6c8be1" d="M 1575.5,1155.5 C 1577.13,1156.63 1578.63,1157.96 1580,1159.5C 1581.07,1158.72 1582.24,1158.89 1583.5,1160C 1584.17,1161.33 1584.83,1162.67 1585.5,1164C 1587.58,1164.19 1589.58,1164.69 1591.5,1165.5C 1592.91,1167.93 1594.41,1170.27 1596,1172.5C 1597.15,1173.74 1598.49,1174.74 1600,1175.5C 1602.04,1175.18 1604.21,1175.02 1606.5,1175C 1607.93,1173.2 1609.76,1172.04 1612,1171.5C 1617.05,1172.69 1621.55,1174.69 1625.5,1177.5C 1625.83,1181.02 1627.33,1184.02 1630,1186.5C 1632.44,1190.51 1631.77,1193.84 1628,1196.5C 1627.32,1197.78 1627.48,1198.95 1628.5,1200C 1623.17,1206.67 1617.17,1212.67 1610.5,1218C 1603.72,1220.03 1597.06,1222.36 1590.5,1225C 1587.51,1229.02 1584.34,1232.85 1581,1236.5C 1578.85,1243.08 1576.19,1249.41 1573,1255.5C 1571.56,1257.16 1569.72,1257.82 1567.5,1257.5C 1567.66,1256.13 1567.49,1254.79 1567,1253.5C 1564.07,1252.24 1562.24,1250.07 1561.5,1247C 1557.31,1246.74 1553.31,1247.57 1549.5,1249.5C 1547.89,1248.45 1546.89,1246.95 1546.5,1245C 1549.48,1241.56 1550.15,1237.73 1548.5,1233.5C 1551.46,1231.62 1554.63,1229.95 1558,1228.5C 1559.17,1225.17 1560.33,1221.84 1561.5,1218.5C 1561.19,1217.69 1560.69,1217.03 1560,1216.5C 1559.33,1219.27 1558.16,1219.77 1556.5,1218C 1557.42,1215.42 1558.75,1213.09 1560.5,1211C 1559,1210.49 1557.84,1210.99 1557,1212.5C 1556.03,1214.39 1555.36,1216.39 1555,1218.5C 1554.26,1219.57 1553.26,1220.24 1552,1220.5C 1549.38,1217.91 1546.38,1215.91 1543,1214.5C 1544.29,1212.93 1545.13,1210.93 1545.5,1208.5C 1545.51,1206.41 1544.85,1204.57 1543.5,1203C 1544.29,1201.91 1544.96,1200.75 1545.5,1199.5C 1544.05,1197.38 1543.39,1195.05 1543.5,1192.5C 1545.17,1192.5 1546.83,1192.5 1548.5,1192.5C 1548.33,1190.01 1549.33,1188.17 1551.5,1187C 1550.83,1186 1550.17,1185 1549.5,1184C 1551.29,1181.51 1553.46,1179.34 1556,1177.5C 1556.31,1175.44 1556.81,1173.44 1557.5,1171.5C 1557.17,1169.33 1556.51,1167 1555.5,1164.5C 1561.03,1162.6 1566.53,1160.6 1572,1158.5C 1572.33,1158.83 1572.67,1159.17 1573,1159.5C 1574.09,1158.31 1574.93,1156.97 1575.5,1155.5 Z"/></g>
<g><path style="opacity:1" fill="#6c8be1" d="M 1411.5,1189.5 C 1412.55,1189.35 1413.55,1189.52 1414.5,1190C 1412.92,1192.3 1410.92,1193.63 1408.5,1194C 1408.17,1193.67 1407.83,1193.33 1407.5,1193C 1409.32,1192.34 1410.66,1191.17 1411.5,1189.5 Z"/></g>
<g><path style="opacity:1" fill="#6c8be1" d="M 1391.5,1197.5 C 1392.08,1196.23 1392.74,1196.23 1393.5,1197.5C 1393.03,1198.46 1392.36,1198.46 1391.5,1197.5 Z"/></g>
<g><path style="opacity:1" fill="#6c8be1" d="M 1375.5,1200.5 C 1377.14,1200.48 1378.48,1201.15 1379.5,1202.5C 1382.37,1206.87 1385.03,1211.37 1387.5,1216C 1384.97,1220.14 1381.31,1221.47 1376.5,1220C 1375.83,1219.33 1375.17,1218.67 1374.5,1218C 1376.92,1215.91 1379.59,1214.24 1382.5,1213C 1381.33,1211.17 1379.83,1209.67 1378,1208.5C 1377.52,1209.45 1377.35,1210.45 1377.5,1211.5C 1370.91,1210.32 1370.91,1208.98 1377.5,1207.5C 1377.78,1204.61 1376.45,1203.11 1373.5,1203C 1374.76,1202.58 1375.42,1201.75 1375.5,1200.5 Z"/></g>
<g><path style="opacity:1" fill="#6c8be1" d="M 1405.5,1201.5 C 1405.9,1200.47 1406.56,1200.31 1407.5,1201C 1406.91,1201.46 1406.24,1201.63 1405.5,1201.5 Z"/></g>
<g><path style="opacity:1" fill="#6c8be1" d="M 1386.5,1205.5 C 1388.12,1206.04 1389.78,1206.37 1391.5,1206.5C 1391.54,1208.36 1390.71,1209.69 1389,1210.5C 1387.56,1209.1 1386.73,1207.43 1386.5,1205.5 Z"/></g>
<g><path style="opacity:1" fill="#6c8be1" d="M 1392.5,1211.5 C 1398.99,1211.14 1399.83,1212.81 1395,1216.5C 1391.95,1215.68 1391.11,1214.01 1392.5,1211.5 Z"/></g>
<g><path style="opacity:1" fill="#6c8be1" d="M 1555.5,1220.5 C 1556.68,1220.28 1557.68,1220.61 1558.5,1221.5C 1556.54,1222.75 1555.04,1224.41 1554,1226.5C 1553.5,1226 1553,1225.5 1552.5,1225C 1553.39,1223.39 1554.39,1221.89 1555.5,1220.5 Z"/></g>
<g><path style="opacity:1" fill="#6c8be1" d="M 1393.5,1223.5 C 1395.76,1224.24 1395.93,1225.24 1394,1226.5C 1392.27,1225.65 1392.1,1224.65 1393.5,1223.5 Z"/></g>
</svg>
