<?xml version="1.0" encoding="UTF-8"?>
<!DOCTYPE svg PUBLIC "-//W3C//DTD SVG 1.1//EN" "http://www.w3.org/Graphics/SVG/1.1/DTD/svg11.dtd">
<svg xmlns="http://www.w3.org/2000/svg" version="1.1" width="5632px" height="2048px" style="shape-rendering:geometricPrecision; text-rendering:geometricPrecision; image-rendering:optimizeQuality; fill-rule:evenodd; clip-rule:evenodd" xmlns:xlink="http://www.w3.org/1999/xlink">
<g><path style="opacity:1" fill="#3b3c3b" d="M 2978.5,438.5 C 2978.41,439.496 2978.75,440.329 2979.5,441C 2977.92,443.085 2975.92,444.585 2973.5,445.5C 2974.24,446.287 2975.08,446.953 2976,447.5C 2978.07,444.957 2980.24,444.957 2982.5,447.5C 2984.9,446.611 2986.9,445.111 2988.5,443C 2993.3,443.267 2996.97,441.434 2999.5,437.5C 2999.91,438.262 3000.08,439.262 3000,440.5C 3003.16,438.562 3006.66,437.562 3010.5,437.5C 3010.28,438.675 3010.61,439.675 3011.5,440.5C 3013.47,441.305 3014.97,442.639 3016,444.5C 3017.92,442.027 3019.76,442.027 3021.5,444.5C 3019.83,446.167 3020.17,447.167 3022.5,447.5C 3024.89,446.809 3024.89,445.809 3022.5,444.5C 3023.69,443.571 3025.02,443.238 3026.5,443.5C 3026.5,445.5 3026.5,447.5 3026.5,449.5C 3024.8,449.34 3023.13,449.506 3021.5,450C 3024.76,453.46 3028.76,454.96 3033.5,454.5C 3033.5,452.833 3033.5,451.167 3033.5,449.5C 3031.86,449.48 3030.52,450.147 3029.5,451.5C 3028.59,450.672 3027.92,449.672 3027.5,448.5C 3037.93,444.69 3048.6,441.69 3059.5,439.5C 3060.3,436.867 3061.97,435.033 3064.5,434C 3070.45,432.128 3076.45,430.461 3082.5,429C 3087.29,428.121 3091.95,428.455 3096.5,430C 3097.96,430.811 3098.29,431.645 3097.5,432.5C 3096.38,431.167 3095.05,430.667 3093.5,431C 3094.72,432.648 3095.55,434.481 3096,436.5C 3097.44,437.718 3099.1,438.385 3101,438.5C 3104.66,437.42 3108.16,435.92 3111.5,434C 3112.83,433.333 3114.17,433.333 3115.5,434C 3112.61,435.813 3109.61,437.479 3106.5,439C 3107,439.5 3107.5,440 3108,440.5C 3112.93,437.286 3118.09,434.452 3123.5,432C 3121.23,431.242 3119.06,431.409 3117,432.5C 3117.67,430.5 3117.67,428.5 3117,426.5C 3127.72,424.295 3133.55,417.962 3134.5,407.5C 3136.72,406.22 3138.72,406.553 3140.5,408.5C 3142.26,411.305 3143.93,414.138 3145.5,417C 3149.6,419.447 3153.94,421.447 3158.5,423C 3160,424.5 3161.5,426 3163,427.5C 3161.03,430.016 3160.03,433.016 3160,436.5C 3160.93,438.335 3162.09,438.668 3163.5,437.5C 3165.55,439.194 3167.89,440.361 3170.5,441C 3171.17,443 3171.83,445 3172.5,447C 3173.83,447.667 3175.17,447.667 3176.5,447C 3180.21,442.684 3184.38,440.85 3189,441.5C 3189.8,445.204 3189.3,448.704 3187.5,452C 3188.13,454.343 3189.13,456.51 3190.5,458.5C 3189.52,460.098 3189.35,461.765 3190,463.5C 3191.4,465.394 3192.57,467.394 3193.5,469.5C 3192.44,472.068 3190.77,474.235 3188.5,476C 3188.96,476.414 3189.29,476.914 3189.5,477.5C 3185.2,480.234 3180.7,482.568 3176,484.5C 3172.97,482.491 3170.14,482.491 3167.5,484.5C 3164.75,482.527 3161.75,481.027 3158.5,480C 3155.34,475.841 3151.84,472.008 3148,468.5C 3146.89,469.76 3146.72,470.927 3147.5,472C 3144.24,473.572 3141.24,475.572 3138.5,478C 3132.5,479.753 3126.66,481.919 3121,484.5C 3119.54,483.253 3118.04,483.253 3116.5,484.5C 3114.71,486.021 3113.38,487.854 3112.5,490C 3114.37,491.871 3115.7,494.204 3116.5,497C 3110.05,501.196 3106.05,507.029 3104.5,514.5C 3111.92,521.225 3113.75,528.892 3110,537.5C 3108.61,539.227 3106.94,540.561 3105,541.5C 3103.74,541.241 3102.74,540.574 3102,539.5C 3099.91,539.745 3097.91,539.745 3096,539.5C 3094.58,541.422 3092.75,542.755 3090.5,543.5C 3089.96,544.748 3089.29,545.915 3088.5,547C 3085.55,547.806 3082.89,549.139 3080.5,551C 3078.29,551.626 3076.12,551.459 3074,550.5C 3072.74,550.759 3071.74,551.426 3071,552.5C 3070.55,555.132 3069.72,557.632 3068.5,560C 3069.04,562.24 3070.2,564.073 3072,565.5C 3074.72,573.915 3072.38,576.248 3065,572.5C 3064.25,573.126 3063.42,573.626 3062.5,574C 3063.69,575.019 3064.69,576.186 3065.5,577.5C 3063.49,580.03 3062.16,582.863 3061.5,586C 3062.36,586.689 3063.02,587.522 3063.5,588.5C 3060.71,590.789 3058.04,593.289 3055.5,596C 3056.33,597.5 3057.5,598.667 3059,599.5C 3060.37,601.027 3060.87,602.527 3060.5,604C 3059.22,604.684 3058.05,604.517 3057,603.5C 3055.45,604.966 3053.61,605.966 3051.5,606.5C 3051.51,608.412 3051.18,610.412 3050.5,612.5C 3046.6,613.934 3043.1,613.267 3040,610.5C 3037.46,611.399 3034.96,611.066 3032.5,609.5C 3030.57,610.52 3028.57,610.687 3026.5,610C 3025.19,607.676 3023.19,606.343 3020.5,606C 3020.83,605 3021.17,604 3021.5,603C 3020.34,602.173 3019.17,601.34 3018,600.5C 3010.98,599.536 3004.14,597.869 2997.5,595.5C 2996.62,594.24 2995.62,593.074 2994.5,592C 2995.71,591.107 2995.71,590.274 2994.5,589.5C 2991.2,590.274 2987.87,590.441 2984.5,590C 2981.06,591.453 2977.9,593.287 2975,595.5C 2973.35,593.737 2971.51,593.404 2969.5,594.5C 2968.67,593.5 2967.83,592.5 2967,591.5C 2965.76,592.872 2964.26,593.872 2962.5,594.5C 2959.71,593.022 2956.88,591.689 2954,590.5C 2951.59,587.8 2952.09,585.967 2955.5,585C 2953.11,583.691 2953.11,582.691 2955.5,582C 2953.75,578.475 2951.58,577.975 2949,580.5C 2947.04,579.048 2945.04,578.715 2943,579.5C 2941.05,576.297 2938.55,575.797 2935.5,578C 2936.33,578.915 2937.33,579.581 2938.5,580C 2936.21,581.954 2934.05,581.787 2932,579.5C 2930.33,580.833 2928.67,580.833 2927,579.5C 2924.2,580.567 2921.53,581.9 2919,583.5C 2918.23,583.355 2917.56,583.022 2917,582.5C 2916.36,580.697 2915.2,579.364 2913.5,578.5C 2913.71,577.914 2914.04,577.414 2914.5,577C 2913.33,576.581 2912.33,575.915 2911.5,575C 2919.58,565.307 2917.58,558.64 2905.5,555C 2904.83,554 2904.17,553 2903.5,552C 2900.97,551.484 2898.8,550.317 2897,548.5C 2896.67,546.953 2897.17,545.62 2898.5,544.5C 2897.98,542.547 2896.98,540.88 2895.5,539.5C 2896.6,537.487 2896.26,535.654 2894.5,534C 2896.97,529.869 2898.97,525.535 2900.5,521C 2900.41,519.054 2900.08,517.054 2899.5,515C 2902.49,512.388 2902.16,510.388 2898.5,509C 2900.17,508 2901.83,507 2903.5,506C 2902.69,505.692 2902.03,505.192 2901.5,504.5C 2902.5,503.167 2903.5,501.833 2904.5,500.5C 2902.6,497.777 2900.94,494.943 2899.5,492C 2904.27,492.178 2908.93,491.178 2913.5,489C 2912.83,488.333 2912.17,487.667 2911.5,487C 2916.41,485.083 2917.57,481.916 2915,477.5C 2913.82,478.731 2912.65,478.731 2911.5,477.5C 2912.64,476.575 2912.64,475.741 2911.5,475C 2913.13,474.506 2914.8,474.34 2916.5,474.5C 2917.64,470.027 2918.64,465.527 2919.5,461C 2918.21,460.51 2916.87,460.343 2915.5,460.5C 2915.25,458.173 2915.91,456.173 2917.5,454.5C 2921.12,453.649 2924.78,452.983 2928.5,452.5C 2930.85,452.708 2932.52,453.875 2933.5,456C 2931.01,457.249 2931.18,458.416 2934,459.5C 2935.14,457.922 2935.64,456.256 2935.5,454.5C 2939.76,457.225 2940.76,456.559 2938.5,452.5C 2939,449.414 2940.33,448.58 2942.5,450C 2944.83,450.333 2947.17,450.667 2949.5,451C 2951.37,453.209 2953.54,455.042 2956,456.5C 2954.39,451.572 2950.89,448.738 2945.5,448C 2942.72,445.827 2942.89,445.327 2946,446.5C 2946.48,445.552 2946.65,444.552 2946.5,443.5C 2945.5,443.5 2944.5,443.5 2943.5,443.5C 2943.5,442.5 2943.5,441.5 2943.5,440.5C 2942.5,440.5 2941.5,440.5 2940.5,440.5C 2940.5,439.5 2940.5,438.5 2940.5,437.5C 2942.75,437.819 2944.75,437.319 2946.5,436C 2944.28,432.278 2941.28,429.444 2937.5,427.5C 2934.13,429.726 2933.63,428.726 2936,424.5C 2937.42,426.363 2939.25,426.863 2941.5,426C 2940.17,425 2940.17,424 2941.5,423C 2936.61,421.905 2936.61,421.238 2941.5,421C 2940.4,418.599 2940.23,416.099 2941,413.5C 2941.69,412.643 2942.52,411.977 2943.5,411.5C 2947.26,411.97 2951.26,412.47 2955.5,413C 2954.98,415.289 2955.64,417.456 2957.5,419.5C 2952.98,420.793 2952.65,422.46 2956.5,424.5C 2956.83,423.833 2957.17,423.167 2957.5,422.5C 2959.96,423.132 2961.63,424.632 2962.5,427C 2961.58,427.374 2960.75,427.874 2960,428.5C 2958.45,428.634 2956.79,428.3 2955,427.5C 2953.28,427.611 2953.11,428.111 2954.5,429C 2955.5,429.5 2956.5,430 2957.5,430.5C 2962.11,428.948 2963.45,430.448 2961.5,435C 2965.17,435.557 2968.51,436.89 2971.5,439C 2973.8,439.018 2976.13,438.851 2978.5,438.5 Z M 3135.5,413.5 C 3136.99,414.312 3137.66,415.645 3137.5,417.5C 3136.84,420.468 3136.51,423.468 3136.5,426.5C 3133.39,426.649 3130.39,426.149 3127.5,425C 3131.81,422.18 3134.48,418.346 3135.5,413.5 Z"/></g>
<g><path style="opacity:1" fill="#3b3c3b" d="M 3035.5,418.5 C 3037.36,419.594 3039.36,420.427 3041.5,421C 3042.84,422.826 3042.34,423.993 3040,424.5C 3038.08,424.062 3036.25,423.395 3034.5,422.5C 3035.25,421.264 3035.58,419.93 3035.5,418.5 Z"/></g>
<g><path style="opacity:1" fill="#3b3c3b" d="M 2937.5,431.5 C 2938.25,430.427 2939.25,430.26 2940.5,431C 2939.55,431.483 2938.55,431.649 2937.5,431.5 Z"/></g>
<g><path style="opacity:1" fill="#3b3c3b" d="M 3013.5,431.5 C 3014.49,433.015 3016.49,434.015 3019.5,434.5C 3018.97,435.192 3018.31,435.692 3017.5,436C 3021.73,440.299 3021.39,441.133 3016.5,438.5C 3015.52,438.977 3014.69,439.643 3014,440.5C 3013.25,439.874 3012.42,439.374 3011.5,439C 3011.5,437.667 3011.5,436.333 3011.5,435C 3012.17,434.667 3012.83,434.333 3013.5,434C 3012.4,433.23 3012.4,432.397 3013.5,431.5 Z"/></g>
<g><path style="opacity:1" fill="#3b3c3b" d="M 2978.5,438.5 C 2977.96,436.883 2977.63,435.216 2977.5,433.5C 2980.11,433.277 2981.78,434.444 2982.5,437C 2981.1,437.41 2979.77,437.91 2978.5,438.5 Z"/></g>
<g><path style="opacity:1" fill="#3b3c3b" d="M 3001.5,437.5 C 3001.9,436.475 3002.56,436.308 3003.5,437C 3002.91,437.464 3002.24,437.631 3001.5,437.5 Z"/></g>
<g><path style="opacity:1" fill="#3b3c3b" d="M 2929.5,442.5 C 2930.08,441.227 2930.74,441.227 2931.5,442.5C 2931.03,443.463 2930.36,443.463 2929.5,442.5 Z"/></g>
</svg>
