<?xml version="1.0" encoding="UTF-8"?>
<!DOCTYPE svg PUBLIC "-//W3C//DTD SVG 1.1//EN" "http://www.w3.org/Graphics/SVG/1.1/DTD/svg11.dtd">
<svg xmlns="http://www.w3.org/2000/svg" version="1.1" width="5632px" height="2048px" style="shape-rendering:geometricPrecision; text-rendering:geometricPrecision; image-rendering:optimizeQuality; fill-rule:evenodd; clip-rule:evenodd" xmlns:xlink="http://www.w3.org/1999/xlink">
<g><path style="opacity:1" fill="#779f98" d="M 3178.5,716.5 C 3176.5,716.5 3175.5,717.5 3175.5,719.5C 3173.42,718.752 3171.42,718.752 3169.5,719.5C 3167.5,718.5 3165.5,717.5 3163.5,716.5C 3162.76,714.892 3162.59,713.225 3163,711.5C 3158.89,713.977 3157.22,717.643 3158,722.5C 3161.46,727.917 3165.3,733.083 3169.5,738C 3168.94,740.188 3167.61,740.854 3165.5,740C 3166.96,739.577 3167.46,738.744 3167,737.5C 3165.89,735.963 3164.39,735.297 3162.5,735.5C 3162.57,738.085 3163.07,740.418 3164,742.5C 3162.06,743.863 3159.89,744.697 3157.5,745C 3161.45,746.484 3165.45,747.65 3169.5,748.5C 3169.5,749.5 3169.5,750.5 3169.5,751.5C 3171.45,751.227 3172.95,751.893 3174,753.5C 3172.14,748.443 3168.31,745.61 3162.5,745C 3164.39,743.596 3166.39,742.43 3168.5,741.5C 3171.73,746.449 3176.4,748.782 3182.5,748.5C 3181.75,753.685 3183.75,757.018 3188.5,758.5C 3189.58,759.365 3189.75,760.365 3189,761.5C 3188.26,762.641 3187.43,762.641 3186.5,761.5C 3184.14,758.978 3181.98,756.312 3180,753.5C 3179.25,754.126 3178.42,754.626 3177.5,755C 3179.12,755.615 3180.45,756.615 3181.5,758C 3180.97,761.163 3180.64,764.33 3180.5,767.5C 3179.01,765.844 3177.34,764.344 3175.5,763C 3173.89,762.28 3172.39,762.446 3171,763.5C 3170.61,762.572 3169.95,761.905 3169,761.5C 3167.5,762 3166,762.5 3164.5,763C 3166.21,764.435 3167.38,766.269 3168,768.5C 3169.76,768.133 3171.26,768.966 3172.5,771C 3170.15,771.346 3168.32,772.513 3167,774.5C 3165.38,773.464 3165.22,772.297 3166.5,771C 3159.61,767.536 3158.61,769.203 3163.5,776C 3163.17,776.333 3162.83,776.667 3162.5,777C 3163.42,777.374 3164.25,777.874 3165,778.5C 3165.97,780.777 3166.14,782.943 3165.5,785C 3165.9,786.473 3166.57,787.806 3167.5,789C 3166.5,789.667 3165.5,789.667 3164.5,789C 3160.23,781.387 3157.39,781.887 3156,790.5C 3155.25,786.462 3153.42,782.962 3150.5,780C 3149.5,779.333 3148.5,779.333 3147.5,780C 3148.99,784.458 3147.66,785.124 3143.5,782C 3143.83,781.667 3144.17,781.333 3144.5,781C 3143.26,779.846 3142.26,778.512 3141.5,777C 3143.04,775.401 3143.54,773.567 3143,771.5C 3140.8,767.965 3137.97,765.132 3134.5,763C 3136.83,762 3138.5,760.333 3139.5,758C 3142.61,757.455 3145.45,756.288 3148,754.5C 3152.85,756.758 3157.68,759.091 3162.5,761.5C 3163.7,761.154 3163.7,760.654 3162.5,760C 3164.26,759.798 3165.92,759.298 3167.5,758.5C 3163.25,757.374 3159.25,755.707 3155.5,753.5C 3150.17,753.5 3144.83,753.5 3139.5,753.5C 3138.25,754.04 3137.09,754.707 3136,755.5C 3135.26,751.326 3133.1,748.326 3129.5,746.5C 3129.5,746.167 3129.5,745.833 3129.5,745.5C 3130.57,743.16 3132.24,742.827 3134.5,744.5C 3135.39,743.675 3135.72,742.675 3135.5,741.5C 3133.74,741.643 3132.07,741.309 3130.5,740.5C 3130.17,741.167 3129.83,741.833 3129.5,742.5C 3127.48,739.644 3124.98,737.311 3122,735.5C 3119.77,732.201 3120.1,729.201 3123,726.5C 3123.33,726.833 3123.67,727.167 3124,727.5C 3124.68,726.216 3124.52,725.049 3123.5,724C 3127.49,722.552 3129.99,719.719 3131,715.5C 3132,714.833 3133,714.167 3134,713.5C 3133.59,711.775 3133.76,710.108 3134.5,708.5C 3139.21,708.102 3143.21,706.268 3146.5,703C 3148.56,702.689 3150.56,702.189 3152.5,701.5C 3154.45,702.256 3156.28,702.589 3158,702.5C 3158.11,699.553 3159.61,698.22 3162.5,698.5C 3162.5,699.5 3162.5,700.5 3162.5,701.5C 3166.13,702.608 3169.13,704.774 3171.5,708C 3172.83,708.333 3174.17,708.667 3175.5,709C 3175.17,709.333 3174.83,709.667 3174.5,710C 3176.67,711.678 3178,713.845 3178.5,716.5 Z"/></g>
<g><path style="opacity:1" fill="#779f98" d="M 3178.5,716.5 C 3183.01,715.527 3185.17,717.194 3185,721.5C 3183.23,719.212 3181.06,717.546 3178.5,716.5 Z"/></g>
<g><path style="opacity:1" fill="#779f98" d="M 3175.5,719.5 C 3179.25,719.627 3180.58,721.294 3179.5,724.5C 3177.45,723.389 3176.11,721.723 3175.5,719.5 Z"/></g>
<g><path style="opacity:1" fill="#779f98" d="M 3169.5,720.5 C 3171.46,722.488 3173.8,723.988 3176.5,725C 3172.8,725.489 3170.46,723.989 3169.5,720.5 Z"/></g>
<g><path style="opacity:1" fill="#6c8e5f" d="M 3112.5,725.5 C 3116.82,725.959 3117.49,727.792 3114.5,731C 3115.17,732.333 3115.83,733.667 3116.5,735C 3117.74,735.311 3118.74,734.811 3119.5,733.5C 3120.86,738.462 3119.19,739.629 3114.5,737C 3111.97,734.531 3110.47,731.698 3110,728.5C 3111.04,727.627 3111.88,726.627 3112.5,725.5 Z"/></g>
<g><path style="opacity:1" fill="#779f98" d="M 3174.5,738.5 C 3176.08,739.002 3176.58,740.002 3176,741.5C 3174.96,740.756 3174.46,739.756 3174.5,738.5 Z"/></g>
<g><path style="opacity:1" fill="#779f98" d="M 3187.5,742.5 C 3189.91,743.406 3190.75,745.072 3190,747.5C 3188.12,746.347 3187.28,744.681 3187.5,742.5 Z"/></g>
<g><path style="opacity:1" fill="#6c8e5f" d="M 3129.5,745.5 C 3129.5,745.833 3129.5,746.167 3129.5,746.5C 3129.53,750.211 3128.53,750.878 3126.5,748.5C 3126.52,746.484 3127.52,745.484 3129.5,745.5 Z"/></g>
<g><path style="opacity:1" fill="#6c8e5f" d="M 3127.5,751.5 C 3128.77,753.81 3129.77,756.143 3130.5,758.5C 3127.6,759.598 3124.93,759.098 3122.5,757C 3124.59,755.412 3126.26,753.578 3127.5,751.5 Z"/></g>
<g><path style="opacity:1" fill="#779f98" d="M 3191.5,760.5 C 3194.99,761.152 3196.15,763.152 3195,766.5C 3193.5,765 3192,763.5 3190.5,762C 3191.06,761.617 3191.39,761.117 3191.5,760.5 Z"/></g>
<g><path style="opacity:1" fill="#6c8e5f" d="M 3127.5,762.5 C 3129.94,762.886 3131.94,764.053 3133.5,766C 3130.04,767.111 3128.04,765.944 3127.5,762.5 Z"/></g>
<g><path style="opacity:1" fill="#779f98" d="M 3183.5,765.5 C 3184.98,765.238 3186.31,765.571 3187.5,766.5C 3184.79,772.085 3183.46,771.752 3183.5,765.5 Z"/></g>
<g><path style="opacity:1" fill="#779f98" d="M 3196.5,766.5 C 3199.18,766.525 3200.51,767.858 3200.5,770.5C 3197.86,770.512 3196.52,769.179 3196.5,766.5 Z"/></g>
<g><path style="opacity:1" fill="#779f98" d="M 3184.5,771.5 C 3185.98,771.238 3187.31,771.571 3188.5,772.5C 3186.54,775.194 3185.2,774.861 3184.5,771.5 Z"/></g>
<g><path style="opacity:1" fill="#779f98" d="M 3204.5,774.5 C 3205.15,775.274 3205.48,776.274 3205.5,777.5C 3204.94,782.127 3203.61,782.46 3201.5,778.5C 3202.52,777.148 3203.52,775.815 3204.5,774.5 Z"/></g>
<g><path style="opacity:1" fill="#779f98" d="M 3199.5,775.5 C 3201.02,778.495 3200.02,779.661 3196.5,779C 3197.71,777.961 3198.71,776.794 3199.5,775.5 Z"/></g>
<g><path style="opacity:1" fill="#6c8e5f" d="M 3225.5,778.5 C 3227.98,778.73 3228.48,779.397 3227,780.5C 3225.97,780.164 3225.47,779.497 3225.5,778.5 Z"/></g>
<g><path style="opacity:1" fill="#6c8e5f" d="M 3228.5,781.5 C 3233.7,781.565 3233.7,782.232 3228.5,783.5C 3227.54,783.03 3227.54,782.363 3228.5,781.5 Z"/></g>
<g><path style="opacity:1" fill="#779f98" d="M 3199.5,782.5 C 3201.38,782.712 3202.72,783.712 3203.5,785.5C 3201.22,786.262 3199.89,785.262 3199.5,782.5 Z"/></g>
<g><path style="opacity:1" fill="#779f98" d="M 3185.5,783.5 C 3186.83,783.5 3188.17,783.5 3189.5,783.5C 3189.5,784.5 3189.5,785.5 3189.5,786.5C 3187.71,786.785 3186.05,786.452 3184.5,785.5C 3184.86,784.817 3185.2,784.15 3185.5,783.5 Z"/></g>
<g><path style="opacity:1" fill="#6c8e5f" d="M 3225.5,783.5 C 3226.53,783.897 3226.69,784.563 3226,785.5C 3225.54,784.906 3225.37,784.239 3225.5,783.5 Z"/></g>
<g><path style="opacity:1" fill="#6c8e5f" d="M 3235.5,783.5 C 3236.55,783.351 3237.55,783.517 3238.5,784C 3236.73,785.487 3234.73,785.82 3232.5,785C 3233.74,784.768 3234.74,784.268 3235.5,783.5 Z"/></g>
<g><path style="opacity:1" fill="#779f98" d="M 3195.5,784.5 C 3199.28,784.469 3199.44,785.136 3196,786.5C 3194.32,786.317 3194.15,785.65 3195.5,784.5 Z"/></g>
<g><path style="opacity:1" fill="#6c8e5f" d="M 3214.5,785.5 C 3216.29,785.215 3217.95,785.548 3219.5,786.5C 3217.42,788.98 3215.75,788.647 3214.5,785.5 Z"/></g>
<g><path style="opacity:1" fill="#6c8e5f" d="M 3244.5,789.5 C 3245.38,789.369 3246.04,789.702 3246.5,790.5C 3244.88,794.082 3242.55,797.082 3239.5,799.5C 3238.36,797.579 3238.19,795.579 3239,793.5C 3240.81,792.023 3242.65,790.69 3244.5,789.5 Z"/></g>
<g><path style="opacity:1" fill="#779f98" d="M 3162.5,790.5 C 3166.01,791.116 3166.84,792.783 3165,795.5C 3163.11,794.383 3162.27,792.716 3162.5,790.5 Z"/></g>
<g><path style="opacity:1" fill="#6c8e5f" d="M 3229.5,801.5 C 3230.23,803.323 3230.56,805.157 3230.5,807C 3230,807.5 3229.5,808 3229,808.5C 3228.44,806.115 3228.61,803.782 3229.5,801.5 Z"/></g>
<g><path style="opacity:1" fill="#779f98" d="M 3345.5,802.5 C 3346.77,803.077 3346.77,803.743 3345.5,804.5C 3341.6,806.28 3338.27,808.78 3335.5,812C 3336.1,813.605 3337.1,814.938 3338.5,816C 3336.1,816.186 3333.77,816.686 3331.5,817.5C 3328.11,820.286 3324.27,822.286 3320,823.5C 3315.98,823.154 3312.64,821.488 3310,818.5C 3309.21,816.835 3308.88,815.169 3309,813.5C 3311.91,813.04 3314.91,813.04 3318,813.5C 3319.12,812.051 3319.78,810.384 3320,808.5C 3329.47,810.507 3337.97,808.507 3345.5,802.5 Z"/></g>
<g><path style="opacity:1" fill="#779f98" d="M 3175.5,803.5 C 3177.02,804.174 3178.36,805.174 3179.5,806.5C 3180.5,805.833 3181.5,805.167 3182.5,804.5C 3182.02,806.917 3183.18,808.584 3186,809.5C 3192.91,808.813 3199.74,808.813 3206.5,809.5C 3207.17,810.833 3207.83,812.167 3208.5,813.5C 3210.93,812.27 3213.43,811.27 3216,810.5C 3216.59,811.899 3216.43,813.232 3215.5,814.5C 3207.84,815.762 3200.17,816.595 3192.5,817C 3191.42,814.957 3189.75,813.624 3187.5,813C 3182.79,812.625 3178.12,811.958 3173.5,811C 3173.04,810.586 3172.71,810.086 3172.5,809.5C 3172.97,805.797 3173.97,803.797 3175.5,803.5 Z"/></g>
</svg>
