<?xml version="1.0" encoding="UTF-8"?>
<!DOCTYPE svg PUBLIC "-//W3C//DTD SVG 1.1//EN" "http://www.w3.org/Graphics/SVG/1.1/DTD/svg11.dtd">
<svg xmlns="http://www.w3.org/2000/svg" version="1.1" width="5632px" height="2048px" style="shape-rendering:geometricPrecision; text-rendering:geometricPrecision; image-rendering:optimizeQuality; fill-rule:evenodd; clip-rule:evenodd" xmlns:xlink="http://www.w3.org/1999/xlink">
<g><path style="opacity:1" fill="#65567b" d="M 3976.5,781.5 C 3977.81,782.476 3979.15,783.476 3980.5,784.5C 3982.24,782.789 3984.24,781.956 3986.5,782C 3987.88,783.324 3988.21,784.657 3987.5,786C 3991.36,789.519 3995.53,792.686 4000,795.5C 4000.33,795.167 4000.67,794.833 4001,794.5C 4003.38,798.088 4005.88,801.588 4008.5,805C 4010.76,805.642 4012.93,806.475 4015,807.5C 4015.49,808.549 4015.33,809.549 4014.5,810.5C 4018.2,810.926 4021.87,811.26 4025.5,811.5C 4025.62,816.19 4026.95,820.524 4029.5,824.5C 4032.77,826.05 4035.93,827.717 4039,829.5C 4039.27,832.28 4038.1,834.446 4035.5,836C 4036.77,838.193 4037.11,840.36 4036.5,842.5C 4037.53,844.361 4039.03,845.695 4041,846.5C 4041.5,848.035 4041.33,849.535 4040.5,851C 4040.82,852.653 4041.82,853.653 4043.5,854C 4042.3,857.674 4041.47,861.174 4041,864.5C 4038.55,862.938 4036.55,860.938 4035,858.5C 4033.27,858.946 4031.77,859.779 4030.5,861C 4034.6,866.918 4036.1,873.418 4035,880.5C 4038.4,881.582 4041.9,882.416 4045.5,883C 4048.99,886.684 4053.33,888.85 4058.5,889.5C 4059.69,890.853 4061.02,892.02 4062.5,893C 4062.04,893.414 4061.71,893.914 4061.5,894.5C 4065.21,896.35 4068.54,898.684 4071.5,901.5C 4068.77,905.427 4065.6,909.094 4062,912.5C 4061.94,916.407 4060.77,919.907 4058.5,923C 4059.93,927.051 4062.6,928.384 4066.5,927C 4069.01,928.757 4071.68,930.257 4074.5,931.5C 4073.25,933.001 4072.25,934.668 4071.5,936.5C 4073.8,944.018 4076.46,951.352 4079.5,958.5C 4079.47,960.029 4078.8,961.196 4077.5,962C 4080.17,965.435 4080.5,968.935 4078.5,972.5C 4076.02,974.143 4073.69,975.976 4071.5,978C 4072.57,979.25 4072.57,980.584 4071.5,982C 4072.66,985.333 4075,986.833 4078.5,986.5C 4078.5,987.5 4078.5,988.5 4078.5,989.5C 4079.87,989.343 4081.21,989.51 4082.5,990C 4084.67,992.833 4087.17,995.333 4090,997.5C 4091.72,994.27 4093.72,993.936 4096,996.5C 4095.83,999.5 4095.67,1002.5 4095.5,1005.5C 4096.25,1007.75 4097.59,1009.59 4099.5,1011C 4102.47,1010.34 4105.14,1008.84 4107.5,1006.5C 4110.71,1008.36 4112.71,1011.03 4113.5,1014.5C 4115.35,1014.22 4116.68,1014.89 4117.5,1016.5C 4117.75,1018.74 4117.75,1021.08 4117.5,1023.5C 4119.85,1024.01 4121.85,1025.01 4123.5,1026.5C 4121.64,1029.19 4119.31,1031.36 4116.5,1033C 4117.33,1033.91 4118.33,1034.58 4119.5,1035C 4121.66,1035.08 4123.66,1035.24 4125.5,1035.5C 4127.5,1034.5 4129.5,1033.5 4131.5,1032.5C 4135.02,1033.83 4135.36,1035.66 4132.5,1038C 4135.18,1038.78 4137.52,1040.11 4139.5,1042C 4136.84,1044.79 4136.18,1047.96 4137.5,1051.5C 4137.56,1053.48 4136.9,1055.15 4135.5,1056.5C 4136.04,1057.75 4136.71,1058.91 4137.5,1060C 4134.34,1061.47 4131.01,1062.47 4127.5,1063C 4126.13,1066.38 4123.96,1069.21 4121,1071.5C 4120.32,1072.78 4120.48,1073.95 4121.5,1075C 4119.6,1075.9 4117.94,1077.07 4116.5,1078.5C 4116.42,1081.46 4118.08,1083.46 4121.5,1084.5C 4117.97,1088.14 4117.81,1091.81 4121,1095.5C 4123.67,1094.17 4125.67,1092.17 4127,1089.5C 4127.69,1090.03 4128.19,1090.69 4128.5,1091.5C 4123.4,1099.1 4116.9,1105.1 4109,1109.5C 4105.87,1115.33 4101.04,1119.17 4094.5,1121C 4093,1122.5 4091.5,1124 4090,1125.5C 4089.67,1127.05 4090.17,1128.38 4091.5,1129.5C 4089.23,1133.58 4085.73,1135.92 4081,1136.5C 4078.85,1135.75 4076.68,1135.58 4074.5,1136C 4073.68,1139.47 4072.18,1142.64 4070,1145.5C 4066.23,1143.18 4062.56,1143.51 4059,1146.5C 4054.99,1153.07 4054.49,1159.9 4057.5,1167C 4056.13,1171.14 4056.46,1175.14 4058.5,1179C 4058.51,1182.15 4057.84,1182.32 4056.5,1179.5C 4056.17,1180 4055.83,1180.5 4055.5,1181C 4057.41,1182.62 4058.74,1184.62 4059.5,1187C 4058.91,1190.15 4058.41,1193.32 4058,1196.5C 4054.68,1202.14 4052.18,1208.14 4050.5,1214.5C 4050.62,1217.08 4051.95,1218.58 4054.5,1219C 4053.5,1219.33 4052.5,1219.67 4051.5,1220C 4051.54,1224.76 4051.7,1229.93 4052,1235.5C 4049.05,1235.42 4046.05,1235.76 4043,1236.5C 4042.67,1238.17 4042.33,1239.83 4042,1241.5C 4038.91,1244.15 4037.74,1247.31 4038.5,1251C 4040.17,1251.33 4041.83,1251.67 4043.5,1252C 4041.19,1252.5 4038.86,1252.66 4036.5,1252.5C 4036.73,1256.06 4035.89,1256.39 4034,1253.5C 4027.32,1255.17 4024.32,1259.5 4025,1266.5C 4021.43,1269.8 4017.27,1271.3 4012.5,1271C 4007.45,1267.62 4003.45,1263.29 4000.5,1258C 4001.17,1257.67 4001.83,1257.33 4002.5,1257C 3997.98,1254.13 3996.15,1249.96 3997,1244.5C 3997.22,1245.94 3997.72,1247.27 3998.5,1248.5C 3998.83,1248.33 3999.17,1248.17 3999.5,1248C 3994.23,1235.96 3989.07,1223.79 3984,1211.5C 3979.51,1207.86 3976.51,1203.19 3975,1197.5C 3973.06,1190.19 3971.23,1182.86 3969.5,1175.5C 3972.25,1172.95 3971.58,1171.95 3967.5,1172.5C 3967.15,1170.46 3967.15,1168.63 3967.5,1167C 3965.73,1165.3 3964.06,1163.47 3962.5,1161.5C 3959.28,1154.31 3955.78,1147.31 3952,1140.5C 3949.92,1125.98 3946.75,1111.48 3942.5,1097C 3943.38,1095.9 3944.38,1095.4 3945.5,1095.5C 3944.17,1094.5 3944.17,1093.5 3945.5,1092.5C 3944.73,1091.29 3943.89,1091.29 3943,1092.5C 3940.73,1089.65 3941.23,1087.81 3944.5,1087C 3943.38,1086.75 3942.38,1086.25 3941.5,1085.5C 3940.77,1083.02 3940.1,1080.52 3939.5,1078C 3940.74,1072.69 3942.4,1067.53 3944.5,1062.5C 3943.19,1060.02 3941.52,1057.86 3939.5,1056C 3939.83,1055.67 3940.17,1055.33 3940.5,1055C 3939.43,1054.26 3938.76,1053.26 3938.5,1052C 3939.79,1052.03 3940.79,1051.03 3941.5,1049C 3944.03,1048.38 3946.37,1047.38 3948.5,1046C 3945.17,1046 3941.83,1046 3938.5,1046C 3938.17,1045.67 3937.83,1045.33 3937.5,1045C 3938.5,1044.17 3939.5,1043.33 3940.5,1042.5C 3940.06,1041.49 3939.4,1041.49 3938.5,1042.5C 3937.57,1041.31 3937.24,1039.98 3937.5,1038.5C 3939.65,1038.63 3941.65,1038.13 3943.5,1037C 3939.73,1036.92 3936.06,1036.92 3932.5,1037C 3935.26,1039.7 3934.6,1041.37 3930.5,1042C 3931.81,1043.39 3931.48,1044.39 3929.5,1045C 3931.89,1045.05 3933.22,1046.22 3933.5,1048.5C 3932.35,1050.73 3931.35,1053.06 3930.5,1055.5C 3926.58,1056.86 3922.91,1058.69 3919.5,1061C 3916.28,1062.53 3912.95,1063.19 3909.5,1063C 3907,1061.92 3904.67,1060.59 3902.5,1059C 3895.5,1051.33 3888.5,1043.67 3881.5,1036C 3882.05,1035.08 3882.71,1034.24 3883.5,1033.5C 3884.63,1034.75 3885.96,1035.75 3887.5,1036.5C 3892.37,1035.4 3897.04,1033.73 3901.5,1031.5C 3902.56,1028.54 3904.22,1026.04 3906.5,1024C 3906.17,1023.5 3905.83,1023 3905.5,1022.5C 3894.58,1031.11 3884.42,1030.11 3875,1019.5C 3872.5,1015.65 3873.34,1012.82 3877.5,1011C 3874.73,1011.05 3872.39,1012.22 3870.5,1014.5C 3870.09,1013.74 3869.92,1012.74 3870,1011.5C 3867.91,1012.5 3866.24,1011.83 3865,1009.5C 3864.27,1011.16 3863.11,1011.66 3861.5,1011C 3860.01,1008.51 3858.18,1006.35 3856,1004.5C 3855.79,1001.77 3854.96,999.266 3853.5,997C 3854.17,996.333 3854.83,995.667 3855.5,995C 3852.65,993.711 3849.65,993.211 3846.5,993.5C 3848.34,990.14 3850.84,987.14 3854,984.5C 3855.84,980.828 3857.67,977.162 3859.5,973.5C 3857.88,969.926 3856.55,966.26 3855.5,962.5C 3855.26,956.452 3855.76,950.452 3857,944.5C 3864.03,940.506 3870.86,936.006 3877.5,931C 3880.23,930.846 3882.9,931.346 3885.5,932.5C 3888.42,929.957 3891.09,927.124 3893.5,924C 3892.55,923.282 3892.38,922.449 3893,921.5C 3894.69,919.983 3896.19,918.316 3897.5,916.5C 3896.17,914.833 3894.83,913.167 3893.5,911.5C 3895.82,907.666 3898.15,903.333 3900.5,898.5C 3900.22,894.352 3901.72,890.685 3905,887.5C 3905.66,885.187 3906.16,882.854 3906.5,880.5C 3907.98,880.762 3909.31,880.429 3910.5,879.5C 3914.03,873.096 3917.03,866.429 3919.5,859.5C 3918.41,857.399 3917.41,855.232 3916.5,853C 3917.65,851.117 3919.32,850.284 3921.5,850.5C 3921.53,847.344 3923.2,845.678 3926.5,845.5C 3928.71,842.244 3931.04,839.078 3933.5,836C 3937.05,835.559 3940.05,834.059 3942.5,831.5C 3943.82,833.27 3945.32,833.603 3947,832.5C 3949.48,837.492 3951.82,837.158 3954,831.5C 3954.46,828.428 3954.46,825.428 3954,822.5C 3955.83,820.926 3957.99,820.093 3960.5,820C 3964.3,817.758 3964.47,815.258 3961,812.5C 3961.05,810.687 3960.88,809.021 3960.5,807.5C 3957.46,806.431 3954.46,805.265 3951.5,804C 3950.07,801.253 3947.73,799.753 3944.5,799.5C 3944.02,798.522 3943.36,797.689 3942.5,797C 3946.21,793.491 3949.88,789.991 3953.5,786.5C 3957.16,786.162 3957.83,784.995 3955.5,783C 3957.5,782.333 3959.5,782.333 3961.5,783C 3963.13,784.308 3964.97,785.142 3967,785.5C 3970.17,783.996 3973.33,782.662 3976.5,781.5 Z"/></g>
<g><path style="opacity:1" fill="#560724" d="M 4052.5,1242.5 C 4055.17,1242.83 4057.17,1244.17 4058.5,1246.5C 4054.53,1248.18 4052.53,1246.84 4052.5,1242.5 Z"/></g>
<g><path style="opacity:1" fill="#560724" d="M 4050.5,1273.5 C 4052.25,1265.46 4054.42,1257.46 4057,1249.5C 4058.44,1248.74 4059.94,1248.07 4061.5,1247.5C 4062.72,1248.65 4064.05,1249.65 4065.5,1250.5C 4067.5,1254.51 4070,1258.18 4073,1261.5C 4073.49,1262.55 4073.33,1263.55 4072.5,1264.5C 4073.27,1265.71 4074.11,1265.71 4075,1264.5C 4076.09,1267.04 4076.76,1269.71 4077,1272.5C 4088.86,1289.16 4085.03,1300.32 4065.5,1306C 4062.79,1306.33 4060.13,1305.99 4057.5,1305C 4054.14,1299.62 4052.48,1293.96 4052.5,1288C 4051.65,1283.19 4050.98,1278.36 4050.5,1273.5 Z"/></g>
<g><path style="opacity:1" fill="#560724" d="M 4049.5,1254.5 C 4050.68,1254.28 4051.68,1254.61 4052.5,1255.5C 4050.95,1256.8 4049.95,1256.46 4049.5,1254.5 Z"/></g>
<g><path style="opacity:1" fill="#560724" d="M 4050.5,1273.5 C 4049.4,1272.4 4049.24,1271.07 4050,1269.5C 4050.49,1270.79 4050.66,1272.13 4050.5,1273.5 Z"/></g>
<g><path style="opacity:1" fill="#65567b" d="M 3936.5,1286.5 C 3937.21,1285.6 3938.21,1285.26 3939.5,1285.5C 3939.65,1286.55 3939.48,1287.55 3939,1288.5C 3938.29,1287.62 3937.46,1286.95 3936.5,1286.5 Z"/></g>
<g><path style="opacity:1" fill="#65567b" d="M 3943.5,1287.5 C 3944.04,1287.56 3944.38,1287.89 3944.5,1288.5C 3942.49,1291.03 3941.16,1293.86 3940.5,1297C 3941.56,1298.19 3942.9,1298.69 3944.5,1298.5C 3944.42,1299.93 3944.75,1301.26 3945.5,1302.5C 3944.97,1303.19 3944.31,1303.69 3943.5,1304C 3949.09,1304.62 3949.59,1306.12 3945,1308.5C 3941.89,1304.68 3939.72,1300.18 3938.5,1295C 3938.68,1291.39 3940.35,1288.89 3943.5,1287.5 Z"/></g>
<g><path style="opacity:1" fill="#65567b" d="M 3938.5,1304.5 C 3939.92,1307.51 3939.75,1310.51 3938,1313.5C 3936.69,1311.71 3936.19,1309.87 3936.5,1308C 3937.82,1307.18 3938.49,1306.02 3938.5,1304.5 Z"/></g>
<g><path style="opacity:1" fill="#65567b" d="M 3947.5,1311.5 C 3951.16,1311.35 3952.16,1312.85 3950.5,1316C 3948.88,1315.63 3947.22,1314.96 3945.5,1314C 3946.38,1313.29 3947.05,1312.46 3947.5,1311.5 Z"/></g>
<g><path style="opacity:1" fill="#65567b" d="M 3938.5,1314.5 C 3940.31,1314.49 3941.98,1314.99 3943.5,1316C 3938.78,1322.43 3937.11,1321.93 3938.5,1314.5 Z"/></g>
<g><path style="opacity:1" fill="#65567b" d="M 3937.5,1322.5 C 3937.9,1321.47 3938.56,1321.31 3939.5,1322C 3938.91,1322.46 3938.24,1322.63 3937.5,1322.5 Z"/></g>
<g><path style="opacity:1" fill="#65567b" d="M 3946.5,1325.5 C 3946.9,1324.47 3947.56,1324.31 3948.5,1325C 3949.83,1326.33 3951.17,1327.67 3952.5,1329C 3951.35,1330.65 3950.02,1332.15 3948.5,1333.5C 3947.91,1333.29 3947.41,1332.96 3947,1332.5C 3946.73,1329.87 3946.56,1327.54 3946.5,1325.5 Z"/></g>
<g><path style="opacity:1" fill="#65567b" d="M 3936.5,1332.5 C 3938.38,1332.39 3938.71,1332.89 3937.5,1334C 3939.85,1337.25 3940.51,1340.75 3939.5,1344.5C 3938.18,1344.67 3937.01,1344.34 3936,1343.5C 3935.42,1339.8 3935.59,1336.13 3936.5,1332.5 Z"/></g>
<g><path style="opacity:1" fill="#65567b" d="M 3947.5,1334.5 C 3949.56,1335.93 3949.39,1337.6 3947,1339.5C 3946.36,1337.73 3946.53,1336.07 3947.5,1334.5 Z"/></g>
<g><path style="opacity:1" fill="#65567b" d="M 3946.5,1341.5 C 3948.03,1342.1 3949.03,1343.27 3949.5,1345C 3950.95,1344.74 3952.28,1344.9 3953.5,1345.5C 3950.4,1348.39 3947.73,1348.05 3945.5,1344.5C 3946.13,1343.58 3946.46,1342.58 3946.5,1341.5 Z"/></g>
<g><path style="opacity:1" fill="#65567b" d="M 3937.5,1347.5 C 3940.17,1347.07 3941.33,1348.07 3941,1350.5C 3938.34,1351.69 3937.18,1350.69 3937.5,1347.5 Z"/></g>
<g><path style="opacity:1" fill="#65567b" d="M 3946.5,1350.5 C 3951.51,1351.62 3951.68,1353.62 3947,1356.5C 3946.5,1354.53 3946.34,1352.53 3946.5,1350.5 Z"/></g>
<g><path style="opacity:1" fill="#65567b" d="M 3938.5,1352.5 C 3942.21,1354.03 3942.37,1356.03 3939,1358.5C 3938.63,1357.58 3938.13,1356.75 3937.5,1356C 3937.62,1354.86 3937.95,1353.69 3938.5,1352.5 Z"/></g>
<g><path style="opacity:1" fill="#65567b" d="M 3939.5,1360.5 C 3941.53,1360.34 3943.53,1360.5 3945.5,1361C 3946.73,1362.59 3946.39,1363.92 3944.5,1365C 3942.98,1366.01 3941.31,1366.51 3939.5,1366.5C 3938.72,1364.39 3938.72,1362.39 3939.5,1360.5 Z"/></g>
<g><path style="opacity:1" fill="#65567b" d="M 3948.5,1367.5 C 3949.24,1367.37 3949.91,1367.54 3950.5,1368C 3950.01,1370.49 3948.68,1372.32 3946.5,1373.5C 3945.71,1372.76 3945.05,1371.92 3944.5,1371C 3945.73,1369.6 3947.06,1368.43 3948.5,1367.5 Z"/></g>
<g><path style="opacity:1" fill="#65567b" d="M 3944.5,1386.5 C 3945.96,1388.24 3947.12,1390.24 3948,1392.5C 3948.67,1393.83 3948.67,1395.17 3948,1396.5C 3945.69,1398.04 3943.19,1398.54 3940.5,1398C 3938.6,1394.31 3939.6,1391.81 3943.5,1390.5C 3942.21,1388.78 3942.54,1387.45 3944.5,1386.5 Z"/></g>
<g><path style="opacity:1" fill="#65567b" d="M 3940.5,1412.5 C 3941.25,1411.43 3942.25,1411.26 3943.5,1412C 3942.65,1413.73 3941.65,1413.9 3940.5,1412.5 Z"/></g>
<g><path style="opacity:1" fill="#65567b" d="M 3965.5,1525.5 C 3969.01,1524.99 3972.17,1525.66 3975,1527.5C 3975.9,1530.03 3975.4,1532.19 3973.5,1534C 3964.78,1536.13 3962.11,1533.29 3965.5,1525.5 Z"/></g>
</svg>
