<?xml version="1.0" encoding="UTF-8"?>
<!DOCTYPE svg PUBLIC "-//W3C//DTD SVG 1.1//EN" "http://www.w3.org/Graphics/SVG/1.1/DTD/svg11.dtd">
<svg xmlns="http://www.w3.org/2000/svg" version="1.1" width="5632px" height="2048px" style="shape-rendering:geometricPrecision; text-rendering:geometricPrecision; image-rendering:optimizeQuality; fill-rule:evenodd; clip-rule:evenodd" xmlns:xlink="http://www.w3.org/1999/xlink">
<g><path style="opacity:1" fill="#9e344c" d="M 4291.5,1307.5 C 4292.5,1306.29 4293.5,1306.45 4294.5,1308C 4293.42,1308.47 4292.42,1308.3 4291.5,1307.5 Z"/></g>
<g><path style="opacity:1" fill="#9e344c" d="M 4379.5,1368.5 C 4378.4,1367.6 4378.4,1366.77 4379.5,1366C 4382.41,1365.15 4384.74,1365.98 4386.5,1368.5C 4386.97,1373.97 4389.97,1376.63 4395.5,1376.5C 4399.38,1379.59 4401.71,1383.59 4402.5,1388.5C 4405.61,1390.18 4408.95,1390.85 4412.5,1390.5C 4413.61,1391.89 4414.61,1393.39 4415.5,1395C 4412.53,1395.3 4411.03,1396.8 4411,1399.5C 4413.92,1397.62 4416.75,1395.62 4419.5,1393.5C 4423.51,1395 4425.84,1397.84 4426.5,1402C 4423.61,1402.89 4420.94,1404.22 4418.5,1406C 4420.11,1406.72 4421.61,1406.55 4423,1405.5C 4423.92,1406.05 4424.76,1406.71 4425.5,1407.5C 4423.66,1407.76 4421.66,1407.92 4419.5,1408C 4423.22,1409.37 4423.22,1411.03 4419.5,1413C 4420.54,1414.98 4421.88,1415.48 4423.5,1414.5C 4425.55,1415.77 4427.55,1416.1 4429.5,1415.5C 4431.44,1416.19 4433.44,1416.69 4435.5,1417C 4436.27,1419.61 4436.94,1422.27 4437.5,1425C 4437.36,1425.77 4437.02,1426.44 4436.5,1427C 4438.63,1427.54 4440.63,1428.38 4442.5,1429.5C 4442.1,1431.37 4442.1,1433.37 4442.5,1435.5C 4446.42,1434.66 4450.25,1434.33 4454,1434.5C 4454.99,1437.63 4456.16,1440.63 4457.5,1443.5C 4460.24,1443.08 4461.58,1444.24 4461.5,1447C 4459.77,1449.62 4458.44,1452.46 4457.5,1455.5C 4458.17,1456.5 4458.83,1457.5 4459.5,1458.5C 4458.63,1460.43 4457.97,1462.43 4457.5,1464.5C 4458.46,1471.78 4458.79,1478.95 4458.5,1486C 4457.85,1487.61 4457.02,1489.11 4456,1490.5C 4453.45,1488.4 4451.11,1486.07 4449,1483.5C 4447.92,1485.62 4447.25,1487.62 4447,1489.5C 4444.57,1488.37 4442.41,1486.87 4440.5,1485C 4439.36,1484.25 4438.36,1484.42 4437.5,1485.5C 4438.75,1487 4439.75,1488.67 4440.5,1490.5C 4440,1490.83 4439.5,1491.17 4439,1491.5C 4434.48,1486.99 4430.31,1482.15 4426.5,1477C 4418.56,1472.06 4410.89,1466.72 4403.5,1461C 4402.76,1459.22 4402.09,1457.38 4401.5,1455.5C 4397.52,1452.69 4393.69,1449.69 4390,1446.5C 4389.53,1444.75 4388.86,1443.09 4388,1441.5C 4384.48,1438.8 4381.64,1435.47 4379.5,1431.5C 4380.43,1430.23 4380.59,1428.9 4380,1427.5C 4377.59,1424.94 4375.92,1421.94 4375,1418.5C 4370.67,1415.5 4367,1411.83 4364,1407.5C 4363.03,1405.61 4362.36,1403.61 4362,1401.5C 4358.77,1399.67 4355.61,1397.84 4352.5,1396C 4352.83,1395.67 4353.17,1395.33 4353.5,1395C 4350.39,1388.36 4348.56,1381.53 4348,1374.5C 4343.16,1370.16 4337.66,1367 4331.5,1365C 4331.19,1360.03 4329.02,1356.2 4325,1353.5C 4323.01,1349.52 4320.51,1345.85 4317.5,1342.5C 4308.14,1338 4300.31,1331.33 4294,1322.5C 4292.79,1319.23 4292.45,1315.9 4293,1312.5C 4295.18,1310.58 4297.68,1310.42 4300.5,1312C 4302.21,1314.04 4304.21,1315.71 4306.5,1317C 4313.98,1316.11 4321.31,1316.45 4328.5,1318C 4332.2,1320.69 4334.7,1324.19 4336,1328.5C 4337.77,1329.3 4339.27,1330.47 4340.5,1332C 4339.27,1333.18 4339.27,1334.35 4340.5,1335.5C 4349.41,1341.21 4357.91,1347.55 4366,1354.5C 4366.72,1356.11 4366.55,1357.61 4365.5,1359C 4366.68,1360.68 4367.85,1360.51 4369,1358.5C 4371.3,1359.75 4372.64,1361.75 4373,1364.5C 4374.64,1366.73 4376.8,1368.07 4379.5,1368.5 Z M 4379.5,1368.5 C 4381.27,1369.31 4381.77,1370.65 4381,1372.5C 4380.21,1371.26 4379.71,1369.92 4379.5,1368.5 Z"/></g>
<g><path style="opacity:1" fill="#9e344c" d="M 4782.5,1322.5 C 4784.46,1322.98 4785.8,1324.14 4786.5,1326C 4786.01,1329.14 4784.84,1331.98 4783,1334.5C 4783.64,1330.52 4783.47,1326.52 4782.5,1322.5 Z"/></g>
<g><path style="opacity:1" fill="#9e344c" d="M 4619.5,1331.5 C 4623.37,1331.81 4627.2,1331.81 4631,1331.5C 4632.73,1332.25 4634.57,1332.75 4636.5,1333C 4637.83,1335 4639.5,1336.67 4641.5,1338C 4641.17,1338.33 4640.83,1338.67 4640.5,1339C 4645.55,1341.18 4645.55,1343.01 4640.5,1344.5C 4637.9,1343.44 4635.23,1343.27 4632.5,1344C 4634.5,1344.33 4636.5,1344.67 4638.5,1345C 4637.5,1345.33 4636.5,1345.67 4635.5,1346C 4639.5,1347.33 4639.5,1348.67 4635.5,1350C 4637.63,1350.54 4639.63,1351.38 4641.5,1352.5C 4642.81,1356.71 4644.97,1360.37 4648,1363.5C 4646.87,1366.34 4646.2,1369.34 4646,1372.5C 4651.83,1377 4657.67,1381.5 4663.5,1386C 4662.31,1387.35 4660.98,1388.52 4659.5,1389.5C 4655.83,1389.5 4652.16,1388.67 4648.5,1387C 4647.93,1385.79 4647.26,1384.63 4646.5,1383.5C 4646.17,1383.67 4645.83,1383.83 4645.5,1384C 4646.26,1385.44 4646.93,1386.94 4647.5,1388.5C 4646.18,1388.31 4644.85,1388.98 4643.5,1390.5C 4640.39,1395.35 4638.72,1400.69 4638.5,1406.5C 4639.71,1407.72 4639.71,1408.89 4638.5,1410C 4639.45,1410.62 4640.28,1410.45 4641,1409.5C 4641.17,1410 4641.33,1410.5 4641.5,1411C 4640.64,1412.45 4640.48,1413.95 4641,1415.5C 4637.55,1415.15 4634.05,1415.65 4630.5,1417C 4628.81,1418.41 4626.98,1419.57 4625,1420.5C 4624.52,1421.45 4624.35,1422.45 4624.5,1423.5C 4620.19,1424.07 4619.86,1424.73 4623.5,1425.5C 4623.86,1427.77 4623.19,1429.6 4621.5,1431C 4622.87,1431.63 4624.21,1432.3 4625.5,1433C 4625,1434.5 4624.5,1436 4624,1437.5C 4622.7,1436.22 4621.54,1436.38 4620.5,1438C 4623.04,1440.22 4623.04,1442.39 4620.5,1444.5C 4619.68,1442.25 4618.68,1442.09 4617.5,1444C 4618.36,1444.69 4619.02,1445.52 4619.5,1446.5C 4617.81,1448.55 4616.64,1450.89 4616,1453.5C 4609.12,1457.53 4601.95,1460.86 4594.5,1463.5C 4596.56,1456.14 4593.89,1451.8 4586.5,1450.5C 4584.24,1451.47 4581.9,1452.13 4579.5,1452.5C 4579.5,1450.83 4579.5,1449.17 4579.5,1447.5C 4575.5,1449.5 4572.5,1448.5 4570.5,1444.5C 4569.27,1447.3 4567.27,1449.47 4564.5,1451C 4562.33,1451.43 4560.33,1450.93 4558.5,1449.5C 4556.23,1450.44 4554.23,1451.77 4552.5,1453.5C 4551.68,1450.55 4551.18,1447.55 4551,1444.5C 4549.68,1441.97 4548.52,1441.97 4547.5,1444.5C 4546.55,1444.01 4545.55,1443.68 4544.5,1443.5C 4542.02,1444.24 4539.69,1445.24 4537.5,1446.5C 4536.83,1446.33 4536.17,1446.17 4535.5,1446C 4537.01,1445.16 4537.51,1444 4537,1442.5C 4535,1443.17 4533.67,1444.5 4533,1446.5C 4532.78,1445.06 4532.28,1443.73 4531.5,1442.5C 4530.17,1443.17 4528.83,1443.83 4527.5,1444.5C 4526.17,1438.83 4524.83,1433.17 4523.5,1427.5C 4521.2,1426.73 4521.03,1425.73 4523,1424.5C 4523.67,1422.17 4523.67,1419.83 4523,1417.5C 4519.32,1416.95 4515.65,1416.62 4512,1416.5C 4511.63,1415.58 4511.13,1414.75 4510.5,1414C 4512.08,1413.92 4513.42,1413.75 4514.5,1413.5C 4513.71,1411.51 4512.54,1411.18 4511,1412.5C 4509.58,1410.66 4508.41,1408.66 4507.5,1406.5C 4508.5,1405.83 4509.5,1405.17 4510.5,1404.5C 4509.81,1402.56 4509.31,1400.56 4509,1398.5C 4507.93,1397.81 4506.77,1397.31 4505.5,1397C 4506.33,1394.29 4506,1391.62 4504.5,1389C 4506.04,1387.31 4507.04,1385.31 4507.5,1383C 4507.17,1382.67 4506.83,1382.33 4506.5,1382C 4507.23,1380.6 4507.73,1379.1 4508,1377.5C 4511.09,1376.08 4513.09,1373.74 4514,1370.5C 4515.02,1372.38 4515.85,1374.38 4516.5,1376.5C 4521.82,1377.99 4525.82,1381.15 4528.5,1386C 4531.78,1386.74 4534.78,1386.08 4537.5,1384C 4546.56,1385.54 4553.89,1382.87 4559.5,1376C 4562.83,1375.33 4566.17,1375.33 4569.5,1376C 4572.23,1378.3 4575.23,1380.13 4578.5,1381.5C 4582.94,1378.27 4587.94,1376.27 4593.5,1375.5C 4595.95,1370.52 4598.61,1365.69 4601.5,1361C 4598.35,1355.26 4600.02,1352.09 4606.5,1351.5C 4607.79,1346.72 4609.12,1341.89 4610.5,1337C 4612,1335.67 4613.33,1334.17 4614.5,1332.5C 4616.6,1335.11 4618.27,1334.78 4619.5,1331.5 Z"/></g>
<g><path style="opacity:1" fill="#9e344c" d="M 4767.5,1336.5 C 4769.07,1336.94 4770.24,1337.94 4771,1339.5C 4771.69,1340.33 4771.52,1341 4770.5,1341.5C 4768.74,1340.31 4767.74,1338.64 4767.5,1336.5 Z"/></g>
<g><path style="opacity:1" fill="#9e344c" d="M 4640.5,1346.5 C 4642.23,1346.84 4642.73,1347.84 4642,1349.5C 4640.96,1348.76 4640.46,1347.76 4640.5,1346.5 Z"/></g>
<g><path style="opacity:1" fill="#9e344c" d="M 4762.5,1351.5 C 4765,1351.51 4765.17,1352.18 4763,1353.5C 4762.54,1352.91 4762.37,1352.24 4762.5,1351.5 Z"/></g>
<g><path style="opacity:1" fill="#9e344c" d="M 4811.5,1353.5 C 4814.72,1356.27 4814.72,1359.44 4811.5,1363C 4810.21,1363.49 4808.87,1363.66 4807.5,1363.5C 4807.67,1362.18 4807.34,1361.01 4806.5,1360C 4808,1357.67 4809.67,1355.51 4811.5,1353.5 Z"/></g>
<g><path style="opacity:1" fill="#9e344c" d="M 4301.5,1354.5 C 4304.32,1356.94 4307.32,1359.27 4310.5,1361.5C 4311.83,1362.5 4311.83,1363.5 4310.5,1364.5C 4306.79,1361.98 4303.12,1359.48 4299.5,1357C 4300.38,1356.29 4301.05,1355.46 4301.5,1354.5 Z"/></g>
<g><path style="opacity:1" fill="#9e344c" d="M 4797.5,1382.5 C 4795.6,1381.54 4794.6,1379.87 4794.5,1377.5C 4795.87,1374.31 4796.7,1370.98 4797,1367.5C 4798.71,1364.74 4800.88,1362.41 4803.5,1360.5C 4804.11,1362.68 4803.44,1364.68 4801.5,1366.5C 4802.9,1368.13 4803.9,1369.96 4804.5,1372C 4802.29,1375.69 4799.96,1379.19 4797.5,1382.5 Z"/></g>
<g><path style="opacity:1" fill="#9e344c" d="M 4322.5,1367.5 C 4324.5,1366.31 4325.33,1366.98 4325,1369.5C 4324.29,1368.62 4323.46,1367.95 4322.5,1367.5 Z"/></g>
<g><path style="opacity:1" fill="#9e344c" d="M 4388.5,1368.5 C 4390.2,1368.34 4391.87,1368.51 4393.5,1369C 4394.05,1370.4 4394.38,1371.73 4394.5,1373C 4390.26,1374.96 4388.26,1373.46 4388.5,1368.5 Z"/></g>
<g><path style="opacity:1" fill="#9e344c" d="M 4675.5,1398.5 C 4676.66,1396.83 4676.66,1395 4675.5,1393C 4677.19,1390.25 4678.69,1387.42 4680,1384.5C 4681.51,1383.5 4682.67,1382.16 4683.5,1380.5C 4683.74,1381.25 4684.07,1382.08 4684.5,1383C 4685.82,1382.85 4686.99,1383.02 4688,1383.5C 4690.38,1381.12 4691.88,1378.29 4692.5,1375C 4693.83,1374.33 4695.17,1374.33 4696.5,1375C 4699.26,1376.13 4701.76,1377.63 4704,1379.5C 4705.14,1379.09 4706.31,1378.76 4707.5,1378.5C 4711.43,1379.65 4715.43,1380.48 4719.5,1381C 4720.93,1381.47 4722.1,1382.3 4723,1383.5C 4724.68,1381.93 4726.68,1380.93 4729,1380.5C 4732.29,1381.66 4735.62,1382.66 4739,1383.5C 4744.31,1381.27 4748.14,1378.1 4750.5,1374C 4751.79,1373.51 4753.13,1373.34 4754.5,1373.5C 4755.61,1367.37 4757.61,1367.04 4760.5,1372.5C 4757.22,1378.27 4753.39,1383.6 4749,1388.5C 4744.92,1389.99 4740.75,1391.32 4736.5,1392.5C 4734.22,1391.79 4731.89,1391.29 4729.5,1391C 4728.83,1390.33 4728.17,1389.67 4727.5,1389C 4721.14,1388.25 4714.8,1388.41 4708.5,1389.5C 4706.73,1389.11 4705.06,1388.45 4703.5,1387.5C 4702.78,1388.31 4701.95,1388.98 4701,1389.5C 4696.57,1390.15 4692.24,1389.49 4688,1387.5C 4683.05,1389.45 4679.88,1392.95 4678.5,1398C 4678.6,1402.21 4679.77,1406.37 4682,1410.5C 4683,1411.83 4684,1411.83 4685,1410.5C 4686.91,1412.42 4688.07,1414.76 4688.5,1417.5C 4693.87,1421.06 4697.37,1419.73 4699,1413.5C 4700.38,1411.79 4702.04,1410.45 4704,1409.5C 4706.48,1411.31 4709.31,1411.98 4712.5,1411.5C 4712.5,1410.5 4712.5,1409.5 4712.5,1408.5C 4716.51,1408.67 4720.51,1408.5 4724.5,1408C 4723.5,1407.67 4722.5,1407.33 4721.5,1407C 4723.85,1406.56 4726.18,1406.06 4728.5,1405.5C 4733.02,1407.06 4733.68,1409.73 4730.5,1413.5C 4728.74,1410.98 4726.41,1410.15 4723.5,1411C 4720.25,1417.92 4714.92,1422.25 4707.5,1424C 4706.7,1425.77 4705.53,1427.27 4704,1428.5C 4702.98,1427.31 4701.81,1426.31 4700.5,1425.5C 4700.17,1426 4699.83,1426.5 4699.5,1427C 4702.02,1429.84 4704.85,1432.34 4708,1434.5C 4709.29,1437.71 4711.29,1440.37 4714,1442.5C 4714.49,1443.79 4714.66,1445.13 4714.5,1446.5C 4715.68,1446.28 4716.68,1446.61 4717.5,1447.5C 4716.02,1448.48 4714.69,1449.65 4713.5,1451C 4714.71,1452.11 4714.71,1453.28 4713.5,1454.5C 4717.07,1456.28 4719.74,1458.95 4721.5,1462.5C 4723.62,1461.43 4724.62,1462.26 4724.5,1465C 4723.39,1468.47 4721.23,1469.3 4718,1467.5C 4712.84,1467.16 4710.67,1469.49 4711.5,1474.5C 4701.48,1474.83 4699.15,1470.83 4704.5,1462.5C 4700.55,1459.73 4696.72,1456.73 4693,1453.5C 4692.28,1451.34 4692.95,1449.67 4695,1448.5C 4695.5,1445.52 4695.66,1442.52 4695.5,1439.5C 4689.85,1438.11 4685.52,1439.94 4682.5,1445C 4683.5,1446.67 4684.5,1448.33 4685.5,1450C 4684.22,1456.84 4684.22,1463.68 4685.5,1470.5C 4682.77,1475.87 4683.1,1481.04 4686.5,1486C 4683.75,1485.55 4681.08,1485.39 4678.5,1485.5C 4673.78,1488.15 4670.45,1486.82 4668.5,1481.5C 4670.84,1477.99 4672.01,1474.32 4672,1470.5C 4672.96,1465.6 4672.46,1460.93 4670.5,1456.5C 4672.27,1453.92 4671.6,1452.25 4668.5,1451.5C 4660.89,1454.43 4658.56,1451.76 4661.5,1443.5C 4660,1442.16 4659.33,1440.49 4659.5,1438.5C 4664.68,1438.48 4666.84,1435.81 4666,1430.5C 4667.03,1429.3 4667.86,1427.97 4668.5,1426.5C 4666.89,1419.45 4668.73,1413.12 4674,1407.5C 4674.91,1408.33 4675.58,1409.33 4676,1410.5C 4676.15,1408.09 4675.65,1405.76 4674.5,1403.5C 4675.05,1401.87 4675.38,1400.2 4675.5,1398.5 Z"/></g>
<g><path style="opacity:1" fill="#9e344c" d="M 4797.5,1382.5 C 4800.72,1384.25 4802.56,1383.25 4803,1379.5C 4804.25,1378.79 4805.42,1377.96 4806.5,1377C 4805.17,1376 4805.17,1375 4806.5,1374C 4808.77,1371.98 4811.44,1371.14 4814.5,1371.5C 4814.81,1374.25 4814.48,1376.91 4813.5,1379.5C 4804.37,1382.45 4804.37,1385.28 4813.5,1388C 4814.34,1389.01 4814.67,1390.18 4814.5,1391.5C 4810.21,1390.58 4805.88,1389.91 4801.5,1389.5C 4801.38,1396.8 4803.71,1403.47 4808.5,1409.5C 4808.33,1409.83 4808.17,1410.17 4808,1410.5C 4799.24,1403.28 4795.74,1393.95 4797.5,1382.5 Z"/></g>
<g><path style="opacity:1" fill="#9e344c" d="M 4398.5,1375.5 C 4400.74,1376.65 4403.08,1377.65 4405.5,1378.5C 4407.02,1380.16 4406.69,1381.32 4404.5,1382C 4405.28,1383.77 4405.11,1385.6 4404,1387.5C 4402.2,1384.99 4401.7,1382.32 4402.5,1379.5C 4401.63,1379.44 4400.63,1379.1 4399.5,1378.5C 4398.61,1377.68 4398.28,1376.68 4398.5,1375.5 Z"/></g>
<g><path style="opacity:1" fill="#9e344c" d="M 4325.5,1377.5 C 4328.11,1380.37 4330.94,1383.04 4334,1385.5C 4334.02,1387.8 4333.85,1390.13 4333.5,1392.5C 4332.32,1392.72 4331.32,1392.39 4330.5,1391.5C 4327.39,1388.01 4324.73,1384.17 4322.5,1380C 4323.94,1379.62 4324.94,1378.79 4325.5,1377.5 Z"/></g>
<g><path style="opacity:1" fill="#9e344c" d="M 4434.5,1382.5 C 4436.12,1383.04 4437.78,1383.37 4439.5,1383.5C 4439.49,1390.05 4437.99,1390.72 4435,1385.5C 4434.09,1386.65 4433.25,1386.49 4432.5,1385C 4433.38,1384.29 4434.05,1383.46 4434.5,1382.5 Z"/></g>
<g><path style="opacity:1" fill="#9e344c" d="M 4412.5,1390.5 C 4410.71,1389.69 4408.71,1389.19 4406.5,1389C 4405.15,1387.36 4405.32,1385.86 4407,1384.5C 4408.36,1386.5 4410.19,1387.34 4412.5,1387C 4411.17,1386 4409.83,1385 4408.5,1384C 4411.98,1383.43 4414.65,1384.77 4416.5,1388C 4414.36,1388.44 4413.02,1389.27 4412.5,1390.5 Z"/></g>
<g><path style="opacity:1" fill="#9e344c" d="M 4428.5,1383.5 C 4429.5,1383.5 4430.5,1383.5 4431.5,1383.5C 4431.7,1385.58 4431.87,1387.58 4432,1389.5C 4430.83,1387.67 4429.33,1386.17 4427.5,1385C 4428.06,1384.62 4428.39,1384.12 4428.5,1383.5 Z"/></g>
<g><path style="opacity:1" fill="#9e344c" d="M 4418.5,1384.5 C 4419.29,1384.78 4419.96,1385.28 4420.5,1386C 4419.18,1386.53 4418.52,1386.03 4418.5,1384.5 Z"/></g>
<g><path style="opacity:1" fill="#9e344c" d="M 4419.5,1388.5 C 4421.33,1389.14 4421.67,1390.14 4420.5,1391.5C 4419.61,1390.68 4419.28,1389.68 4419.5,1388.5 Z"/></g>
<g><path style="opacity:1" fill="#9e344c" d="M 4416.5,1390.5 C 4419.12,1391.47 4419.12,1392.47 4416.5,1393.5C 4415.44,1392.58 4415.44,1391.58 4416.5,1390.5 Z"/></g>
<g><path style="opacity:1" fill="#9e344c" d="M 4675.5,1398.5 C 4673.8,1398.31 4672.47,1397.48 4671.5,1396C 4673.94,1395.09 4675.28,1395.92 4675.5,1398.5 Z"/></g>
<g><path style="opacity:1" fill="#9e344c" d="M 4823.5,1396.5 C 4825.67,1395.58 4827.34,1396.41 4828.5,1399C 4826.56,1398.94 4824.9,1398.11 4823.5,1396.5 Z"/></g>
<g><path style="opacity:1" fill="#9e344c" d="M 4845.5,1396.5 C 4849.86,1396 4853.19,1397.5 4855.5,1401C 4854.19,1401.82 4852.69,1402.32 4851,1402.5C 4848.91,1400.58 4847.08,1398.58 4845.5,1396.5 Z"/></g>
<g><path style="opacity:1" fill="#9e344c" d="M 4845.5,1403.5 C 4845.29,1401.58 4844.62,1401.24 4843.5,1402.5C 4842.17,1401.17 4840.5,1400.33 4838.5,1400C 4841.54,1399.64 4841.88,1398.97 4839.5,1398C 4841.26,1397.2 4842.93,1397.37 4844.5,1398.5C 4845.65,1400.15 4846.98,1401.65 4848.5,1403C 4847.55,1403.48 4846.55,1403.65 4845.5,1403.5 Z"/></g>
<g><path style="opacity:1" fill="#9e344c" d="M 4343.5,1400.5 C 4344.95,1399.39 4346.61,1399.22 4348.5,1400C 4346.98,1401.79 4345.31,1401.96 4343.5,1400.5 Z"/></g>
<g><path style="opacity:1" fill="#9e344c" d="M 4437.5,1399.5 C 4438.48,1402.12 4440.48,1404.45 4443.5,1406.5C 4442.13,1407.59 4440.97,1407.26 4440,1405.5C 4438.82,1406.73 4437.65,1406.73 4436.5,1405.5C 4437.35,1403.59 4437.68,1401.59 4437.5,1399.5 Z"/></g>
<g><path style="opacity:1" fill="#9e344c" d="M 4789.5,1400.5 C 4792.2,1400.95 4794.87,1401.62 4797.5,1402.5C 4798.05,1404 4798.05,1405.67 4797.5,1407.5C 4798.83,1407.5 4800.17,1407.5 4801.5,1407.5C 4801.5,1408.5 4801.5,1409.5 4801.5,1410.5C 4799.61,1410.7 4798.11,1410.04 4797,1408.5C 4796.59,1408.96 4796.09,1409.29 4795.5,1409.5C 4794.11,1407.28 4792.94,1404.94 4792,1402.5C 4791.69,1403.31 4791.19,1403.97 4790.5,1404.5C 4789.57,1403.31 4789.24,1401.98 4789.5,1400.5 Z"/></g>
<g><path style="opacity:1" fill="#9e344c" d="M 4340.5,1401.5 C 4341.84,1402.31 4342.84,1403.48 4343.5,1405C 4341.07,1405.33 4340.07,1404.17 4340.5,1401.5 Z"/></g>
<g><path style="opacity:1" fill="#9e344c" d="M 4706.5,1401.5 C 4707.27,1402.17 4707.93,1403.01 4708.5,1404C 4702.84,1406.36 4702.18,1405.53 4706.5,1401.5 Z"/></g>
<g><path style="opacity:1" fill="#9e344c" d="M 4708.5,1402.5 C 4709.08,1401.23 4709.74,1401.23 4710.5,1402.5C 4710.03,1403.46 4709.36,1403.46 4708.5,1402.5 Z"/></g>
<g><path style="opacity:1" fill="#9e344c" d="M 5034.5,1529.5 C 5039.45,1531.12 5042.78,1534.45 5044.5,1539.5C 5043.96,1541.27 5043.13,1541.6 5042,1540.5C 5038.72,1542.55 5035.22,1544.22 5031.5,1545.5C 5029.38,1544.69 5027.21,1544.02 5025,1543.5C 5020.59,1545.17 5016.42,1544.84 5012.5,1542.5C 5011.45,1543.38 5010.29,1544.05 5009,1544.5C 5007.41,1542.96 5005.58,1541.79 5003.5,1541C 5000.57,1536.65 4997.07,1532.82 4993,1529.5C 4992.84,1527.14 4992.84,1524.81 4993,1522.5C 4992.04,1523.58 4991.21,1524.75 4990.5,1526C 4985.82,1527.28 4981.15,1527.61 4976.5,1527C 4974.82,1528.18 4973.49,1529.68 4972.5,1531.5C 4968.77,1529.98 4969.1,1528.81 4973.5,1528C 4972.97,1527.31 4972.31,1526.81 4971.5,1526.5C 4969.45,1528.55 4967.11,1530.22 4964.5,1531.5C 4961.17,1530.17 4957.83,1530.17 4954.5,1531.5C 4955.19,1525.31 4958.19,1520.15 4963.5,1516C 4972.35,1513.19 4975.85,1516.35 4974,1525.5C 4977.76,1519.74 4976.93,1515.57 4971.5,1513C 4973.83,1512.67 4976.17,1512.33 4978.5,1512C 4976.94,1511.68 4975.77,1510.85 4975,1509.5C 4972.33,1510.76 4970.16,1510.09 4968.5,1507.5C 4970.09,1507.58 4971.76,1507.25 4973.5,1506.5C 4975.03,1506.53 4976.2,1507.2 4977,1508.5C 4978.82,1507.25 4978.66,1506.08 4976.5,1505C 4974.53,1504.5 4972.53,1504.34 4970.5,1504.5C 4969.31,1502.09 4967.81,1499.76 4966,1497.5C 4963.94,1487.5 4958.11,1480.67 4948.5,1477C 4941.44,1475.3 4934.78,1472.8 4928.5,1469.5C 4924.65,1468.06 4920.82,1467.73 4917,1468.5C 4914.25,1466.87 4911.41,1465.37 4908.5,1464C 4907.78,1462.35 4907.45,1460.85 4907.5,1459.5C 4906.48,1462.03 4905.32,1462.03 4904,1459.5C 4902.95,1460.52 4901.78,1460.68 4900.5,1460C 4900.62,1458.72 4900.12,1457.55 4899,1456.5C 4898.59,1456.96 4898.09,1457.29 4897.5,1457.5C 4895.15,1456.44 4893.15,1454.94 4891.5,1453C 4892.35,1450.03 4893.18,1447.2 4894,1444.5C 4891.93,1447.45 4890.59,1450.79 4890,1454.5C 4889.17,1455.33 4888.33,1456.17 4887.5,1457C 4888.45,1457.72 4888.62,1458.55 4888,1459.5C 4882.18,1464.41 4878.68,1463.24 4877.5,1456C 4878.5,1455 4879.5,1454 4880.5,1453C 4877.54,1451.38 4874.87,1448.71 4872.5,1445C 4870.6,1443.35 4868.6,1443.02 4866.5,1444C 4864.98,1440.34 4866.31,1438.84 4870.5,1439.5C 4872.93,1439.4 4875.09,1440.07 4877,1441.5C 4879.09,1438.9 4881.59,1436.9 4884.5,1435.5C 4888.66,1438.57 4892.33,1438.07 4895.5,1434C 4893.2,1432.84 4893.54,1431.84 4896.5,1431C 4894.16,1431.12 4891.82,1431.62 4889.5,1432.5C 4886.38,1431.21 4883.38,1431.54 4880.5,1433.5C 4879.17,1432.17 4877.83,1432.17 4876.5,1433.5C 4874.84,1431.2 4873,1431.2 4871,1433.5C 4866.26,1431.35 4864.09,1427.69 4864.5,1422.5C 4861.94,1421.8 4859.44,1420.8 4857,1419.5C 4855.74,1419.76 4854.74,1420.43 4854,1421.5C 4851.24,1420.02 4848.57,1418.35 4846,1416.5C 4845.73,1414.9 4845.23,1413.4 4844.5,1412C 4845.17,1411.67 4845.83,1411.33 4846.5,1411C 4844.83,1410.67 4843.17,1410.33 4841.5,1410C 4843.76,1409.76 4845.93,1409.26 4848,1408.5C 4848.33,1409.5 4848.67,1410.5 4849,1411.5C 4849.67,1410.17 4850.33,1410.17 4851,1411.5C 4851.18,1413.42 4851.35,1415.09 4851.5,1416.5C 4853.98,1414.46 4854.98,1411.8 4854.5,1408.5C 4859.24,1409.53 4863.24,1408.03 4866.5,1404C 4868.72,1402.87 4871.06,1402.04 4873.5,1401.5C 4878.86,1402.44 4883.52,1404.61 4887.5,1408C 4890.51,1408.13 4893.51,1408.13 4896.5,1408C 4898.2,1409.4 4898.7,1411.24 4898,1413.5C 4898.97,1415.3 4900.14,1416.97 4901.5,1418.5C 4900.98,1420.45 4899.98,1422.12 4898.5,1423.5C 4899.05,1426.86 4899.55,1430.52 4900,1434.5C 4901.38,1435.55 4902.38,1436.88 4903,1438.5C 4904.11,1436.96 4905.61,1436.3 4907.5,1436.5C 4907.34,1438.53 4907.5,1440.53 4908,1442.5C 4908.67,1443.83 4909.33,1443.83 4910,1442.5C 4910.42,1449.97 4914.25,1452.31 4921.5,1449.5C 4924.22,1446.94 4926.38,1443.94 4928,1440.5C 4931.49,1438.7 4933.65,1435.87 4934.5,1432C 4936.03,1431.5 4937.53,1431.67 4939,1432.5C 4941.64,1431.01 4944.47,1430.34 4947.5,1430.5C 4946.99,1428.71 4946.49,1427.04 4946,1425.5C 4949.67,1423.5 4953.33,1421.5 4957,1419.5C 4966.85,1424.23 4976.69,1429.07 4986.5,1434C 4988.57,1434.69 4990.57,1434.52 4992.5,1433.5C 4994.88,1435.07 4997.55,1435.9 5000.5,1436C 5001.82,1436.69 5002.65,1437.53 5003,1438.5C 5004.79,1437.59 5006.62,1437.42 5008.5,1438C 5019.66,1444.5 5031.66,1448.83 5044.5,1451C 5048.55,1453.41 5052.55,1455.91 5056.5,1458.5C 5058.07,1457.69 5059.74,1457.36 5061.5,1457.5C 5061.5,1458.5 5061.5,1459.5 5061.5,1460.5C 5062.87,1460.34 5064.21,1460.51 5065.5,1461C 5070.47,1464.63 5075.31,1468.46 5080,1472.5C 5080.84,1474.35 5081.67,1476.18 5082.5,1478C 5080.95,1480.1 5080.62,1482.26 5081.5,1484.5C 5082.17,1484.17 5082.83,1483.83 5083.5,1483.5C 5089.67,1484.92 5095.34,1487.42 5100.5,1491C 5102.83,1491.33 5105.17,1491.67 5107.5,1492C 5109.33,1493.83 5111.17,1495.67 5113,1497.5C 5113.76,1499.77 5113.59,1501.94 5112.5,1504C 5109.11,1504.75 5105.77,1504.59 5102.5,1503.5C 5100.83,1503.83 5099.83,1504.83 5099.5,1506.5C 5101.21,1509.25 5102.37,1512.25 5103,1515.5C 5106.91,1517.4 5110.24,1520.07 5113,1523.5C 5114.57,1524.86 5116.4,1525.52 5118.5,1525.5C 5118.38,1529.63 5119.88,1532.97 5123,1535.5C 5123,1538.85 5124.5,1541.18 5127.5,1542.5C 5130.33,1541.07 5133.33,1540.4 5136.5,1540.5C 5135.83,1543.17 5135.17,1545.83 5134.5,1548.5C 5138.96,1548.97 5143.3,1549.97 5147.5,1551.5C 5146.09,1552.81 5144.42,1553.64 5142.5,1554C 5147.18,1557.68 5152.51,1560.01 5158.5,1561C 5158,1561.5 5157.5,1562 5157,1562.5C 5155.51,1561.25 5154.01,1561.25 5152.5,1562.5C 5158.97,1564.62 5158.64,1566.29 5151.5,1567.5C 5149.09,1566.94 5146.76,1566.1 5144.5,1565C 5148.85,1564.58 5149.19,1563.91 5145.5,1563C 5136.55,1561.26 5127.55,1559.76 5118.5,1558.5C 5117.56,1558.61 5116.72,1558.94 5116,1559.5C 5114.07,1557.96 5111.9,1556.79 5109.5,1556C 5107.86,1551.69 5104.86,1548.69 5100.5,1547C 5099.13,1545.56 5098.13,1543.89 5097.5,1542C 5094.14,1541.54 5092.81,1539.87 5093.5,1537C 5090.33,1533.65 5087.67,1529.99 5085.5,1526C 5079.52,1524.21 5073.52,1522.54 5067.5,1521C 5064.62,1520.15 5062.12,1518.65 5060,1516.5C 5059.51,1517.55 5059.67,1518.55 5060.5,1519.5C 5059.37,1520.6 5058.54,1520.27 5058,1518.5C 5057.75,1519.62 5057.25,1520.62 5056.5,1521.5C 5053.25,1519.69 5050.25,1517.85 5047.5,1516C 5050.23,1518.3 5051.73,1521.14 5052,1524.5C 5049.1,1525.27 5046.43,1524.61 5044,1522.5C 5043.33,1523.17 5043.33,1523.83 5044,1524.5C 5045.5,1525.33 5046.67,1526.5 5047.5,1528C 5043.19,1528.74 5038.85,1529.24 5034.5,1529.5 Z M 5034.5,1529.5 C 5030.78,1531.32 5027.78,1530.49 5025.5,1527C 5027.59,1526.55 5029.09,1527.39 5030,1529.5C 5031.62,1528.2 5033.12,1528.2 5034.5,1529.5 Z"/></g>
<g><path style="opacity:1" fill="#9e344c" d="M 4843.5,1402.5 C 4844.17,1402.83 4844.83,1403.17 4845.5,1403.5C 4844.46,1405.85 4843.12,1406.02 4841.5,1404C 4842.42,1403.72 4843.08,1403.22 4843.5,1402.5 Z"/></g>
<g><path style="opacity:1" fill="#9e344c" d="M 4341.5,1406.5 C 4342.61,1407.15 4343.61,1407.48 4344.5,1407.5C 4343.75,1408.74 4343.42,1410.07 4343.5,1411.5C 4342.5,1411.5 4341.5,1411.5 4340.5,1411.5C 4340.63,1409.78 4340.96,1408.12 4341.5,1406.5 Z"/></g>
<g><path style="opacity:1" fill="#9e344c" d="M 4790.5,1406.5 C 4792.46,1406.95 4792.8,1407.95 4791.5,1409.5C 4790.61,1408.68 4790.28,1407.68 4790.5,1406.5 Z"/></g>
<g><path style="opacity:1" fill="#9e344c" d="M 4918.5,1406.5 C 4924.13,1406.2 4928.46,1408.37 4931.5,1413C 4935.07,1413.89 4934.91,1415.05 4931,1416.5C 4929.5,1416 4928,1415.5 4926.5,1415C 4925.67,1413.18 4924.84,1411.35 4924,1409.5C 4923.67,1409.83 4923.33,1410.17 4923,1410.5C 4921.93,1409.81 4920.77,1409.31 4919.5,1409C 4918.75,1408.33 4918.41,1407.5 4918.5,1406.5 Z"/></g>
<g><path style="opacity:1" fill="#9e344c" d="M 4434.5,1407.5 C 4438.33,1408.14 4439,1409.81 4436.5,1412.5C 4433.81,1411.47 4433.14,1409.8 4434.5,1407.5 Z"/></g>
<g><path style="opacity:1" fill="#9e344c" d="M 4909.5,1411.5 C 4911,1411.41 4912,1412.08 4912.5,1413.5C 4910.6,1414.64 4909.6,1413.97 4909.5,1411.5 Z"/></g>
<g><path style="opacity:1" fill="#9e344c" d="M 4346.5,1414.5 C 4348.44,1414.87 4350.27,1415.54 4352,1416.5C 4353.26,1419.7 4354.43,1422.53 4355.5,1425C 4353.08,1425.69 4350.91,1425.19 4349,1423.5C 4347.95,1421.24 4346.79,1419.07 4345.5,1417C 4345.74,1416.1 4346.08,1415.26 4346.5,1414.5 Z"/></g>
<g><path style="opacity:1" fill="#9e344c" d="M 4832.5,1414.5 C 4833.04,1414.56 4833.38,1414.89 4833.5,1415.5C 4832.64,1416.58 4831.64,1416.75 4830.5,1416C 4831.42,1415.72 4832.08,1415.22 4832.5,1414.5 Z"/></g>
<g><path style="opacity:1" fill="#9e344c" d="M 4723.5,1415.5 C 4725.6,1415.2 4727.6,1415.53 4729.5,1416.5C 4727.44,1418.27 4725.61,1420.27 4724,1422.5C 4722.28,1420.33 4722.11,1418 4723.5,1415.5 Z"/></g>
<g><path style="opacity:1" fill="#9e344c" d="M 4795.5,1416.5 C 4795.9,1415.47 4796.56,1415.31 4797.5,1416C 4796.91,1416.46 4796.24,1416.63 4795.5,1416.5 Z"/></g>
<g><path style="opacity:1" fill="#9e344c" d="M 4730.5,1416.5 C 4731.83,1416.5 4733.17,1416.5 4734.5,1416.5C 4734.72,1418.68 4733.88,1420.35 4732,1421.5C 4730.31,1418.87 4729.14,1419.2 4728.5,1422.5C 4728.17,1422.33 4727.83,1422.17 4727.5,1422C 4728.53,1420.13 4729.53,1418.3 4730.5,1416.5 Z"/></g>
<g><path style="opacity:1" fill="#9e344c" d="M 4797.5,1417.5 C 4809.68,1423.17 4809.02,1425.33 4795.5,1424C 4794.83,1423 4794.17,1422 4793.5,1421C 4795.09,1420.05 4796.43,1418.88 4797.5,1417.5 Z"/></g>
<g><path style="opacity:1" fill="#9e344c" d="M 4458.5,1420.5 C 4462.27,1424.72 4464.44,1429.72 4465,1435.5C 4467.05,1436.72 4469.22,1437.72 4471.5,1438.5C 4470.21,1441.03 4470.21,1443.53 4471.5,1446C 4470.83,1446.17 4470.17,1446.33 4469.5,1446.5C 4467,1444.16 4464,1442.66 4460.5,1442C 4460.28,1438.39 4458.94,1434.89 4456.5,1431.5C 4453.03,1430.99 4449.69,1430.16 4446.5,1429C 4450.05,1426.98 4452.39,1424.48 4453.5,1421.5C 4454.85,1422.52 4455.85,1423.85 4456.5,1425.5C 4457.29,1424.93 4457.29,1424.1 4456.5,1423C 4457.06,1421.99 4457.72,1421.16 4458.5,1420.5 Z"/></g>
<g><path style="opacity:1" fill="#9e344c" d="M 4504.5,1421.5 C 4506.34,1421.64 4506.67,1422.31 4505.5,1423.5C 4504.7,1423.04 4504.37,1422.38 4504.5,1421.5 Z"/></g>
<g><path style="opacity:1" fill="#9e344c" d="M 4747.5,1422.5 C 4757.06,1424.74 4767.06,1425.91 4777.5,1426C 4771.23,1427.75 4765.23,1427.92 4759.5,1426.5C 4758.2,1428.37 4756.7,1428.7 4755,1427.5C 4748.17,1431.43 4745.67,1429.76 4747.5,1422.5 Z"/></g>
<g><path style="opacity:1" fill="#9e344c" d="M 4919.5,1423.5 C 4921.3,1422.84 4923.3,1422.5 4925.5,1422.5C 4931.18,1423.17 4936.85,1424 4942.5,1425C 4940.41,1426.03 4938.25,1426.86 4936,1427.5C 4930.2,1426.11 4924.7,1424.77 4919.5,1423.5 Z"/></g>
<g><path style="opacity:1" fill="#9e344c" d="M 4837.5,1423.5 C 4841.35,1423.7 4842.35,1425.53 4840.5,1429C 4836.79,1430 4833.46,1429.33 4830.5,1427C 4832.86,1425.72 4835.19,1424.56 4837.5,1423.5 Z"/></g>
<g><path style="opacity:1" fill="#9e344c" d="M 4770.5,1428.5 C 4771.65,1428.79 4772.32,1429.62 4772.5,1431C 4773.12,1432.84 4773.29,1434.67 4773,1436.5C 4771.27,1434.14 4770.44,1431.47 4770.5,1428.5 Z"/></g>
<g><path style="opacity:1" fill="#9e344c" d="M 4359.5,1429.5 C 4361.68,1430.3 4363.35,1431.8 4364.5,1434C 4361.22,1434.35 4359.56,1432.85 4359.5,1429.5 Z"/></g>
<g><path style="opacity:1" fill="#9e344c" d="M 4366.5,1436.5 C 4369.84,1438.15 4370.17,1440.15 4367.5,1442.5C 4366.13,1440.45 4365.8,1438.45 4366.5,1436.5 Z"/></g>
<g><path style="opacity:1" fill="#9e344c" d="M 4486.5,1437.5 C 4495.19,1437.6 4497.53,1441.1 4493.5,1448C 4492,1448.51 4490.84,1448.01 4490,1446.5C 4487.16,1449.65 4485.33,1449.15 4484.5,1445C 4485.22,1442.51 4485.89,1440.01 4486.5,1437.5 Z"/></g>
<g><path style="opacity:1" fill="#9e344c" d="M 4826.5,1440.5 C 4829.27,1441.43 4831.93,1442.6 4834.5,1444C 4836.44,1444.74 4838.27,1444.58 4840,1443.5C 4843.2,1446.74 4846.03,1450.24 4848.5,1454C 4848.12,1455.63 4847.46,1457.13 4846.5,1458.5C 4840.52,1454.68 4834.19,1451.68 4827.5,1449.5C 4827.65,1450.55 4827.48,1451.55 4827,1452.5C 4823.49,1451.97 4820.33,1450.63 4817.5,1448.5C 4812.96,1452.77 4809.12,1452.1 4806,1446.5C 4804.81,1448.38 4803.81,1450.38 4803,1452.5C 4802.5,1451 4802,1449.5 4801.5,1448C 4803,1446.67 4804.33,1445.17 4805.5,1443.5C 4811.01,1442.23 4816.51,1442.23 4822,1443.5C 4823.67,1442.65 4825.17,1441.65 4826.5,1440.5 Z"/></g>
<g><path style="opacity:1" fill="#9e344c" d="M 4370.5,1441.5 C 4374.53,1444.01 4375.53,1447.34 4373.5,1451.5C 4371.88,1449.09 4370.54,1446.42 4369.5,1443.5C 4369.86,1442.82 4370.2,1442.15 4370.5,1441.5 Z"/></g>
<g><path style="opacity:1" fill="#9e344c" d="M 4472.5,1442.5 C 4475.2,1445.27 4474.87,1445.77 4471.5,1444C 4472.06,1443.62 4472.39,1443.12 4472.5,1442.5 Z"/></g>
<g><path style="opacity:1" fill="#9e344c" d="M 4777.5,1445.5 C 4782.41,1444.81 4786.75,1445.98 4790.5,1449C 4790.17,1449.33 4789.83,1449.67 4789.5,1450C 4790.62,1450.25 4791.62,1450.75 4792.5,1451.5C 4791.75,1452.74 4791.42,1454.07 4791.5,1455.5C 4788.8,1455.96 4786.13,1456.62 4783.5,1457.5C 4777.88,1457.03 4774.21,1454.2 4772.5,1449C 4772.68,1446.76 4773.51,1446.26 4775,1447.5C 4775.99,1446.93 4776.83,1446.27 4777.5,1445.5 Z"/></g>
<g><path style="opacity:1" fill="#9e344c" d="M 4799.5,1446.5 C 4800.93,1448.38 4800.43,1449.71 4798,1450.5C 4797.5,1450.17 4797,1449.83 4796.5,1449.5C 4796.85,1448.3 4797.35,1448.3 4798,1449.5C 4798.51,1448.47 4799.01,1447.47 4799.5,1446.5 Z"/></g>
<g><path style="opacity:1" fill="#9e344c" d="M 4619.5,1448.5 C 4620.38,1452.15 4621.05,1455.65 4621.5,1459C 4620.33,1460.08 4619,1460.92 4617.5,1461.5C 4617.73,1459.87 4617.4,1458.04 4616.5,1456C 4617.65,1453.54 4618.65,1451.04 4619.5,1448.5 Z"/></g>
<g><path style="opacity:1" fill="#9e344c" d="M 4621.5,1451.5 C 4622.57,1452.25 4622.74,1453.25 4622,1454.5C 4621.52,1453.55 4621.35,1452.55 4621.5,1451.5 Z"/></g>
<g><path style="opacity:1" fill="#9e344c" d="M 4807.5,1452.5 C 4810.57,1453.29 4813.57,1453.62 4816.5,1453.5C 4816.08,1454.67 4815.41,1455.67 4814.5,1456.5C 4812.63,1456.05 4810.8,1455.72 4809,1455.5C 4807.68,1458.03 4806.52,1458.03 4805.5,1455.5C 4804.52,1455.98 4803.69,1456.64 4803,1457.5C 4802.33,1456.83 4802.33,1456.17 4803,1455.5C 4804.41,1454.22 4805.91,1453.22 4807.5,1452.5 Z"/></g>
<g><path style="opacity:1" fill="#9e344c" d="M 4725.5,1460.5 C 4730.73,1460.34 4731.4,1461.67 4727.5,1464.5C 4725.89,1463.68 4725.22,1462.35 4725.5,1460.5 Z"/></g>
<g><path style="opacity:1" fill="#9e344c" d="M 4726.5,1466.5 C 4728.76,1468.69 4729.59,1471.35 4729,1474.5C 4728.69,1473.69 4728.19,1473.03 4727.5,1472.5C 4724.68,1475.71 4725.01,1478.54 4728.5,1481C 4728.36,1481.77 4728.02,1482.44 4727.5,1483C 4726.17,1483.33 4724.83,1483.67 4723.5,1484C 4724.85,1486.13 4724.18,1487.29 4721.5,1487.5C 4720.09,1487.13 4719.09,1486.3 4718.5,1485C 4721.92,1480.53 4723.75,1475.37 4724,1469.5C 4725.04,1468.63 4725.88,1467.63 4726.5,1466.5 Z"/></g>
<g><path style="opacity:1" fill="#9e344c" d="M 5083.5,1468.5 C 5086.14,1469.79 5086.14,1471.13 5083.5,1472.5C 5082.71,1471.3 5082.71,1469.97 5083.5,1468.5 Z"/></g>
<g><path style="opacity:1" fill="#9e344c" d="M 4719.5,1470.5 C 4721.12,1470.79 4722.12,1471.79 4722.5,1473.5C 4721.88,1475.71 4720.88,1477.71 4719.5,1479.5C 4720.88,1480.86 4720.71,1481.86 4719,1482.5C 4716.46,1484.15 4714.96,1483.48 4714.5,1480.5C 4714.92,1479.33 4715.59,1478.33 4716.5,1477.5C 4715.69,1475.93 4715.36,1474.26 4715.5,1472.5C 4717.38,1472.77 4718.71,1472.1 4719.5,1470.5 Z"/></g>
<g><path style="opacity:1" fill="#9e344c" d="M 4707.5,1477.5 C 4711.31,1478.45 4712.31,1480.79 4710.5,1484.5C 4707.91,1482.93 4706.91,1480.6 4707.5,1477.5 Z"/></g>
<g><path style="opacity:1" fill="#9e344c" d="M 5100.5,1479.5 C 5103.27,1479.83 5103.94,1481.17 5102.5,1483.5C 5100.89,1482.68 5100.22,1481.35 5100.5,1479.5 Z"/></g>
<g><path style="opacity:1" fill="#9e344c" d="M 4733.5,1480.5 C 4735.34,1480.64 4735.67,1481.31 4734.5,1482.5C 4733.7,1482.04 4733.37,1481.38 4733.5,1480.5 Z"/></g>
<g><path style="opacity:1" fill="#9e344c" d="M 4399.5,1482.5 C 4401.26,1481.29 4402.93,1481.62 4404.5,1483.5C 4402.81,1484.2 4401.14,1483.87 4399.5,1482.5 Z"/></g>
<g><path style="opacity:1" fill="#9e344c" d="M 4883.5,1481.5 C 4884.3,1485.26 4883.13,1488.59 4880,1491.5C 4880.81,1488.17 4881.98,1484.84 4883.5,1481.5 Z"/></g>
<g><path style="opacity:1" fill="#9e344c" d="M 4904.5,1483.5 C 4905.82,1483.33 4906.99,1483.66 4908,1484.5C 4908.24,1486.76 4908.74,1488.93 4909.5,1491C 4908.17,1491.33 4906.83,1491.67 4905.5,1492C 4909.71,1492.79 4910.38,1494.63 4907.5,1497.5C 4906.23,1496.57 4904.9,1496.41 4903.5,1497C 4905.61,1497.42 4906.45,1498.59 4906,1500.5C 4902.95,1497.2 4901.79,1497.2 4902.5,1500.5C 4903.5,1501.33 4904.5,1502.17 4905.5,1503C 4903.94,1504.6 4902.28,1506.1 4900.5,1507.5C 4896.94,1504.57 4896.61,1501.24 4899.5,1497.5C 4899,1496.28 4898.67,1495.12 4898.5,1494C 4902.46,1492.79 4903.13,1490.79 4900.5,1488C 4903.07,1487.57 4904.41,1486.07 4904.5,1483.5 Z"/></g>
<g><path style="opacity:1" fill="#9e344c" d="M 5112.5,1484.5 C 5117.05,1484.84 5118.22,1486.84 5116,1490.5C 5113.74,1489.08 5112.57,1487.08 5112.5,1484.5 Z"/></g>
<g><path style="opacity:1" fill="#9e344c" d="M 4875.5,1487.5 C 4876.19,1486.23 4877.02,1486.23 4878,1487.5C 4878.78,1488.94 4878.61,1490.28 4877.5,1491.5C 4876.83,1490.05 4876.16,1488.72 4875.5,1487.5 Z"/></g>
<g><path style="opacity:1" fill="#9e344c" d="M 4563.5,1488.5 C 4565.34,1488.64 4565.67,1489.31 4564.5,1490.5C 4563.7,1490.04 4563.37,1489.38 4563.5,1488.5 Z"/></g>
<g><path style="opacity:1" fill="#9e344c" d="M 4685.5,1489.5 C 4686.12,1489.61 4686.62,1489.94 4687,1490.5C 4687.67,1492.83 4687.67,1495.17 4687,1497.5C 4685.63,1495.06 4685.13,1492.4 4685.5,1489.5 Z"/></g>
<g><path style="opacity:1" fill="#9e344c" d="M 4460.5,1490.5 C 4461.79,1492.25 4463.29,1492.58 4465,1491.5C 4466.57,1493.17 4468.23,1493.5 4470,1492.5C 4471.92,1494 4474.09,1494.67 4476.5,1494.5C 4476.28,1493.32 4476.61,1492.32 4477.5,1491.5C 4478.5,1492.83 4479.5,1492.83 4480.5,1491.5C 4483.35,1495.56 4487.35,1497.56 4492.5,1497.5C 4495.52,1496.59 4498.02,1497.59 4500,1500.5C 4500.27,1502.1 4500.77,1503.6 4501.5,1505C 4506.17,1506.36 4510.84,1506.53 4515.5,1505.5C 4518.59,1507.36 4521.76,1507.69 4525,1506.5C 4526.09,1507.29 4527.25,1507.96 4528.5,1508.5C 4531.1,1506.14 4533.1,1503.31 4534.5,1500C 4536.13,1499.51 4537.8,1499.34 4539.5,1499.5C 4539.33,1500.82 4539.66,1501.99 4540.5,1503C 4546.08,1502.91 4551.41,1504.41 4556.5,1507.5C 4561.84,1505.09 4564.17,1506.76 4563.5,1512.5C 4564.5,1512.5 4565.5,1512.5 4566.5,1512.5C 4565.95,1514.33 4565.95,1516 4566.5,1517.5C 4569.16,1518.83 4571.82,1520.16 4574.5,1521.5C 4578.15,1520.68 4581.81,1519.68 4585.5,1518.5C 4587.39,1519.61 4589.39,1520.44 4591.5,1521C 4592.57,1524.55 4592.23,1528.05 4590.5,1531.5C 4591.37,1533.87 4593.04,1535.37 4595.5,1536C 4595,1536.5 4594.5,1537 4594,1537.5C 4586.65,1535.03 4579.48,1532.03 4572.5,1528.5C 4570.16,1529.92 4567.66,1530.92 4565,1531.5C 4560.39,1530.22 4555.73,1529.22 4551,1528.5C 4550.05,1529.02 4549.22,1529.69 4548.5,1530.5C 4538.95,1529.49 4529.95,1526.65 4521.5,1522C 4517.58,1521.54 4513.75,1520.71 4510,1519.5C 4507.91,1520.97 4506.24,1520.64 4505,1518.5C 4497.62,1522.47 4490.45,1521.97 4483.5,1517C 4478.55,1516 4473.55,1515.34 4468.5,1515C 4466.08,1513.33 4466.08,1511.49 4468.5,1509.5C 4465.93,1508.78 4463.6,1507.61 4461.5,1506C 4458.77,1505.27 4456.1,1505.44 4453.5,1506.5C 4453.17,1506.17 4452.83,1505.83 4452.5,1505.5C 4453.93,1503.78 4454.77,1501.78 4455,1499.5C 4455.41,1499.96 4455.91,1500.29 4456.5,1500.5C 4457.64,1497.06 4458.98,1493.73 4460.5,1490.5 Z"/></g>
<g><path style="opacity:1" fill="#9e344c" d="M 4909.5,1497.5 C 4911.65,1497.7 4911.81,1498.7 4910,1500.5C 4909.52,1499.55 4909.35,1498.55 4909.5,1497.5 Z"/></g>
<g><path style="opacity:1" fill="#9e344c" d="M 4685.5,1499.5 C 4685.9,1498.47 4686.56,1498.31 4687.5,1499C 4686.91,1499.46 4686.24,1499.63 4685.5,1499.5 Z"/></g>
<g><path style="opacity:1" fill="#9e344c" d="M 4446.5,1502.5 C 4447.08,1501.23 4447.74,1501.23 4448.5,1502.5C 4448.03,1503.46 4447.36,1503.46 4446.5,1502.5 Z"/></g>
<g><path style="opacity:1" fill="#9e344c" d="M 4907.5,1501.5 C 4908.78,1502.39 4908.78,1503.39 4907.5,1504.5C 4906.91,1503.77 4906.91,1502.77 4907.5,1501.5 Z"/></g>
<g><path style="opacity:1" fill="#9e344c" d="M 4448.5,1505.5 C 4449.25,1504.43 4450.25,1504.26 4451.5,1505C 4450.55,1505.48 4449.55,1505.65 4448.5,1505.5 Z"/></g>
<g><path style="opacity:1" fill="#9e344c" d="M 4604.5,1505.5 C 4610.2,1506.1 4610.53,1507.1 4605.5,1508.5C 4604.61,1507.68 4604.28,1506.68 4604.5,1505.5 Z"/></g>
<g><path style="opacity:1" fill="#9e344c" d="M 4568.5,1506.5 C 4575.01,1506.04 4581.35,1506.54 4587.5,1508C 4583.5,1509.5 4579.5,1511 4575.5,1512.5C 4571.72,1512.09 4568.05,1511.26 4564.5,1510C 4565.73,1508.6 4567.06,1507.43 4568.5,1506.5 Z"/></g>
<g><path style="opacity:1" fill="#9e344c" d="M 4688.5,1508.5 C 4689.47,1508.99 4690.47,1509.49 4691.5,1510C 4689.84,1510.73 4688.84,1510.23 4688.5,1508.5 Z"/></g>
<g><path style="opacity:1" fill="#9e344c" d="M 4590.5,1509.5 C 4591.53,1509.9 4591.69,1510.56 4591,1511.5C 4590.54,1510.91 4590.37,1510.24 4590.5,1509.5 Z"/></g>
<g><path style="opacity:1" fill="#9e344c" d="M 4860.5,1509.5 C 4862.5,1509.5 4864.5,1509.5 4866.5,1509.5C 4866.72,1510.68 4866.39,1511.68 4865.5,1512.5C 4863.96,1511.25 4862.46,1511.25 4861,1512.5C 4861.78,1518.11 4859.45,1522.11 4854,1524.5C 4852.72,1524.39 4851.89,1523.72 4851.5,1522.5C 4853.72,1517.62 4856.72,1513.29 4860.5,1509.5 Z"/></g>
<g><path style="opacity:1" fill="#9e344c" d="M 4691.5,1513.5 C 4692.71,1512.22 4694.04,1512.22 4695.5,1513.5C 4694.44,1513.91 4693.11,1513.91 4691.5,1513.5 Z"/></g>
<g><path style="opacity:1" fill="#9e344c" d="M 4850.5,1516.5 C 4850.9,1515.47 4851.56,1515.31 4852.5,1516C 4851.91,1516.46 4851.24,1516.63 4850.5,1516.5 Z"/></g>
<g><path style="opacity:1" fill="#9e344c" d="M 4780.5,1517.5 C 4782.2,1517.69 4783.53,1518.52 4784.5,1520C 4782.32,1521.18 4780.16,1522.35 4778,1523.5C 4775.09,1521.92 4772.42,1522.25 4770,1524.5C 4769.58,1522.21 4770.25,1520.21 4772,1518.5C 4775.09,1520.89 4777.92,1520.56 4780.5,1517.5 Z"/></g>
<g><path style="opacity:1" fill="#9e344c" d="M 4830.5,1521.5 C 4832.76,1522.24 4832.93,1523.24 4831,1524.5C 4829.27,1523.65 4829.1,1522.65 4830.5,1521.5 Z"/></g>
<g><path style="opacity:1" fill="#9e344c" d="M 4849.5,1524.5 C 4850.68,1525.5 4852.02,1526.34 4853.5,1527C 4851.39,1527.56 4849.39,1528.39 4847.5,1529.5C 4847.17,1529.17 4846.83,1528.83 4846.5,1528.5C 4847.83,1527.36 4848.83,1526.02 4849.5,1524.5 Z"/></g>
<g><path style="opacity:1" fill="#9e344c" d="M 4602.5,1525.5 C 4606.47,1525.48 4609.47,1527.15 4611.5,1530.5C 4610.53,1532.64 4608.86,1533.8 4606.5,1534C 4605.23,1535.31 4604.23,1536.81 4603.5,1538.5C 4603.55,1537.15 4603.22,1535.65 4602.5,1534C 4599.08,1532 4595.75,1530 4592.5,1528C 4593.11,1527.13 4593.94,1526.63 4595,1526.5C 4597.93,1528.14 4600.43,1527.81 4602.5,1525.5 Z"/></g>
<g><path style="opacity:1" fill="#9e344c" d="M 4646.5,1525.5 C 4647.71,1526.23 4649.04,1526.57 4650.5,1526.5C 4650.88,1530.94 4652.72,1531.61 4656,1528.5C 4657.88,1529.09 4658.88,1530.43 4659,1532.5C 4659.48,1531.55 4659.65,1530.55 4659.5,1529.5C 4663.31,1529.18 4664.64,1530.68 4663.5,1534C 4664.62,1534.25 4665.62,1534.75 4666.5,1535.5C 4664.99,1536.75 4663.49,1536.75 4662,1535.5C 4662.08,1536.74 4661.91,1537.74 4661.5,1538.5C 4658.83,1538.17 4656.16,1537.84 4653.5,1537.5C 4654.25,1533.8 4653.58,1533.97 4651.5,1538C 4645.16,1539.51 4638.82,1541.01 4632.5,1542.5C 4629.64,1542.17 4628.31,1540.51 4628.5,1537.5C 4628.67,1536.17 4628.83,1534.83 4629,1533.5C 4634.42,1529.8 4639.59,1530.3 4644.5,1535C 4646.86,1535.21 4649.03,1535.37 4651,1535.5C 4651.62,1534.55 4651.45,1533.72 4650.5,1533C 4646.73,1532.16 4644.4,1529.99 4643.5,1526.5C 4644.79,1526.74 4645.79,1526.4 4646.5,1525.5 Z"/></g>
<g><path style="opacity:1" fill="#9e344c" d="M 4721.5,1526.5 C 4722.57,1525.57 4723.9,1525.23 4725.5,1525.5C 4725.84,1528.33 4724.84,1530.49 4722.5,1532C 4722.96,1532.41 4723.29,1532.91 4723.5,1533.5C 4717.89,1535.77 4712.06,1537.44 4706,1538.5C 4704.63,1538.29 4703.3,1537.96 4702,1537.5C 4697.78,1540.63 4693.62,1540.8 4689.5,1538C 4685.58,1537.21 4681.74,1537.37 4678,1538.5C 4675.93,1537.37 4675.27,1535.71 4676,1533.5C 4678.98,1531.01 4682.31,1529.34 4686,1528.5C 4691.77,1529.44 4697.11,1531.44 4702,1534.5C 4703,1533.5 4704,1532.5 4705,1531.5C 4706.8,1532.77 4708.63,1532.77 4710.5,1531.5C 4711.6,1533.1 4713.1,1534.1 4715,1534.5C 4717.82,1532.35 4720.66,1530.18 4723.5,1528C 4722.96,1527.28 4722.29,1526.78 4721.5,1526.5 Z"/></g>
<g><path style="opacity:1" fill="#9e344c" d="M 4640.5,1526.5 C 4641.24,1526.37 4641.91,1526.54 4642.5,1527C 4640.33,1531.56 4639.66,1531.39 4640.5,1526.5 Z"/></g>
<g><path style="opacity:1" fill="#9e344c" d="M 4663.5,1526.5 C 4665.34,1526.64 4665.67,1527.31 4664.5,1528.5C 4663.7,1528.04 4663.37,1527.38 4663.5,1526.5 Z"/></g>
<g><path style="opacity:1" fill="#9e344c" d="M 4746.5,1529.5 C 4747.23,1528.07 4748.4,1527.07 4750,1526.5C 4752.52,1527.77 4755.02,1527.77 4757.5,1526.5C 4759.11,1527.32 4759.78,1528.65 4759.5,1530.5C 4755.48,1530.29 4751.65,1530.95 4748,1532.5C 4746.96,1531.76 4746.46,1530.76 4746.5,1529.5 Z"/></g>
<g><path style="opacity:1" fill="#9e344c" d="M 4766.5,1526.5 C 4767.74,1527.74 4767.4,1528.74 4765.5,1529.5C 4765.17,1529.17 4764.83,1528.83 4764.5,1528.5C 4765.24,1527.82 4765.91,1527.15 4766.5,1526.5 Z"/></g>
<g><path style="opacity:1" fill="#9e344c" d="M 4800.5,1527.5 C 4801.95,1526.39 4803.61,1526.22 4805.5,1527C 4803.98,1528.79 4802.31,1528.96 4800.5,1527.5 Z"/></g>
<g><path style="opacity:1" fill="#9e344c" d="M 4621.5,1527.5 C 4624.2,1527.66 4626.2,1528.83 4627.5,1531C 4626.31,1533.77 4625.31,1536.6 4624.5,1539.5C 4621.33,1539.43 4617.99,1538.93 4614.5,1538C 4614.17,1537.67 4613.83,1537.33 4613.5,1537C 4614.79,1536.51 4616.13,1536.34 4617.5,1536.5C 4617.34,1534.8 4617.51,1533.13 4618,1531.5C 4619.38,1530.29 4620.54,1528.96 4621.5,1527.5 Z"/></g>
<g><path style="opacity:1" fill="#9e344c" d="M 4737.5,1527.5 C 4738.55,1527.35 4739.55,1527.52 4740.5,1528C 4738.21,1529.29 4736.21,1530.96 4734.5,1533C 4728.19,1534 4727.86,1533 4733.5,1530C 4733.17,1529.67 4732.83,1529.33 4732.5,1529C 4733.74,1528.54 4734.58,1529.04 4735,1530.5C 4735.7,1529.31 4736.53,1528.31 4737.5,1527.5 Z"/></g>
<g><path style="opacity:1" fill="#9e344c" d="M 4746.5,1529.5 C 4745.55,1531.12 4744.22,1532.45 4742.5,1533.5C 4741.59,1532.67 4740.92,1531.67 4740.5,1530.5C 4741.27,1529.29 4742.11,1529.29 4743,1530.5C 4743.83,1529.5 4744.67,1528.5 4745.5,1527.5C 4746.3,1527.96 4746.63,1528.62 4746.5,1529.5 Z"/></g>
<g><path style="opacity:1" fill="#9e344c" d="M 4727.5,1528.5 C 4728.87,1528.34 4730.21,1528.51 4731.5,1529C 4729.56,1531.32 4727.23,1532.65 4724.5,1533C 4725.88,1531.73 4726.88,1530.23 4727.5,1528.5 Z"/></g>
<g><path style="opacity:1" fill="#9e344c" d="M 4788.5,1529.5 C 4790.31,1529.49 4791.98,1529.99 4793.5,1531C 4791.21,1532.29 4789.21,1533.96 4787.5,1536C 4778.89,1539.13 4770.22,1542.46 4761.5,1546C 4757.22,1550.28 4752.89,1554.61 4748.5,1559C 4744.46,1559.27 4740.96,1560.77 4738,1563.5C 4735.34,1562.38 4732.84,1561.71 4730.5,1561.5C 4731.34,1559.24 4732.68,1558.57 4734.5,1559.5C 4738.48,1558.49 4738.48,1557.49 4734.5,1556.5C 4736.02,1554.45 4736.85,1552.12 4737,1549.5C 4738.41,1548.21 4739.91,1547.05 4741.5,1546C 4746.37,1544.49 4751.03,1542.49 4755.5,1540C 4757.61,1538.74 4758.61,1536.9 4758.5,1534.5C 4766.17,1532.83 4773.84,1532.17 4781.5,1532.5C 4784.02,1531.67 4786.35,1530.67 4788.5,1529.5 Z"/></g>
<g><path style="opacity:1" fill="#9e344c" d="M 5043.5,1531.5 C 5044.85,1530.2 5046.18,1530.37 5047.5,1532C 5045.78,1532.45 5045.11,1533.28 5045.5,1534.5C 5043.7,1533.73 5043.03,1532.73 5043.5,1531.5 Z"/></g>
<g><path style="opacity:1" fill="#9e344c" d="M 4669.5,1531.5 C 4670.76,1531.46 4671.76,1531.96 4672.5,1533C 4671.23,1533.9 4670.23,1535.07 4669.5,1536.5C 4669.19,1535.11 4669.19,1533.45 4669.5,1531.5 Z"/></g>
<g><path style="opacity:1" fill="#9e344c" d="M 5162.5,1531.5 C 5163.65,1531.79 5164.32,1532.62 5164.5,1534C 5164.33,1534.83 5164.17,1535.67 5164,1536.5C 5163.39,1534.85 5162.89,1533.18 5162.5,1531.5 Z"/></g>
<g><path style="opacity:1" fill="#9e344c" d="M 4673.5,1534.5 C 4674.57,1535.25 4674.74,1536.25 4674,1537.5C 4673.52,1536.55 4673.35,1535.55 4673.5,1534.5 Z"/></g>
<g><path style="opacity:1" fill="#9e344c" d="M 4608.5,1536.5 C 4609.08,1535.23 4609.74,1535.23 4610.5,1536.5C 4610.03,1537.46 4609.36,1537.46 4608.5,1536.5 Z"/></g>
<g><path style="opacity:1" fill="#9e344c" d="M 5160.5,1553.5 C 5157.57,1552.11 5155.07,1550.11 5153,1547.5C 5152.68,1549.57 5151.84,1549.9 5150.5,1548.5C 5148.04,1546.67 5148.04,1545 5150.5,1543.5C 5151.8,1544.09 5152.63,1545.09 5153,1546.5C 5154.68,1545.4 5156.18,1545.73 5157.5,1547.5C 5158.09,1547.29 5158.59,1546.96 5159,1546.5C 5161.49,1548.47 5161.66,1550.31 5159.5,1552C 5160.06,1552.38 5160.39,1552.88 5160.5,1553.5 Z"/></g>
<g><path style="opacity:1" fill="#9e344c" d="M 4671.5,1545.5 C 4673.52,1546.62 4675.52,1546.62 4677.5,1545.5C 4679.99,1547.16 4682.16,1549.16 4684,1551.5C 4684.72,1550.55 4685.55,1550.38 4686.5,1551C 4687.78,1553.4 4689.61,1555.24 4692,1556.5C 4692.67,1557.17 4692.67,1557.83 4692,1558.5C 4689.78,1560.05 4687.28,1561.05 4684.5,1561.5C 4680.62,1558.14 4676.28,1555.31 4671.5,1553C 4659.6,1550.62 4659.6,1548.12 4671.5,1545.5 Z"/></g>
<g><path style="opacity:1" fill="#9e344c" d="M 5160.5,1553.5 C 5161.88,1554.57 5163.05,1555.91 5164,1557.5C 5164.73,1555.84 5165.89,1555.34 5167.5,1556C 5166.54,1560.06 5164.54,1560.56 5161.5,1557.5C 5160.75,1556.26 5160.42,1554.93 5160.5,1553.5 Z"/></g>
<g><path style="opacity:1" fill="#9e344c" d="M 4452.5,1561.5 C 4455.72,1561.98 4459.05,1561.98 4462.5,1561.5C 4461.83,1564.83 4461.17,1568.17 4460.5,1571.5C 4458.83,1571.5 4457.17,1571.5 4455.5,1571.5C 4455.5,1569.5 4455.5,1567.5 4455.5,1565.5C 4454.5,1565.5 4453.5,1565.5 4452.5,1565.5C 4452.5,1564.17 4452.5,1562.83 4452.5,1561.5 Z"/></g>
<g><path style="opacity:1" fill="#9e344c" d="M 4707.5,1563.5 C 4709.35,1563.27 4710.19,1563.94 4710,1565.5C 4705.9,1567.17 4705.06,1566.5 4707.5,1563.5 Z"/></g>
<g><path style="opacity:1" fill="#9e344c" d="M 4731.5,1563.5 C 4732.97,1566.1 4732.3,1568.27 4729.5,1570C 4727.1,1571.04 4724.77,1571.21 4722.5,1570.5C 4726.11,1568.87 4729.11,1566.54 4731.5,1563.5 Z"/></g>
<g><path style="opacity:1" fill="#9e344c" d="M 5159.5,1565.5 C 5162,1565.51 5162.17,1566.18 5160,1567.5C 5159.54,1566.91 5159.37,1566.24 5159.5,1565.5 Z"/></g>
</svg>
