<?xml version="1.0" encoding="UTF-8"?>
<!DOCTYPE svg PUBLIC "-//W3C//DTD SVG 1.1//EN" "http://www.w3.org/Graphics/SVG/1.1/DTD/svg11.dtd">
<svg xmlns="http://www.w3.org/2000/svg" version="1.1" width="5632px" height="2048px" style="shape-rendering:geometricPrecision; text-rendering:geometricPrecision; image-rendering:optimizeQuality; fill-rule:evenodd; clip-rule:evenodd" xmlns:xlink="http://www.w3.org/1999/xlink">
<g><path style="opacity:1" fill="#c91c1b" d="M 4469.5,1035.5 C 4464.67,1036.16 4462.83,1038.83 4464,1043.5C 4467.37,1047.85 4467.04,1051.85 4463,1055.5C 4459.7,1053.86 4457.03,1051.52 4455,1048.5C 4454.82,1045.4 4453.99,1042.4 4452.5,1039.5C 4449.96,1038.88 4447.46,1038.22 4445,1037.5C 4444.12,1033.45 4443.62,1029.12 4443.5,1024.5C 4444.66,1022.33 4446.49,1020.99 4449,1020.5C 4451.27,1022.21 4453.44,1024.05 4455.5,1026C 4460.83,1026.33 4466.17,1026.67 4471.5,1027C 4472.27,1030.03 4471.6,1032.86 4469.5,1035.5 Z"/></g>
<g><path style="opacity:1" fill="#eae9a1" d="M 4443.5,1024.5 C 4443.62,1029.12 4444.12,1033.45 4445,1037.5C 4447.46,1038.22 4449.96,1038.88 4452.5,1039.5C 4453.99,1042.4 4454.82,1045.4 4455,1048.5C 4457.03,1051.52 4459.7,1053.86 4463,1055.5C 4467.04,1051.85 4467.37,1047.85 4464,1043.5C 4462.83,1038.83 4464.67,1036.16 4469.5,1035.5C 4470.59,1037.36 4471.43,1039.36 4472,1041.5C 4473.36,1042.38 4474.86,1042.71 4476.5,1042.5C 4476.13,1045.02 4476.96,1047.02 4479,1048.5C 4482.09,1048.62 4485.26,1048.29 4488.5,1047.5C 4490,1048.08 4491.33,1048.92 4492.5,1050C 4489.17,1051.33 4485.83,1052.67 4482.5,1054C 4482.01,1056.49 4480.68,1058.32 4478.5,1059.5C 4476.94,1058.65 4475.44,1058.99 4474,1060.5C 4473.27,1058.84 4472.11,1058.34 4470.5,1059C 4473.09,1061.77 4472.75,1063.77 4469.5,1065C 4469.83,1065.33 4470.17,1065.67 4470.5,1066C 4468.9,1071.48 4465.24,1074.64 4459.5,1075.5C 4458.62,1081.29 4456.96,1086.79 4454.5,1092C 4456.53,1099.01 4460.69,1104.18 4467,1107.5C 4466.97,1111.69 4468.3,1115.35 4471,1118.5C 4477.29,1124.82 4483.62,1131.16 4490,1137.5C 4490.41,1137.04 4490.91,1136.71 4491.5,1136.5C 4492.89,1137.61 4494.06,1138.94 4495,1140.5C 4496.67,1139.66 4496.83,1140.16 4495.5,1142C 4498.09,1146.37 4501.26,1150.21 4505,1153.5C 4507.35,1160.72 4509.52,1168.05 4511.5,1175.5C 4510.8,1178.54 4510.47,1181.54 4510.5,1184.5C 4511.01,1187.74 4512.35,1190.58 4514.5,1193C 4512.77,1194.39 4511.44,1196.06 4510.5,1198C 4510.76,1199.26 4511.43,1200.26 4512.5,1201C 4509.74,1204.57 4509.07,1208.23 4510.5,1212C 4508.57,1213.69 4507.57,1215.86 4507.5,1218.5C 4506.13,1218.34 4504.79,1218.51 4503.5,1219C 4496.15,1224.78 4488.32,1229.95 4480,1234.5C 4479.29,1233.03 4478.12,1232.36 4476.5,1232.5C 4476.59,1229.4 4476.09,1229.07 4475,1231.5C 4474.03,1229.12 4473.36,1229.46 4473,1232.5C 4472.67,1231.5 4472.33,1230.5 4472,1229.5C 4471.26,1231.44 4471.42,1233.27 4472.5,1235C 4470.83,1235.33 4469.17,1235.67 4467.5,1236C 4469.62,1236.1 4471.29,1236.93 4472.5,1238.5C 4471.91,1239.8 4470.91,1240.63 4469.5,1241C 4470.45,1241.72 4470.62,1242.55 4470,1243.5C 4467.82,1242.07 4465.82,1240.4 4464,1238.5C 4463.33,1239.5 4463.33,1240.5 4464,1241.5C 4466.12,1242.62 4467.96,1244.12 4469.5,1246C 4467.44,1248.77 4465.27,1248.6 4463,1245.5C 4463.13,1247.42 4463.3,1249.42 4463.5,1251.5C 4459.49,1251.5 4455.82,1252.67 4452.5,1255C 4450.52,1261.02 4446.52,1263.69 4440.5,1263C 4441.91,1262.63 4442.91,1261.8 4443.5,1260.5C 4443.15,1259.3 4442.65,1259.3 4442,1260.5C 4441.97,1254.84 4442.3,1249.18 4443,1243.5C 4443.9,1242.3 4445.07,1241.47 4446.5,1241C 4444.32,1238.48 4441.82,1237.31 4439,1237.5C 4438.21,1236.26 4437.71,1234.92 4437.5,1233.5C 4437.5,1232.5 4437.5,1231.5 4437.5,1230.5C 4442.45,1231.32 4445.11,1229.32 4445.5,1224.5C 4446.83,1224.5 4448.17,1224.5 4449.5,1224.5C 4451.34,1230.64 4455.34,1232.64 4461.5,1230.5C 4463.97,1227.62 4464.64,1224.46 4463.5,1221C 4458.92,1219.84 4457.58,1217.01 4459.5,1212.5C 4461.86,1210.22 4464.36,1210.22 4467,1212.5C 4470.57,1211.24 4474.07,1209.9 4477.5,1208.5C 4476.44,1205.07 4475.44,1201.57 4474.5,1198C 4476.27,1196.56 4478.27,1195.56 4480.5,1195C 4481.86,1192.67 4483.69,1190.83 4486,1189.5C 4486.67,1187.17 4486.67,1184.83 4486,1182.5C 4481.88,1176.84 4481.38,1170.84 4484.5,1164.5C 4484.87,1159.72 4485.37,1155.05 4486,1150.5C 4484.58,1149.54 4483.08,1148.71 4481.5,1148C 4480.04,1144.92 4481.04,1142.92 4484.5,1142C 4479.76,1139.31 4475.43,1136.14 4471.5,1132.5C 4470.91,1128.46 4469.57,1124.79 4467.5,1121.5C 4466.45,1121.65 4465.45,1121.48 4464.5,1121C 4459.87,1116.38 4456.03,1111.21 4453,1105.5C 4451.67,1104.83 4450.33,1104.17 4449,1103.5C 4448.91,1100.99 4448.07,1098.83 4446.5,1097C 4440.27,1094.08 4434.6,1090.42 4429.5,1086C 4430.02,1085.05 4430.69,1084.22 4431.5,1083.5C 4430.29,1082.28 4430.29,1081.11 4431.5,1080C 4434.47,1079.1 4437.13,1079.6 4439.5,1081.5C 4440.76,1079.32 4442.26,1077.32 4444,1075.5C 4444.67,1074.5 4444.67,1073.5 4444,1072.5C 4441.79,1070.22 4439.29,1068.39 4436.5,1067C 4437.29,1065.91 4437.96,1064.75 4438.5,1063.5C 4436.15,1062.14 4433.82,1060.8 4431.5,1059.5C 4428.82,1059.75 4426.49,1060.75 4424.5,1062.5C 4421.95,1061.2 4419.28,1060.2 4416.5,1059.5C 4413.27,1055.98 4412.27,1051.98 4413.5,1047.5C 4412,1046.95 4410.33,1046.95 4408.5,1047.5C 4408.65,1046.45 4408.48,1045.45 4408,1044.5C 4404.85,1042.19 4402.68,1039.19 4401.5,1035.5C 4404.66,1029.47 4408.33,1029.47 4412.5,1035.5C 4414.5,1034 4416.34,1032.33 4418,1030.5C 4418.95,1031.02 4419.78,1031.69 4420.5,1032.5C 4421.33,1031.5 4422.17,1030.5 4423,1029.5C 4424.35,1031.02 4425.85,1032.35 4427.5,1033.5C 4428.83,1032.17 4430.17,1030.83 4431.5,1029.5C 4432.62,1030.83 4433.95,1031.33 4435.5,1031C 4438.74,1029.44 4441.4,1027.28 4443.5,1024.5 Z"/></g>
<g><path style="opacity:1" fill="#c34a49" d="M 4401.5,1035.5 C 4402.68,1039.19 4404.85,1042.19 4408,1044.5C 4408.48,1045.45 4408.65,1046.45 4408.5,1047.5C 4410.33,1046.95 4412,1046.95 4413.5,1047.5C 4412.27,1051.98 4413.27,1055.98 4416.5,1059.5C 4419.28,1060.2 4421.95,1061.2 4424.5,1062.5C 4426.49,1060.75 4428.82,1059.75 4431.5,1059.5C 4433.82,1060.8 4436.15,1062.14 4438.5,1063.5C 4437.96,1064.75 4437.29,1065.91 4436.5,1067C 4439.29,1068.39 4441.79,1070.22 4444,1072.5C 4444.67,1073.5 4444.67,1074.5 4444,1075.5C 4442.26,1077.32 4440.76,1079.32 4439.5,1081.5C 4437.13,1079.6 4434.47,1079.1 4431.5,1080C 4430.29,1081.11 4430.29,1082.28 4431.5,1083.5C 4430.69,1084.22 4430.02,1085.05 4429.5,1086C 4434.6,1090.42 4440.27,1094.08 4446.5,1097C 4448.07,1098.83 4448.91,1100.99 4449,1103.5C 4450.33,1104.17 4451.67,1104.83 4453,1105.5C 4456.03,1111.21 4459.87,1116.38 4464.5,1121C 4465.45,1121.48 4466.45,1121.65 4467.5,1121.5C 4469.57,1124.79 4470.91,1128.46 4471.5,1132.5C 4475.43,1136.14 4479.76,1139.31 4484.5,1142C 4481.04,1142.92 4480.04,1144.92 4481.5,1148C 4483.08,1148.71 4484.58,1149.54 4486,1150.5C 4485.37,1155.05 4484.87,1159.72 4484.5,1164.5C 4481.81,1167.18 4478.48,1168.85 4474.5,1169.5C 4472.23,1168.78 4470.39,1167.45 4469,1165.5C 4467.36,1167.55 4465.2,1168.55 4462.5,1168.5C 4463.17,1170.82 4463.33,1173.15 4463,1175.5C 4461.99,1176.34 4460.82,1176.67 4459.5,1176.5C 4458.24,1172.81 4458.24,1168.98 4459.5,1165C 4458.83,1159.95 4456.5,1155.95 4452.5,1153C 4454.1,1151.93 4455.1,1150.43 4455.5,1148.5C 4452.95,1146.56 4451.28,1144.06 4450.5,1141C 4448.62,1140.78 4446.95,1140.12 4445.5,1139C 4445.83,1138.67 4446.17,1138.33 4446.5,1138C 4444.76,1136.89 4443.42,1135.39 4442.5,1133.5C 4441.67,1128.53 4441.17,1123.53 4441,1118.5C 4439.31,1116.76 4438.14,1114.76 4437.5,1112.5C 4436.5,1112.5 4435.5,1112.5 4434.5,1112.5C 4432.83,1106.04 4428.67,1102.38 4422,1101.5C 4418.82,1102.5 4416.32,1104.5 4414.5,1107.5C 4412.55,1108.02 4410.88,1109.02 4409.5,1110.5C 4406.29,1108.93 4403.12,1107.26 4400,1105.5C 4396.19,1106.31 4393.19,1108.31 4391,1111.5C 4389.63,1109.3 4389.29,1106.97 4390,1104.5C 4392.13,1103.74 4393.8,1102.41 4395,1100.5C 4396.01,1093.84 4395.51,1087.34 4393.5,1081C 4395.65,1078.78 4398.31,1077.61 4401.5,1077.5C 4401.5,1076.17 4401.5,1074.83 4401.5,1073.5C 4395.16,1074.33 4388.82,1075.33 4382.5,1076.5C 4380.7,1076.42 4379.03,1075.92 4377.5,1075C 4375.67,1072.5 4373.5,1070.33 4371,1068.5C 4370.59,1068.96 4370.09,1069.29 4369.5,1069.5C 4368.39,1068.28 4368.22,1066.94 4369,1065.5C 4370.64,1062.69 4372.81,1060.36 4375.5,1058.5C 4376,1057.28 4376.33,1056.12 4376.5,1055C 4378.92,1053.37 4381.42,1051.87 4384,1050.5C 4384.81,1052.44 4385.31,1054.44 4385.5,1056.5C 4388.39,1056.04 4390.89,1056.71 4393,1058.5C 4393.33,1058.17 4393.67,1057.83 4394,1057.5C 4393.41,1055.24 4393.58,1052.9 4394.5,1050.5C 4393.65,1047.3 4392.65,1044.14 4391.5,1041C 4391.95,1038.96 4392.79,1037.13 4394,1035.5C 4394.31,1036.31 4394.81,1036.97 4395.5,1037.5C 4397.35,1035.59 4399.35,1034.92 4401.5,1035.5 Z"/></g>
<g><path style="opacity:1" fill="#eae9a1" d="M 4483.5,1054.5 C 4485.66,1055.05 4485.49,1056.05 4483,1057.5C 4482.53,1056.42 4482.7,1055.42 4483.5,1054.5 Z"/></g>
<g><path style="opacity:1" fill="#eae9a1" d="M 4475.5,1060.5 C 4477.33,1061.14 4477.67,1062.14 4476.5,1063.5C 4474.48,1062.87 4474.15,1061.87 4475.5,1060.5 Z"/></g>
<g><path style="opacity:1" fill="#877ec9" d="M 4484.5,1164.5 C 4481.38,1170.84 4481.88,1176.84 4486,1182.5C 4486.67,1184.83 4486.67,1187.17 4486,1189.5C 4483.69,1190.83 4481.86,1192.67 4480.5,1195C 4478.27,1195.56 4476.27,1196.56 4474.5,1198C 4475.44,1201.57 4476.44,1205.07 4477.5,1208.5C 4474.07,1209.9 4470.57,1211.24 4467,1212.5C 4464.36,1210.22 4461.86,1210.22 4459.5,1212.5C 4457.58,1217.01 4458.92,1219.84 4463.5,1221C 4464.64,1224.46 4463.97,1227.62 4461.5,1230.5C 4455.34,1232.64 4451.34,1230.64 4449.5,1224.5C 4448.17,1224.5 4446.83,1224.5 4445.5,1224.5C 4445.11,1229.32 4442.45,1231.32 4437.5,1230.5C 4437.5,1231.5 4437.5,1232.5 4437.5,1233.5C 4435.61,1232.95 4433.94,1231.95 4432.5,1230.5C 4429.41,1230.19 4426.41,1230.69 4423.5,1232C 4422.83,1231.33 4422.17,1230.67 4421.5,1230C 4425.45,1227.07 4425.45,1224.24 4421.5,1221.5C 4420.88,1223.96 4419.38,1225.62 4417,1226.5C 4415.77,1223.7 4415.1,1220.7 4415,1217.5C 4412.9,1214.39 4411.4,1211.05 4410.5,1207.5C 4416.41,1207.71 4419.74,1204.88 4420.5,1199C 4422.13,1199.2 4423.79,1199.2 4425.5,1199C 4427.11,1197.64 4428.61,1196.14 4430,1194.5C 4431.27,1197.22 4433.44,1198.56 4436.5,1198.5C 4436.5,1197.17 4436.5,1195.83 4436.5,1194.5C 4435.32,1194.72 4434.32,1194.39 4433.5,1193.5C 4432.36,1191.2 4431.03,1189.03 4429.5,1187C 4439.52,1186.83 4449.52,1186.33 4459.5,1185.5C 4460.36,1182.55 4460.36,1179.55 4459.5,1176.5C 4460.82,1176.67 4461.99,1176.34 4463,1175.5C 4463.33,1173.15 4463.17,1170.82 4462.5,1168.5C 4465.2,1168.55 4467.36,1167.55 4469,1165.5C 4470.39,1167.45 4472.23,1168.78 4474.5,1169.5C 4478.48,1168.85 4481.81,1167.18 4484.5,1164.5 Z"/></g>
<g><path style="opacity:1" fill="#877ec9" d="M 4406.5,1212.5 C 4407.53,1212.9 4407.69,1213.56 4407,1214.5C 4406.54,1213.91 4406.37,1213.24 4406.5,1212.5 Z"/></g>
<g><path style="opacity:1" fill="#877ec9" d="M 4427.5,1233.5 C 4428.5,1233.5 4429.5,1233.5 4430.5,1233.5C 4429.59,1240.07 4428.59,1240.07 4427.5,1233.5 Z"/></g>
</svg>
