<?xml version="1.0" encoding="UTF-8"?>
<!DOCTYPE svg PUBLIC "-//W3C//DTD SVG 1.1//EN" "http://www.w3.org/Graphics/SVG/1.1/DTD/svg11.dtd">
<svg xmlns="http://www.w3.org/2000/svg" version="1.1" width="5632px" height="2048px" style="shape-rendering:geometricPrecision; text-rendering:geometricPrecision; image-rendering:optimizeQuality; fill-rule:evenodd; clip-rule:evenodd" xmlns:xlink="http://www.w3.org/1999/xlink">
<g><path style="opacity:1" fill="#244b26" d="M 2696.5,419.5 C 2696.39,420.117 2696.06,420.617 2695.5,421C 2698.86,423.705 2702.2,426.372 2705.5,429C 2701.6,432.598 2701.93,435.931 2706.5,439C 2705.4,440.131 2705.73,440.965 2707.5,441.5C 2709.58,440.215 2711.58,439.882 2713.5,440.5C 2712.72,441.92 2711.72,442.754 2710.5,443C 2711.83,446 2713.17,449 2714.5,452C 2712.12,454.576 2712.29,456.743 2715,458.5C 2716.96,461.614 2716.63,464.28 2714,466.5C 2713.33,469.167 2712.67,471.833 2712,474.5C 2711.1,475.701 2709.93,476.535 2708.5,477C 2710.01,477.837 2710.51,479.004 2710,480.5C 2707.53,479.212 2705.03,479.212 2702.5,480.5C 2701.81,479.975 2701.31,479.308 2701,478.5C 2700.75,479.624 2700.25,480.624 2699.5,481.5C 2697.01,481.218 2694.35,481.218 2691.5,481.5C 2691.67,482.822 2691.34,483.989 2690.5,485C 2687.53,485.471 2684.86,486.638 2682.5,488.5C 2681.3,488.154 2681.3,487.654 2682.5,487C 2681.5,486.333 2680.5,486.333 2679.5,487C 2680.45,487.718 2680.62,488.551 2680,489.5C 2673.18,493.028 2666.02,494.694 2658.5,494.5C 2658.08,493.778 2657.42,493.278 2656.5,493C 2657.83,492.333 2659.17,491.667 2660.5,491C 2657.5,491.333 2654.5,491.667 2651.5,492C 2654.27,489.961 2657.27,488.295 2660.5,487C 2658.09,486.852 2655.76,487.352 2653.5,488.5C 2651.9,487.57 2650.4,487.57 2649,488.5C 2648.29,486.633 2648.79,485.133 2650.5,484C 2652.63,483.457 2654.63,482.624 2656.5,481.5C 2656.33,481.167 2656.17,480.833 2656,480.5C 2654.22,481.24 2652.38,481.907 2650.5,482.5C 2649.28,481.289 2648.11,481.289 2647,482.5C 2646.58,479.672 2647.91,478.339 2651,478.5C 2652.82,478.943 2654.66,479.277 2656.5,479.5C 2656.18,477.278 2656.84,475.444 2658.5,474C 2663.29,474.035 2667.63,472.702 2671.5,470C 2666.27,471.154 2660.94,471.82 2655.5,472C 2657.75,470.623 2659.92,469.123 2662,467.5C 2662.31,465.193 2663.14,463.026 2664.5,461C 2666.78,460.767 2668.78,459.934 2670.5,458.5C 2666.96,458.638 2663.29,458.305 2659.5,457.5C 2659.98,454.888 2659.15,454.888 2657,457.5C 2654.77,455.922 2652.61,454.256 2650.5,452.5C 2651.67,450.783 2653.34,450.116 2655.5,450.5C 2655.5,449.167 2655.5,447.833 2655.5,446.5C 2662.06,445.605 2662.06,444.605 2655.5,443.5C 2655.71,442.914 2656.04,442.414 2656.5,442C 2655,440.509 2654.16,438.676 2654,436.5C 2652.29,440.277 2651.62,440.277 2652,436.5C 2653.71,435.075 2655.05,435.408 2656,437.5C 2656.48,436.552 2656.65,435.552 2656.5,434.5C 2659.19,434.336 2661.85,434.503 2664.5,435C 2665.85,435.772 2666.68,436.939 2667,438.5C 2668.68,435.286 2671.18,434.619 2674.5,436.5C 2677.03,435.831 2677.03,434.998 2674.5,434C 2685.2,429.515 2684.53,427.182 2672.5,427C 2674.93,425.855 2677.26,424.522 2679.5,423C 2678.83,422.667 2678.17,422.333 2677.5,422C 2679.88,417.561 2683.38,415.728 2688,416.5C 2688.67,415.833 2689.33,415.167 2690,414.5C 2691.16,416.285 2691.83,418.285 2692,420.5C 2693.79,419.213 2693.95,417.713 2692.5,416C 2693.54,414.726 2694.7,413.56 2696,412.5C 2697.42,413.46 2698.92,414.293 2700.5,415C 2698.96,416.371 2697.63,417.871 2696.5,419.5 Z"/></g>
<g><path style="opacity:1" fill="#305a30" d="M 2713.5,440.5 C 2711.58,439.882 2709.58,440.215 2707.5,441.5C 2705.73,440.965 2705.4,440.131 2706.5,439C 2701.93,435.931 2701.6,432.598 2705.5,429C 2702.2,426.372 2698.86,423.705 2695.5,421C 2696.06,420.617 2696.39,420.117 2696.5,419.5C 2699.5,417.746 2702.83,416.58 2706.5,416C 2709.17,415.333 2711.83,415.333 2714.5,416C 2715.88,419.767 2718.21,422.767 2721.5,425C 2716.06,428.521 2716.23,429.021 2722,426.5C 2724.19,428.783 2724.86,431.449 2724,434.5C 2723.78,433.062 2723.28,431.729 2722.5,430.5C 2721.6,429.494 2720.94,429.494 2720.5,430.5C 2722.09,432.173 2722.75,434.173 2722.5,436.5C 2721.02,436.238 2719.69,436.571 2718.5,437.5C 2717.91,440.806 2716.25,441.806 2713.5,440.5 Z M 2707.5,426.5 C 2709.15,427.605 2710.82,427.771 2712.5,427C 2711.62,428.586 2710.62,430.086 2709.5,431.5C 2708.5,431 2707.5,430.5 2706.5,430C 2707.34,428.989 2707.67,427.822 2707.5,426.5 Z"/></g>
<g><path style="opacity:1" fill="#244b26" d="M 2650.5,441.5 C 2651.83,441.5 2653.17,441.5 2654.5,441.5C 2654.72,442.675 2654.39,443.675 2653.5,444.5C 2651.79,444.121 2650.79,443.121 2650.5,441.5 Z"/></g>
<g><path style="opacity:1" fill="#244b26" d="M 2658.5,494.5 C 2658.1,495.525 2657.44,495.692 2656.5,495C 2657.09,494.536 2657.76,494.369 2658.5,494.5 Z"/></g>
</svg>
