<?xml version="1.0" encoding="UTF-8"?>
<!DOCTYPE svg PUBLIC "-//W3C//DTD SVG 1.1//EN" "http://www.w3.org/Graphics/SVG/1.1/DTD/svg11.dtd">
<svg xmlns="http://www.w3.org/2000/svg" version="1.1" width="5632px" height="2048px" style="shape-rendering:geometricPrecision; text-rendering:geometricPrecision; image-rendering:optimizeQuality; fill-rule:evenodd; clip-rule:evenodd" xmlns:xlink="http://www.w3.org/1999/xlink">
<g><path style="opacity:1" fill="#547659" d="M 1060.5,778.5 C 1060.63,777.761 1060.46,777.094 1060,776.5C 1054.42,774.076 1053.25,770.243 1056.5,765C 1055.55,762.911 1055.55,760.911 1056.5,759C 1054.86,756.214 1053.36,753.381 1052,750.5C 1046.75,747.596 1041.75,744.262 1037,740.5C 1035.35,739.102 1034.02,739.436 1033,741.5C 1029.29,738.261 1025.13,735.761 1020.5,734C 1018.38,729.843 1015.21,726.676 1011,724.5C 1010.31,723.668 1010.48,723.002 1011.5,722.5C 1014.97,724.275 1018.47,724.942 1022,724.5C 1022.62,723.551 1022.45,722.718 1021.5,722C 1024.36,720.214 1025.03,717.881 1023.5,715C 1024.29,713.915 1024.96,712.748 1025.5,711.5C 1021.16,706.135 1016.5,700.969 1011.5,696C 1002.91,693.75 998.408,688.25 998,679.5C 997.085,678.672 996.419,677.672 996,676.5C 995.667,677.167 995.333,677.833 995,678.5C 994.667,676.167 994.333,673.833 994,671.5C 991.789,667.27 989.289,663.27 986.5,659.5C 985.686,657.234 985.186,654.9 985,652.5C 982.346,648.955 979.846,645.288 977.5,641.5C 990.119,639.17 1002.79,638.17 1015.5,638.5C 1013.98,640.156 1014.31,641.323 1016.5,642C 1034.27,648.055 1051.94,654.388 1069.5,661C 1085.5,661.5 1101.5,661.667 1117.5,661.5C 1117.5,658.833 1117.5,656.167 1117.5,653.5C 1124.81,653.383 1131.97,653.05 1139,652.5C 1143.55,653.019 1146.72,655.353 1148.5,659.5C 1154.54,665.035 1161.04,670.035 1168,674.5C 1170.9,680.559 1172.73,686.893 1173.5,693.5C 1180.48,696.069 1187.31,699.069 1194,702.5C 1195.75,701.042 1197.59,699.709 1199.5,698.5C 1200.76,695.885 1201.93,693.218 1203,690.5C 1204.42,689.54 1205.92,688.707 1207.5,688C 1211.16,688.711 1214.82,688.544 1218.5,687.5C 1219.94,687.719 1221.27,688.219 1222.5,689C 1226.15,692.93 1229.98,696.764 1234,700.5C 1236.06,705.62 1238.39,710.62 1241,715.5C 1243.95,717.373 1245.95,720.039 1247,723.5C 1248.44,724.87 1250.11,725.87 1252,726.5C 1253.17,730.046 1253.84,733.713 1254,737.5C 1256.3,740.226 1258.13,743.226 1259.5,746.5C 1264.11,748.139 1268.45,750.306 1272.5,753C 1277.04,753.147 1281.38,753.98 1285.5,755.5C 1289.09,753.433 1290.26,754.433 1289,758.5C 1285.72,764.323 1283.22,770.49 1281.5,777C 1282.95,778.713 1282.79,780.213 1281,781.5C 1280.65,787.847 1280.15,794.18 1279.5,800.5C 1281.02,804.491 1280.36,808.157 1277.5,811.5C 1278.65,815.43 1279.98,819.264 1281.5,823C 1280.37,824.016 1280.7,824.683 1282.5,825C 1280.91,827.48 1281.41,829.313 1284,830.5C 1285.1,829.616 1285.6,828.616 1285.5,827.5C 1286.58,829.792 1286.58,832.125 1285.5,834.5C 1287,838.162 1288.5,841.828 1290,845.5C 1296.32,850.652 1300.49,857.152 1302.5,865C 1305.23,868.059 1307.56,871.393 1309.5,875C 1311.89,875.287 1314.22,875.787 1316.5,876.5C 1317.17,876.167 1317.83,875.833 1318.5,875.5C 1323.58,878.106 1328.08,881.439 1332,885.5C 1338.57,884.332 1343.9,882.665 1348,880.5C 1351.51,882.537 1354.85,881.87 1358,878.5C 1358.33,878.833 1358.67,879.167 1359,879.5C 1362.08,877.174 1365.58,875.84 1369.5,875.5C 1370.95,876.655 1371.95,878.155 1372.5,880C 1374.17,880.667 1375.83,880.667 1377.5,880C 1379,878.748 1380.67,877.748 1382.5,877C 1380.39,876.094 1379.55,874.594 1380,872.5C 1383.27,870.892 1386.27,868.892 1389,866.5C 1389.33,864.167 1389.67,861.833 1390,859.5C 1391.34,858.096 1392.5,856.596 1393.5,855C 1393.17,854 1392.83,853 1392.5,852C 1392.87,846.706 1394.2,841.706 1396.5,837C 1404.1,833.546 1412.1,831.546 1420.5,831C 1422.85,829.036 1425.35,828.536 1428,829.5C 1428.69,828.643 1429.52,827.977 1430.5,827.5C 1435.98,830.566 1441.48,830.9 1447,828.5C 1449.52,830.371 1451.02,832.871 1451.5,836C 1450.34,840.511 1447.84,844.011 1444,846.5C 1442.83,848.333 1441.67,850.167 1440.5,852C 1441.55,853.388 1441.72,854.888 1441,856.5C 1439.17,857.667 1437.67,859.167 1436.5,861C 1438.14,862.951 1439.64,862.784 1441,860.5C 1441.85,863.49 1440.68,864.824 1437.5,864.5C 1437.35,865.552 1437.52,866.552 1438,867.5C 1438.72,866.549 1439.55,866.383 1440.5,867C 1438.8,872.235 1436.96,877.402 1435,882.5C 1432.35,880.57 1431.01,877.904 1431,874.5C 1429.92,875.665 1429.08,876.998 1428.5,878.5C 1426.43,879.134 1424.6,880.134 1423,881.5C 1422.19,884.446 1420.86,887.112 1419,889.5C 1417.24,887.339 1415.4,887.172 1413.5,889C 1403.84,889.5 1394.17,889.666 1384.5,889.5C 1384.5,892.833 1384.5,896.167 1384.5,899.5C 1382.71,899.215 1381.05,899.548 1379.5,900.5C 1382.03,904.632 1385.53,907.632 1390,909.5C 1390.95,911.455 1392.29,913.122 1394,914.5C 1394.67,915.5 1394.67,916.5 1394,917.5C 1387.42,919.116 1380.58,920.116 1373.5,920.5C 1371.17,924.5 1368.83,928.5 1366.5,932.5C 1368.92,934.94 1368.92,937.274 1366.5,939.5C 1367.94,941.343 1367.77,943.01 1366,944.5C 1357.05,934.258 1346.55,925.092 1334.5,917C 1332.19,917.155 1329.86,917.155 1327.5,917C 1326.47,913.389 1324.8,912.889 1322.5,915.5C 1322.71,916.086 1323.04,916.586 1323.5,917C 1315.74,920.924 1307.58,924.091 1299,926.5C 1294.98,925.478 1291.15,923.978 1287.5,922C 1282.88,922.271 1278.88,920.937 1275.5,918C 1270.87,917.61 1267.2,915.61 1264.5,912C 1259.42,911.416 1254.42,910.416 1249.5,909C 1244.45,906.091 1239.11,903.758 1233.5,902C 1226.76,898.634 1220.76,894.301 1215.5,889C 1213.76,888.349 1212.1,888.515 1210.5,889.5C 1204.15,887.324 1197.82,885.157 1191.5,883C 1187.97,877.133 1182.97,873.133 1176.5,871C 1176.83,870.667 1177.17,870.333 1177.5,870C 1174.25,869.75 1171.25,868.75 1168.5,867C 1163.24,861.81 1159.24,855.81 1156.5,849C 1156.64,848.228 1156.98,847.561 1157.5,847C 1163.02,846.975 1164.19,845.142 1161,841.5C 1160.09,842.654 1159.25,842.487 1158.5,841C 1161.43,839.081 1163.1,836.414 1163.5,833C 1161.17,829.75 1159,826.25 1157,822.5C 1156.97,818.232 1155.97,814.232 1154,810.5C 1147.21,804.714 1141.54,798.048 1137,790.5C 1133.17,787.333 1129.33,784.167 1125.5,781C 1125.83,780.667 1126.17,780.333 1126.5,780C 1124,778.92 1121.67,777.586 1119.5,776C 1120.55,774.612 1120.72,773.112 1120,771.5C 1119.72,774.742 1118.88,775.076 1117.5,772.5C 1117.98,771.522 1118.64,770.689 1119.5,770C 1114.64,768.402 1110.64,765.569 1107.5,761.5C 1106.78,762.311 1105.95,762.978 1105,763.5C 1102.98,761.149 1100.65,759.149 1098,757.5C 1097.88,753.747 1099.38,750.747 1102.5,748.5C 1101.2,746.063 1099.53,743.896 1097.5,742C 1096,741.493 1094.84,741.993 1094,743.5C 1091.47,741.431 1090.3,738.765 1090.5,735.5C 1088.01,735.702 1085.68,735.202 1083.5,734C 1081.36,731.624 1079.69,728.957 1078.5,726C 1079.17,725 1079.83,724 1080.5,723C 1077.44,722.18 1074.44,721.513 1071.5,721C 1065.87,715.057 1060.37,708.891 1055,702.5C 1054.83,705.871 1053.33,706.871 1050.5,705.5C 1048.9,702.493 1049.57,700.159 1052.5,698.5C 1053.19,699.025 1053.69,699.692 1054,700.5C 1054.49,699.207 1054.66,697.873 1054.5,696.5C 1053.5,696.5 1052.5,696.5 1051.5,696.5C 1049.99,692.303 1047.99,688.303 1045.5,684.5C 1045.71,683.914 1046.04,683.414 1046.5,683C 1045.22,679.5 1043.39,676.333 1041,673.5C 1040.87,670.486 1040.87,667.486 1041,664.5C 1038.31,663.287 1035.48,662.62 1032.5,662.5C 1032.66,659.06 1031,657.06 1027.5,656.5C 1026.15,658.184 1024.48,658.684 1022.5,658C 1020.28,656.267 1017.94,654.767 1015.5,653.5C 1013.43,653.824 1013.1,654.658 1014.5,656C 1011.51,661.406 1011.85,666.573 1015.5,671.5C 1015.94,676.269 1016.77,680.936 1018,685.5C 1022,688.833 1026,692.167 1030,695.5C 1032.15,698.126 1033.48,701.126 1034,704.5C 1034.41,704.043 1034.91,703.709 1035.5,703.5C 1036.52,704.853 1037.86,705.52 1039.5,705.5C 1039.69,707.564 1040.19,709.564 1041,711.5C 1042.01,712.337 1043.18,712.67 1044.5,712.5C 1044.65,715.443 1045.31,718.276 1046.5,721C 1046.36,721.772 1046.02,722.439 1045.5,723C 1047.32,725.49 1049.65,727.323 1052.5,728.5C 1053.15,730.115 1053.65,731.782 1054,733.5C 1056.39,735.267 1058.06,737.6 1059,740.5C 1059.33,739.833 1059.67,739.167 1060,738.5C 1065.35,743.205 1068.01,749.205 1068,756.5C 1068.79,759.583 1070.62,761.749 1073.5,763C 1073.17,763.333 1072.83,763.667 1072.5,764C 1073.72,765.648 1074.55,767.481 1075,769.5C 1076,770.833 1077,770.833 1078,769.5C 1079.88,770.313 1080.55,771.647 1080,773.5C 1079.67,773.167 1079.33,772.833 1079,772.5C 1075.99,778.814 1077.65,783.147 1084,785.5C 1084.33,784.5 1084.67,783.5 1085,782.5C 1086.9,784.53 1089.06,786.197 1091.5,787.5C 1092.19,789.465 1092.86,791.798 1093.5,794.5C 1097.49,794.652 1098.99,796.652 1098,800.5C 1096.38,802.5 1094.54,804.333 1092.5,806C 1091.17,806.667 1089.83,806.667 1088.5,806C 1087.13,802.21 1085.47,798.543 1083.5,795C 1076.37,788.502 1068.7,783.002 1060.5,778.5 Z"/></g>
<g><path style="opacity:1" fill="#547659" d="M 1032.5,692.5 C 1035.24,693.811 1037.4,695.811 1039,698.5C 1039.75,699.635 1039.58,700.635 1038.5,701.5C 1035.62,698.979 1033.62,695.979 1032.5,692.5 Z"/></g>
<g><path style="opacity:1" fill="#547659" d="M 1006.5,713.5 C 1008.44,715.011 1008.94,717.011 1008,719.5C 1007.25,718.874 1006.42,718.374 1005.5,718C 1006.38,716.644 1006.71,715.144 1006.5,713.5 Z"/></g>
<g><path style="opacity:1" fill="#547659" d="M 1070.5,753.5 C 1071.46,754.721 1071.3,756.054 1070,757.5C 1069.42,756.072 1069.59,754.738 1070.5,753.5 Z"/></g>
<g><path style="opacity:1" fill="#547659" d="M 1054.5,777.5 C 1055.08,776.227 1055.74,776.227 1056.5,777.5C 1056.03,778.463 1055.36,778.463 1054.5,777.5 Z"/></g>
<g><path style="opacity:1" fill="#547659" d="M 1060.5,778.5 C 1063.2,783.395 1062.53,783.728 1058.5,779.5C 1058.96,778.702 1059.62,778.369 1060.5,778.5 Z"/></g>
<g><path style="opacity:1" fill="#547659" d="M 1090.5,782.5 C 1091.27,783.172 1091.93,784.005 1092.5,785C 1090.94,785.188 1090.27,784.355 1090.5,782.5 Z"/></g>
<g><path style="opacity:1" fill="#547659" d="M 1143.5,829.5 C 1141.77,829.157 1141.27,828.157 1142,826.5C 1143.04,827.244 1143.54,828.244 1143.5,829.5 Z"/></g>
<g><path style="opacity:1" fill="#547659" d="M 1143.5,829.5 C 1145.34,829.639 1145.67,830.306 1144.5,831.5C 1143.7,831.043 1143.37,830.376 1143.5,829.5 Z"/></g>
<g><path style="opacity:1" fill="#547659" d="M 1448.5,845.5 C 1449.55,845.351 1450.55,845.517 1451.5,846C 1448.12,851.951 1447.12,851.784 1448.5,845.5 Z"/></g>
</svg>
