<?xml version="1.0" encoding="UTF-8"?>
<!DOCTYPE svg PUBLIC "-//W3C//DTD SVG 1.1//EN" "http://www.w3.org/Graphics/SVG/1.1/DTD/svg11.dtd">
<svg xmlns="http://www.w3.org/2000/svg" version="1.1" width="5632px" height="2048px" style="shape-rendering:geometricPrecision; text-rendering:geometricPrecision; image-rendering:optimizeQuality; fill-rule:evenodd; clip-rule:evenodd" xmlns:xlink="http://www.w3.org/1999/xlink">
<g><path style="opacity:1" fill="#c5ac81" d="M 2720.5,798.5 C 2722.22,800.364 2723.38,802.697 2724,805.5C 2726.46,806.958 2728.63,808.791 2730.5,811C 2732.8,811.658 2735.13,812.158 2737.5,812.5C 2741.3,811.313 2744.96,810.646 2748.5,810.5C 2750.38,811.093 2752.22,811.76 2754,812.5C 2755.75,811.373 2757.59,810.373 2759.5,809.5C 2760.43,810.689 2760.76,812.022 2760.5,813.5C 2764.5,813.5 2768.5,813.5 2772.5,813.5C 2771.85,817.876 2773.52,820.876 2777.5,822.5C 2776.14,824.306 2776.47,825.806 2778.5,827C 2778.62,831.438 2778.29,835.938 2777.5,840.5C 2779.31,845.67 2780.81,851.003 2782,856.5C 2783.54,858.378 2785.38,859.878 2787.5,861C 2785.55,862.734 2784.55,864.901 2784.5,867.5C 2777.17,867.952 2769.84,868.452 2762.5,869C 2758.4,873.983 2753.07,876.149 2746.5,875.5C 2747.42,877.881 2747.42,880.214 2746.5,882.5C 2749.34,883.004 2750.68,884.671 2750.5,887.5C 2747.73,887.421 2745.06,887.921 2742.5,889C 2735.33,895.409 2727.67,901.076 2719.5,906C 2715.23,907.03 2710.89,907.697 2706.5,908C 2705.83,909 2705.17,910 2704.5,911C 2701.46,911.32 2698.46,911.32 2695.5,911C 2689.04,914.4 2682.7,918.067 2676.5,922C 2674.85,923.733 2673.35,925.566 2672,927.5C 2671.5,935.159 2671.33,942.826 2671.5,950.5C 2672.87,950.343 2674.21,950.51 2675.5,951C 2693.66,963.671 2711.66,976.505 2729.5,989.5C 2720.86,990.498 2712.19,990.831 2703.5,990.5C 2701.97,994.59 2700.13,998.59 2698,1002.5C 2691.81,1008.36 2685.64,1014.19 2679.5,1020C 2670.12,1024.56 2664.45,1032.06 2662.5,1042.5C 2663.99,1048.14 2665.33,1053.81 2666.5,1059.5C 2666.29,1064.29 2664.63,1068.46 2661.5,1072C 2662.16,1074.77 2661.99,1077.61 2661,1080.5C 2655.49,1083.02 2649.99,1085.35 2644.5,1087.5C 2644.4,1090.36 2643.24,1092.69 2641,1094.5C 2640.5,1096.81 2640.34,1099.14 2640.5,1101.5C 2635.14,1101.71 2630.31,1103.38 2626,1106.5C 2626.84,1109.87 2627.34,1113.54 2627.5,1117.5C 2624.74,1122.52 2622.4,1127.69 2620.5,1133C 2616.88,1134.11 2613.21,1134.44 2609.5,1134C 2607.56,1130.17 2605.56,1126.34 2603.5,1122.5C 2600.73,1124.06 2598.39,1123.56 2596.5,1121C 2592.57,1120.94 2589.07,1119.77 2586,1117.5C 2583.62,1122.51 2580.62,1122.84 2577,1118.5C 2570.11,1118.79 2563.44,1120.79 2557,1124.5C 2555.37,1124.12 2553.87,1123.46 2552.5,1122.5C 2556.02,1113.75 2556.35,1104.91 2553.5,1096C 2553.83,1095.67 2554.17,1095.33 2554.5,1095C 2553.56,1091.21 2551.56,1088.05 2548.5,1085.5C 2549.5,1084.67 2550.5,1083.83 2551.5,1083C 2551.17,1082.67 2550.83,1082.33 2550.5,1082C 2551.96,1078.83 2552.96,1075.5 2553.5,1072C 2552,1069.3 2550.66,1066.47 2549.5,1063.5C 2548.37,1062.4 2547.54,1062.73 2547,1064.5C 2545.59,1061.34 2543.92,1058.34 2542,1055.5C 2541.02,1057.06 2540.19,1058.73 2539.5,1060.5C 2539.17,1060.33 2538.83,1060.17 2538.5,1060C 2540.05,1054.28 2541.22,1048.45 2542,1042.5C 2542.36,1040.58 2543.19,1038.91 2544.5,1037.5C 2546.52,1036.78 2548.18,1035.61 2549.5,1034C 2551.35,1028.82 2553.19,1023.66 2555,1018.5C 2555.97,1016.27 2557.3,1014.27 2559,1012.5C 2559.68,1011.22 2559.52,1010.05 2558.5,1009C 2563.47,1004.94 2568.3,1000.77 2573,996.5C 2574.13,992.251 2574.79,987.918 2575,983.5C 2577.08,979.263 2578.74,974.929 2580,970.5C 2585,966.833 2590,963.167 2595,959.5C 2596.97,952.768 2599.8,946.434 2603.5,940.5C 2611.9,939.234 2619.9,936.734 2627.5,933C 2631.03,927.133 2636.03,923.133 2642.5,921C 2645.79,916.923 2648.95,912.756 2652,908.5C 2656.07,903.622 2656.41,898.622 2653,893.5C 2652.33,888.5 2652.33,883.5 2653,878.5C 2654.89,873.954 2657.55,869.954 2661,866.5C 2661.33,863.833 2661.67,861.167 2662,858.5C 2665.93,854.976 2669.43,851.143 2672.5,847C 2681.69,843.265 2690.53,838.765 2699,833.5C 2705.74,823.785 2710.24,813.118 2712.5,801.5C 2715.64,801.397 2718.3,800.397 2720.5,798.5 Z"/></g>
<g><path style="opacity:1" fill="#c5ac81" d="M 2595.5,917.5 C 2596.57,918.251 2596.74,919.251 2596,920.5C 2594.33,921.833 2592.67,923.167 2591,924.5C 2589.77,923.725 2589.44,922.725 2590,921.5C 2591.98,920.251 2593.81,918.918 2595.5,917.5 Z"/></g>
<g><path style="opacity:1" fill="#c5ac81" d="M 2525.5,924.5 C 2526.83,924.5 2528.17,924.5 2529.5,924.5C 2528.62,932.314 2527.29,932.314 2525.5,924.5 Z"/></g>
<g><path style="opacity:1" fill="#c5ac81" d="M 2583.5,936.5 C 2584.79,932.581 2586.63,928.914 2589,925.5C 2591.25,931.252 2589.42,934.919 2583.5,936.5 Z"/></g>
<g><path style="opacity:1" fill="#c5ac81" d="M 2550.5,929.5 C 2554.3,929.819 2554.47,930.819 2551,932.5C 2547.73,941.344 2544.9,941.344 2542.5,932.5C 2545.83,932.982 2548.5,931.982 2550.5,929.5 Z"/></g>
<g><path style="opacity:1" fill="#c5ac81" d="M 2535.5,935.5 C 2539.63,936.051 2540.13,937.384 2537,939.5C 2535.81,938.437 2535.31,937.103 2535.5,935.5 Z"/></g>
<g><path style="opacity:1" fill="#c5ac81" d="M 2560.5,936.5 C 2566.55,935.942 2567.89,938.109 2564.5,943C 2562.89,943.72 2561.39,943.554 2560,942.5C 2559.51,940.455 2559.68,938.455 2560.5,936.5 Z"/></g>
<g><path style="opacity:1" fill="#c5ac81" d="M 2583.5,936.5 C 2583,938.085 2582,938.585 2580.5,938C 2581.24,936.961 2582.24,936.461 2583.5,936.5 Z"/></g>
<g><path style="opacity:1" fill="#c5ac81" d="M 2525.5,941.5 C 2526.8,942.849 2526.63,944.182 2525,945.5C 2521.86,943.894 2522.03,942.561 2525.5,941.5 Z"/></g>
<g><path style="opacity:1" fill="#c5ac81" d="M 2405.5,1119.5 C 2407.1,1119.31 2408.44,1119.81 2409.5,1121C 2407.83,1122.17 2406.17,1123.33 2404.5,1124.5C 2401.94,1122.36 2402.27,1120.7 2405.5,1119.5 Z"/></g>
<g><path style="opacity:1" fill="#c5ac81" d="M 2407.5,1125.5 C 2408.08,1124.23 2408.74,1124.23 2409.5,1125.5C 2409.03,1126.46 2408.36,1126.46 2407.5,1125.5 Z"/></g>
<g><path style="opacity:1" fill="#c5ac81" d="M 2441.5,1125.5 C 2442.53,1125.9 2442.69,1126.56 2442,1127.5C 2441.54,1126.91 2441.37,1126.24 2441.5,1125.5 Z"/></g>
<g><path style="opacity:1" fill="#c5ac81" d="M 2422.5,1129.5 C 2421.5,1129.41 2420.67,1129.75 2420,1130.5C 2419.25,1129.87 2418.42,1129.37 2417.5,1129C 2419.39,1128.22 2421.05,1128.39 2422.5,1129.5 Z"/></g>
<g><path style="opacity:1" fill="#c5ac81" d="M 2422.5,1129.5 C 2423.24,1129.37 2423.91,1129.54 2424.5,1130C 2423.56,1130.69 2422.9,1130.53 2422.5,1129.5 Z"/></g>
<g><path style="opacity:1" fill="#c5ac81" d="M 2442.5,1135.5 C 2445.17,1135.07 2446.33,1136.07 2446,1138.5C 2442.27,1140.07 2441.11,1139.07 2442.5,1135.5 Z"/></g>
<g><path style="opacity:1" fill="#c5ac81" d="M 2428.5,1150.5 C 2431.36,1152.02 2433.03,1154.36 2433.5,1157.5C 2429.2,1157.18 2427.53,1154.85 2428.5,1150.5 Z"/></g>
<g><path style="opacity:1" fill="#c5ac81" d="M 2437.5,1150.5 C 2439.97,1151.36 2440.14,1152.69 2438,1154.5C 2437.51,1153.21 2437.34,1151.87 2437.5,1150.5 Z"/></g>
<g><path style="opacity:1" fill="#c5ac81" d="M 2417.5,1155.5 C 2419,1155.41 2420,1156.08 2420.5,1157.5C 2419.17,1158.83 2417.83,1158.83 2416.5,1157.5C 2416.86,1156.82 2417.2,1156.15 2417.5,1155.5 Z"/></g>
</svg>
