<?xml version="1.0" encoding="UTF-8"?>
<!DOCTYPE svg PUBLIC "-//W3C//DTD SVG 1.1//EN" "http://www.w3.org/Graphics/SVG/1.1/DTD/svg11.dtd">
<svg xmlns="http://www.w3.org/2000/svg" version="1.1" width="5632px" height="2048px" style="shape-rendering:geometricPrecision; text-rendering:geometricPrecision; image-rendering:optimizeQuality; fill-rule:evenodd; clip-rule:evenodd" xmlns:xlink="http://www.w3.org/1999/xlink">
<g><path style="opacity:1" fill="#757c5d" d="M 3415.5,286.5 C 3418.95,287.172 3420.95,289.339 3421.5,293C 3420.3,297.43 3419.46,301.93 3419,306.5C 3414.9,307.856 3410.9,309.523 3407,311.5C 3406.44,313.562 3406.94,315.395 3408.5,317C 3408.01,318.982 3407.01,320.649 3405.5,322C 3406.02,322.561 3406.36,323.228 3406.5,324C 3405.55,326.158 3405.05,328.325 3405,330.5C 3408.91,331.869 3412.41,333.869 3415.5,336.5C 3423.31,337.201 3429.64,340.534 3434.5,346.5C 3438.03,344.824 3441.53,344.157 3445,344.5C 3446.3,346.365 3446.63,348.365 3446,350.5C 3444.76,353.819 3442.42,356.819 3439,359.5C 3438.83,360.5 3438.67,361.5 3438.5,362.5C 3440.36,365.147 3442.36,367.813 3444.5,370.5C 3455.12,371.377 3465.79,372.71 3476.5,374.5C 3476.18,378.44 3476.18,382.273 3476.5,386C 3475.59,388.903 3473.92,391.237 3471.5,393C 3472.83,393.667 3472.83,394.333 3471.5,395C 3469.89,395.72 3468.39,395.554 3467,394.5C 3465.84,395.995 3464.67,397.495 3463.5,399C 3466.05,401.047 3468.05,403.547 3469.5,406.5C 3468.58,408.13 3467.75,409.797 3467,411.5C 3462.07,413.807 3460.24,417.474 3461.5,422.5C 3464.09,423.48 3466.75,423.813 3469.5,423.5C 3469.38,426.893 3471.04,428.226 3474.5,427.5C 3476.81,427.635 3478.81,426.969 3480.5,425.5C 3481.91,426.668 3483.07,426.335 3484,424.5C 3490.09,426.424 3495.59,429.424 3500.5,433.5C 3501.45,433.013 3502.45,432.68 3503.5,432.5C 3505.55,434.194 3507.89,435.361 3510.5,436C 3511.03,439.163 3511.36,442.33 3511.5,445.5C 3515.39,447.532 3519.39,448.365 3523.5,448C 3524.73,449.529 3526.23,450.696 3528,451.5C 3528.51,452.996 3528.01,454.163 3526.5,455C 3527.86,456.584 3528.53,458.418 3528.5,460.5C 3532.24,461.07 3534.57,463.236 3535.5,467C 3541.5,468.314 3546.84,470.814 3551.5,474.5C 3553.78,475.223 3556.12,475.557 3558.5,475.5C 3558.92,483.562 3555.25,488.562 3547.5,490.5C 3546.42,491.365 3546.25,492.365 3547,493.5C 3549.76,493.489 3552.59,493.823 3555.5,494.5C 3556.73,496.398 3556.4,498.065 3554.5,499.5C 3554.87,500.902 3555.7,501.902 3557,502.5C 3561.2,503.751 3565.7,503.751 3570.5,502.5C 3570.58,503.93 3570.25,505.264 3569.5,506.5C 3572.13,507.803 3574.46,509.469 3576.5,511.5C 3573.56,512.773 3571.23,514.773 3569.5,517.5C 3568.13,515.876 3566.46,515.376 3564.5,516C 3565.45,520.233 3567.45,523.9 3570.5,527C 3569.79,528.425 3569.62,529.925 3570,531.5C 3568.19,533.396 3566.03,533.896 3563.5,533C 3559.92,528.418 3555.92,524.085 3551.5,520C 3549.83,519.333 3548.17,519.333 3546.5,520C 3545.39,521.57 3544.05,522.903 3542.5,524C 3543.51,527.95 3542.18,531.617 3538.5,535C 3539.36,535.689 3540.02,536.522 3540.5,537.5C 3539.75,539.332 3538.75,540.999 3537.5,542.5C 3539.23,544.228 3540.56,546.228 3541.5,548.5C 3539.46,550.276 3537.3,551.943 3535,553.5C 3534.41,554.899 3534.57,556.232 3535.5,557.5C 3534.83,558.5 3534.17,559.5 3533.5,560.5C 3536.61,563.56 3539.94,566.394 3543.5,569C 3543.04,569.414 3542.71,569.914 3542.5,570.5C 3543.7,573.138 3545.37,575.471 3547.5,577.5C 3549.19,575.744 3551.19,575.244 3553.5,576C 3557.16,577.002 3560.33,578.836 3563,581.5C 3565.83,586.677 3568.67,591.844 3571.5,597C 3570.35,598.726 3569.19,598.559 3568,596.5C 3564.87,598.414 3564.7,600.581 3567.5,603C 3570.18,603.778 3572.52,605.111 3574.5,607C 3573.55,607.483 3572.55,607.649 3571.5,607.5C 3571.72,611.527 3570.55,612.194 3568,609.5C 3563.98,614.394 3558.98,616.061 3553,614.5C 3551.23,620.043 3548.9,625.376 3546,630.5C 3542.77,633.13 3539.61,632.964 3536.5,630C 3531.42,629.827 3526.42,629.161 3521.5,628C 3513.71,623.105 3505.37,619.272 3496.5,616.5C 3494.45,610.891 3490.61,608.891 3485,610.5C 3481.83,608.16 3478.33,606.494 3474.5,605.5C 3471.3,609.558 3467.63,610.225 3463.5,607.5C 3459.98,610.891 3456.32,610.724 3452.5,607C 3455.56,605.818 3458.56,604.484 3461.5,603C 3461.38,599.878 3461.38,596.711 3461.5,593.5C 3458.64,592.136 3456.64,589.97 3455.5,587C 3458.07,585.429 3460.41,583.596 3462.5,581.5C 3461.96,579.729 3461.13,579.396 3460,580.5C 3459.26,579.426 3458.26,578.759 3457,578.5C 3454.57,579.786 3452.07,580.786 3449.5,581.5C 3445.52,580.667 3441.52,580.5 3437.5,581C 3435.33,577.5 3432.5,574.667 3429,572.5C 3427.85,565.784 3426.35,559.284 3424.5,553C 3426.33,549.904 3428.66,546.738 3431.5,543.5C 3431.3,541.027 3430.63,538.694 3429.5,536.5C 3426.98,538.071 3424.98,537.571 3423.5,535C 3416.17,533.671 3409.34,531.171 3403,527.5C 3401.39,528.101 3400.06,529.101 3399,530.5C 3397.76,528.462 3395.93,527.295 3393.5,527C 3391.63,523.799 3389.13,521.299 3386,519.5C 3385.46,516.83 3385.96,514.33 3387.5,512C 3386.85,510.013 3385.51,508.68 3383.5,508C 3384.74,506.513 3384.24,505.68 3382,505.5C 3377.34,508.082 3372.67,508.082 3368,505.5C 3366.13,507.951 3363.79,509.951 3361,511.5C 3359.67,510.167 3358.33,510.167 3357,511.5C 3355.71,509.915 3354.21,508.581 3352.5,507.5C 3344.12,512.298 3338.79,509.798 3336.5,500C 3336.76,498.739 3337.43,497.739 3338.5,497C 3337.69,496.692 3337.03,496.192 3336.5,495.5C 3337.26,494.281 3338.26,493.281 3339.5,492.5C 3338.58,490.02 3337.08,489.353 3335,490.5C 3332.78,486.973 3329.62,484.806 3325.5,484C 3329.57,480.821 3328.9,479.821 3323.5,481C 3321.65,482.999 3319.32,483.832 3316.5,483.5C 3313.99,483.712 3311.82,483.045 3310,481.5C 3309.51,482.793 3309.34,484.127 3309.5,485.5C 3307.33,485.682 3305.33,486.349 3303.5,487.5C 3298.39,485.503 3293.06,485.003 3287.5,486C 3286.95,486.925 3286.29,487.758 3285.5,488.5C 3282.89,484.842 3280.23,481.175 3277.5,477.5C 3276.17,474.833 3276.17,472.167 3277.5,469.5C 3279.98,466.768 3282.64,464.268 3285.5,462C 3284.98,459.07 3283.64,456.57 3281.5,454.5C 3281.55,451.335 3281.72,448.002 3282,444.5C 3285.77,443.455 3289.27,441.955 3292.5,440C 3291.64,437.132 3289.97,434.798 3287.5,433C 3288.72,431.562 3289.39,429.895 3289.5,428C 3288.06,421.834 3286.4,415.667 3284.5,409.5C 3281.75,410.341 3279.58,409.341 3278,406.5C 3277.67,406.833 3277.33,407.167 3277,407.5C 3275.91,406.707 3274.75,406.04 3273.5,405.5C 3271.71,406.877 3269.71,407.877 3267.5,408.5C 3266.5,408.167 3265.83,407.5 3265.5,406.5C 3266.25,405.264 3266.58,403.93 3266.5,402.5C 3263.47,401.423 3260.47,401.423 3257.5,402.5C 3255.85,401.352 3254.35,400.019 3253,398.5C 3250.79,399.749 3248.62,399.582 3246.5,398C 3249.85,396.323 3252.85,394.157 3255.5,391.5C 3252,388.277 3251.67,384.777 3254.5,381C 3252.49,379.209 3252.49,377.875 3254.5,377C 3251.44,374.399 3248.27,371.899 3245,369.5C 3244.92,366.916 3245.75,364.583 3247.5,362.5C 3245.32,360.65 3243.82,358.316 3243,355.5C 3234,354.832 3233.17,351.832 3240.5,346.5C 3239.79,343.352 3239.12,340.186 3238.5,337C 3241.57,334.71 3244.07,331.876 3246,328.5C 3246.67,327.167 3246.67,325.833 3246,324.5C 3243.63,322.151 3243.13,319.485 3244.5,316.5C 3245.42,318.756 3247.09,319.756 3249.5,319.5C 3249.5,318.167 3249.5,316.833 3249.5,315.5C 3252.14,316.263 3254.81,316.43 3257.5,316C 3258.46,313.372 3260.29,311.872 3263,311.5C 3267.04,312.344 3271.04,313.344 3275,314.5C 3275.83,314.167 3276.67,313.833 3277.5,313.5C 3276.09,312.194 3274.42,311.36 3272.5,311C 3273.57,310.261 3274.24,309.261 3274.5,308C 3274.1,305.663 3274.1,303.163 3274.5,300.5C 3277.92,300.026 3281.25,300.026 3284.5,300.5C 3286.67,304.176 3288.84,307.843 3291,311.5C 3292.73,312.576 3294.56,312.743 3296.5,312C 3296.17,311.667 3295.83,311.333 3295.5,311C 3298.48,308.307 3301.98,306.807 3306,306.5C 3306.41,308.41 3307.57,309.41 3309.5,309.5C 3312.57,308.977 3314.9,307.477 3316.5,305C 3316.01,303.416 3315.01,302.249 3313.5,301.5C 3319.51,300.298 3325.51,298.131 3331.5,295C 3332.44,291.284 3334.6,290.117 3338,291.5C 3342.4,290.289 3346.73,288.956 3351,287.5C 3354.46,288.244 3357.96,289.244 3361.5,290.5C 3364.13,289.622 3366.8,288.955 3369.5,288.5C 3369.35,289.552 3369.52,290.552 3370,291.5C 3372.87,292.666 3375.37,294.332 3377.5,296.5C 3380.96,297.291 3384.29,298.291 3387.5,299.5C 3390.52,298.325 3393.52,298.325 3396.5,299.5C 3400.63,298.082 3403.3,295.249 3404.5,291C 3408.27,289.441 3411.93,287.941 3415.5,286.5 Z M 3389.5,331.5 C 3397.14,336.569 3404.31,342.236 3411,348.5C 3410.97,350.417 3410.14,352.084 3408.5,353.5C 3409.83,356.849 3409.33,357.182 3407,354.5C 3405.04,355.453 3403.38,356.787 3402,358.5C 3400.98,357.109 3400.15,355.609 3399.5,354C 3395.87,353.18 3392.87,351.347 3390.5,348.5C 3390.87,347.098 3391.7,346.098 3393,345.5C 3394.44,346.148 3395.94,346.481 3397.5,346.5C 3397.83,340.837 3395.17,337.67 3389.5,337C 3391.89,335.203 3391.89,333.369 3389.5,331.5 Z"/></g>
</svg>
