<?xml version="1.0" encoding="UTF-8"?>
<!DOCTYPE svg PUBLIC "-//W3C//DTD SVG 1.1//EN" "http://www.w3.org/Graphics/SVG/1.1/DTD/svg11.dtd">
<svg xmlns="http://www.w3.org/2000/svg" version="1.1" width="5632px" height="2048px" style="shape-rendering:geometricPrecision; text-rendering:geometricPrecision; image-rendering:optimizeQuality; fill-rule:evenodd; clip-rule:evenodd" xmlns:xlink="http://www.w3.org/1999/xlink">
<g><path style="opacity:1" fill="#758884" d="M 3685.5,967.5 C 3688.37,969.542 3688.03,970.708 3684.5,971C 3686.83,973.79 3686.66,976.624 3684,979.5C 3682.07,976.436 3681.4,973.102 3682,969.5C 3683.55,969.989 3684.72,969.322 3685.5,967.5 Z"/></g>
<g><path style="opacity:1" fill="#758884" d="M 3682.5,984.5 C 3684.05,984.821 3684.71,985.821 3684.5,987.5C 3683.45,987.649 3682.45,987.483 3681.5,987C 3682.25,986.329 3682.59,985.496 3682.5,984.5 Z"/></g>
<g><path style="opacity:1" fill="#758884" d="M 3678.5,992.5 C 3680.48,992.383 3682.15,993.05 3683.5,994.5C 3684.48,994.023 3685.31,993.357 3686,992.5C 3688.68,998.514 3692.51,1003.68 3697.5,1008C 3705.8,1010.52 3714.13,1012.85 3722.5,1015C 3725.22,1020.22 3728.55,1025.06 3732.5,1029.5C 3734.49,1030.87 3736.66,1031.87 3739,1032.5C 3739.67,1034.17 3739.67,1035.83 3739,1037.5C 3736.51,1041.81 3734.01,1046.14 3731.5,1050.5C 3724.92,1054.31 3720.75,1059.97 3719,1067.5C 3717.64,1068.38 3716.14,1068.71 3714.5,1068.5C 3714.76,1067.02 3714.43,1065.69 3713.5,1064.5C 3712.01,1066.13 3710.51,1067.79 3709,1069.5C 3708.72,1073.18 3707.55,1076.51 3705.5,1079.5C 3706.71,1083.23 3707.71,1086.9 3708.5,1090.5C 3707.06,1092.4 3705.4,1092.73 3703.5,1091.5C 3698.2,1091.73 3693.7,1093.73 3690,1097.5C 3689.85,1101.61 3688.35,1105.11 3685.5,1108C 3680.9,1107.98 3676.24,1108.65 3671.5,1110C 3670.52,1111.98 3669.19,1113.64 3667.5,1115C 3668.78,1120.42 3666.62,1123.92 3661,1125.5C 3654.46,1122.53 3648.29,1123.36 3642.5,1128C 3633.64,1131.17 3628.8,1128 3628,1118.5C 3624,1113.17 3620,1107.83 3616,1102.5C 3615.83,1101 3615.67,1099.5 3615.5,1098C 3615.63,1096.02 3616.3,1094.35 3617.5,1093C 3633.76,1087.19 3650.09,1081.69 3666.5,1076.5C 3669.26,1065.62 3672.26,1054.78 3675.5,1044C 3674.2,1039.37 3672.04,1035.21 3669,1031.5C 3668.33,1028.83 3668.33,1026.17 3669,1023.5C 3672.35,1018.78 3674.02,1013.78 3674,1008.5C 3676.64,1008.16 3679.14,1007.66 3681.5,1007C 3679.02,1005.76 3677.68,1003.76 3677.5,1001C 3678.03,998.183 3678.36,995.35 3678.5,992.5 Z"/></g>
<g><path style="opacity:1" fill="#758884" d="M 3723.5,1067.5 C 3723.31,1065.9 3723.81,1064.56 3725,1063.5C 3725.77,1065.35 3725.27,1066.69 3723.5,1067.5 Z"/></g>
<g><path style="opacity:1" fill="#758884" d="M 3723.5,1067.5 C 3723.31,1069.2 3722.48,1070.53 3721,1071.5C 3720.09,1069.06 3720.92,1067.72 3723.5,1067.5 Z"/></g>
</svg>
