<?xml version="1.0" encoding="UTF-8"?>
<!DOCTYPE svg PUBLIC "-//W3C//DTD SVG 1.1//EN" "http://www.w3.org/Graphics/SVG/1.1/DTD/svg11.dtd">
<svg xmlns="http://www.w3.org/2000/svg" version="1.1" width="5632px" height="2048px" style="shape-rendering:geometricPrecision; text-rendering:geometricPrecision; image-rendering:optimizeQuality; fill-rule:evenodd; clip-rule:evenodd" xmlns:xlink="http://www.w3.org/1999/xlink">
<g><path style="opacity:1" fill="#e6dfa1" d="M 3242.5,548.5 C 3246.75,549.863 3250.92,551.53 3255,553.5C 3256.42,552.795 3257.76,552.461 3259,552.5C 3260.04,555.013 3261.37,557.347 3263,559.5C 3267.28,560.766 3270.78,563.266 3273.5,567C 3278.95,566.534 3283.95,568.034 3288.5,571.5C 3289.92,573.336 3291.09,575.336 3292,577.5C 3294.67,579.5 3297.33,581.5 3300,583.5C 3301.31,586.441 3302.81,589.274 3304.5,592C 3302.6,593.394 3302.26,595.227 3303.5,597.5C 3301.83,597.5 3300.17,597.5 3298.5,597.5C 3298.65,596.448 3298.48,595.448 3298,594.5C 3297.38,596.116 3296.38,597.449 3295,598.5C 3292.23,597.477 3289.39,597.477 3286.5,598.5C 3286.24,601.016 3285.41,603.35 3284,605.5C 3281.79,607.373 3279.96,609.54 3278.5,612C 3276.29,613.044 3273.95,613.71 3271.5,614C 3271.07,614.92 3270.74,615.753 3270.5,616.5C 3269.19,612.612 3268.19,612.778 3267.5,617C 3268.54,618.838 3269.54,620.671 3270.5,622.5C 3269.03,625.266 3268.2,628.266 3268,631.5C 3265.76,633.282 3263.26,633.782 3260.5,633C 3259.66,631.989 3259.33,630.822 3259.5,629.5C 3255.84,629.426 3255.17,630.426 3257.5,632.5C 3256.38,633.598 3256.38,634.765 3257.5,636C 3256.38,638.411 3254.88,640.578 3253,642.5C 3253,645.982 3252.83,649.316 3252.5,652.5C 3247.9,652.616 3244.06,650.949 3241,647.5C 3240.59,647.957 3240.09,648.291 3239.5,648.5C 3231.59,646.252 3223.59,646.085 3215.5,648C 3211.51,651.175 3207.17,653.675 3202.5,655.5C 3201.39,654.389 3200.06,653.722 3198.5,653.5C 3194.13,654.229 3189.63,654.562 3185,654.5C 3181.87,653.804 3178.87,652.804 3176,651.5C 3172.51,650.919 3168.84,650.919 3165,651.5C 3160.63,650.569 3160.46,649.069 3164.5,647C 3161.11,645.778 3158.44,643.611 3156.5,640.5C 3157.09,639.201 3158.09,638.368 3159.5,638C 3158.33,635.945 3156.66,635.278 3154.5,636C 3153.6,637.236 3152.43,638.07 3151,638.5C 3147.45,636.156 3143.62,634.489 3139.5,633.5C 3140.41,631.239 3140.74,629.072 3140.5,627C 3137.67,624.609 3134.5,622.776 3131,621.5C 3129.3,619.207 3128.64,616.873 3129,614.5C 3126.21,612.701 3124.04,610.367 3122.5,607.5C 3124.73,607.292 3126.9,607.292 3129,607.5C 3130.75,604.19 3133.25,603.19 3136.5,604.5C 3139.23,602.638 3140.23,600.305 3139.5,597.5C 3140.32,596.614 3141.32,596.281 3142.5,596.5C 3144.36,589.098 3147.86,582.431 3153,576.5C 3153.48,575.552 3153.65,574.552 3153.5,573.5C 3155.85,573.162 3158.19,572.662 3160.5,572C 3162.13,569.705 3164.29,568.205 3167,567.5C 3172.84,569.288 3178.5,570.622 3184,571.5C 3185.56,570.971 3187.06,570.304 3188.5,569.5C 3190.48,570.982 3192.32,572.649 3194,574.5C 3196.45,569.042 3200.45,565.375 3206,563.5C 3205.62,561.925 3205.79,560.425 3206.5,559C 3211.74,559.082 3216.74,560.249 3221.5,562.5C 3225.97,560.31 3230.64,559.643 3235.5,560.5C 3236.7,559.441 3237.36,558.107 3237.5,556.5C 3236.75,554.759 3236.42,553.092 3236.5,551.5C 3238.58,550.606 3240.58,549.606 3242.5,548.5 Z"/></g>
</svg>
