<?xml version="1.0" encoding="UTF-8"?>
<!DOCTYPE svg PUBLIC "-//W3C//DTD SVG 1.1//EN" "http://www.w3.org/Graphics/SVG/1.1/DTD/svg11.dtd">
<svg xmlns="http://www.w3.org/2000/svg" version="1.1" width="5632px" height="2048px" style="shape-rendering:geometricPrecision; text-rendering:geometricPrecision; image-rendering:optimizeQuality; fill-rule:evenodd; clip-rule:evenodd" xmlns:xlink="http://www.w3.org/1999/xlink">
<g><path style="opacity:1" fill="#a46c5f" d="M 2826.5,1098.5 C 2824.36,1096.46 2823.03,1093.96 2822.5,1091C 2817.41,1091.29 2812.41,1091.95 2807.5,1093C 2806.9,1091.37 2807.24,1089.71 2808.5,1088C 2806.65,1086.3 2804.82,1086.46 2803,1088.5C 2801.16,1094.04 2797.99,1098.54 2793.5,1102C 2792.22,1102.68 2791.05,1102.52 2790,1101.5C 2789.15,1104.9 2787.15,1107.23 2784,1108.5C 2784.2,1112.64 2782.37,1114.14 2778.5,1113C 2771.65,1100.94 2762.81,1099.44 2752,1108.5C 2751.15,1111.7 2749.65,1114.53 2747.5,1117C 2750.81,1120.31 2754.14,1123.64 2757.5,1127C 2753.36,1128.47 2750.53,1131.31 2749,1135.5C 2747.59,1136.79 2746.09,1137.95 2744.5,1139C 2747.45,1141.35 2748.45,1144.19 2747.5,1147.5C 2743.36,1146.62 2739.36,1146.62 2735.5,1147.5C 2733.06,1145.72 2730.39,1144.39 2727.5,1143.5C 2725.87,1144.05 2724.2,1144.38 2722.5,1144.5C 2723.26,1141.86 2723.43,1139.19 2723,1136.5C 2720.08,1134.29 2716.91,1132.45 2713.5,1131C 2711.47,1129.6 2711.14,1127.94 2712.5,1126C 2711.67,1125.17 2710.83,1124.33 2710,1123.5C 2707.76,1125.28 2705.26,1125.78 2702.5,1125C 2700.67,1121.16 2697.84,1120 2694,1121.5C 2688.14,1118.97 2681.98,1117.8 2675.5,1118C 2671.58,1116.53 2667.58,1115.36 2663.5,1114.5C 2662.71,1115.24 2662.05,1116.08 2661.5,1117C 2651.75,1121.62 2641.41,1124.45 2630.5,1125.5C 2629.21,1124.16 2628.37,1122.49 2628,1120.5C 2626.86,1115.58 2626.19,1110.91 2626,1106.5C 2630.31,1103.38 2635.14,1101.71 2640.5,1101.5C 2640.34,1099.14 2640.5,1096.81 2641,1094.5C 2643.24,1092.69 2644.4,1090.36 2644.5,1087.5C 2649.99,1085.35 2655.49,1083.02 2661,1080.5C 2661.99,1077.61 2662.16,1074.77 2661.5,1072C 2664.63,1068.46 2666.29,1064.29 2666.5,1059.5C 2665.33,1053.81 2663.99,1048.14 2662.5,1042.5C 2664.45,1032.06 2670.12,1024.56 2679.5,1020C 2685.64,1014.19 2691.81,1008.36 2698,1002.5C 2700.13,998.59 2701.97,994.59 2703.5,990.5C 2712.92,990.611 2722.25,990.444 2731.5,990C 2760.37,1009.93 2788.7,1030.6 2816.5,1052C 2822.53,1057.7 2828.2,1063.7 2833.5,1070C 2839.41,1072.46 2845.41,1074.79 2851.5,1077C 2852.83,1078.67 2852.83,1080.33 2851.5,1082C 2853.47,1085.01 2855.14,1088.17 2856.5,1091.5C 2846.25,1093.23 2836.25,1095.56 2826.5,1098.5 Z"/></g>
<g><path style="opacity:1" fill="#947c26" d="M 2826.5,1098.5 C 2822.83,1101.33 2819.67,1104.67 2817,1108.5C 2816.23,1113.34 2817.73,1117.34 2821.5,1120.5C 2824.17,1121.17 2826.83,1121.83 2829.5,1122.5C 2831.87,1129.7 2836.87,1133.2 2844.5,1133C 2847.5,1135.5 2850.84,1137.5 2854.5,1139C 2856.85,1140.69 2857.01,1142.52 2855,1144.5C 2853.4,1142.96 2851.57,1142.46 2849.5,1143C 2848.25,1145.66 2846.25,1147.49 2843.5,1148.5C 2842.53,1150.74 2842.19,1153.08 2842.5,1155.5C 2843.98,1155.24 2845.31,1155.57 2846.5,1156.5C 2847.09,1158.38 2847.76,1160.22 2848.5,1162C 2850.66,1162.08 2852.66,1162.24 2854.5,1162.5C 2853.52,1164.1 2853.35,1165.76 2854,1167.5C 2856,1169.5 2857.5,1171.84 2858.5,1174.5C 2860.43,1175.52 2862.43,1175.69 2864.5,1175C 2868.43,1170.88 2872.43,1170.88 2876.5,1175C 2875.96,1177.24 2874.8,1179.07 2873,1180.5C 2872.68,1183.54 2872.68,1186.54 2873,1189.5C 2870.37,1191.13 2868.04,1193.13 2866,1195.5C 2866.37,1202.6 2864.87,1209.1 2861.5,1215C 2863.54,1218.58 2864.87,1222.41 2865.5,1226.5C 2864.67,1229.88 2863.5,1233.21 2862,1236.5C 2860.85,1237.74 2859.51,1238.74 2858,1239.5C 2857.71,1241.04 2857.04,1242.38 2856,1243.5C 2852.56,1241.21 2848.89,1239.21 2845,1237.5C 2844.67,1234.83 2844.33,1232.17 2844,1229.5C 2843.17,1228.67 2842.33,1227.83 2841.5,1227C 2835.23,1225.51 2829.23,1223.35 2823.5,1220.5C 2821.62,1226.2 2818.12,1230.54 2813,1233.5C 2811.8,1231.59 2810.13,1230.26 2808,1229.5C 2807.67,1226.5 2807.33,1223.5 2807,1220.5C 2806.33,1219.75 2805.5,1219.41 2804.5,1219.5C 2803.46,1217.8 2803.46,1216.13 2804.5,1214.5C 2802.25,1213.76 2800.42,1212.42 2799,1210.5C 2798.39,1207.45 2796.89,1204.95 2794.5,1203C 2798.24,1201.78 2799.24,1199.45 2797.5,1196C 2799.48,1192.05 2798.31,1188.89 2794,1186.5C 2793.97,1184.82 2793.8,1183.32 2793.5,1182C 2791.53,1181.99 2789.53,1182.32 2787.5,1183C 2784.74,1186.23 2781.9,1189.39 2779,1192.5C 2776.87,1188.07 2773.7,1184.57 2769.5,1182C 2767.53,1181.5 2765.53,1181.34 2763.5,1181.5C 2763.33,1182.82 2763.66,1183.99 2764.5,1185C 2763.1,1185.59 2761.77,1185.43 2760.5,1184.5C 2759.01,1186.13 2757.51,1187.79 2756,1189.5C 2754.02,1188.18 2752.52,1188.68 2751.5,1191C 2749.31,1190.43 2747.31,1190.76 2745.5,1192C 2742.81,1195.84 2740.48,1199.84 2738.5,1204C 2732.87,1203.88 2728.03,1205.71 2724,1209.5C 2723.85,1213.55 2723.02,1217.39 2721.5,1221C 2722.75,1224.17 2722.75,1227.34 2721.5,1230.5C 2719.39,1231.39 2717.39,1232.56 2715.5,1234C 2714.21,1234.49 2712.87,1234.66 2711.5,1234.5C 2711.5,1233.17 2711.5,1231.83 2711.5,1230.5C 2710.01,1227.53 2708.51,1224.53 2707,1221.5C 2706.5,1219.97 2706.67,1218.47 2707.5,1217C 2706.97,1215.44 2706.3,1213.94 2705.5,1212.5C 2707.81,1208.35 2708.14,1204.01 2706.5,1199.5C 2706.88,1197.87 2707.54,1196.37 2708.5,1195C 2707.59,1193.21 2707.42,1191.38 2708,1189.5C 2713.46,1188.17 2718.96,1187 2724.5,1186C 2728,1183.17 2731.5,1180.33 2735,1177.5C 2735.48,1176.55 2735.65,1175.55 2735.5,1174.5C 2737.17,1174.5 2738.83,1174.5 2740.5,1174.5C 2743.57,1165.53 2745.91,1156.53 2747.5,1147.5C 2748.45,1144.19 2747.45,1141.35 2744.5,1139C 2746.09,1137.95 2747.59,1136.79 2749,1135.5C 2750.53,1131.31 2753.36,1128.47 2757.5,1127C 2754.14,1123.64 2750.81,1120.31 2747.5,1117C 2749.65,1114.53 2751.15,1111.7 2752,1108.5C 2762.81,1099.44 2771.65,1100.94 2778.5,1113C 2782.37,1114.14 2784.2,1112.64 2784,1108.5C 2787.15,1107.23 2789.15,1104.9 2790,1101.5C 2791.05,1102.52 2792.22,1102.68 2793.5,1102C 2797.99,1098.54 2801.16,1094.04 2803,1088.5C 2804.82,1086.46 2806.65,1086.3 2808.5,1088C 2807.24,1089.71 2806.9,1091.37 2807.5,1093C 2812.41,1091.95 2817.41,1091.29 2822.5,1091C 2823.03,1093.96 2824.36,1096.46 2826.5,1098.5 Z"/></g>
<g><path style="opacity:1" fill="#506c6f" d="M 2747.5,1147.5 C 2745.91,1156.53 2743.57,1165.53 2740.5,1174.5C 2738.83,1174.5 2737.17,1174.5 2735.5,1174.5C 2735.65,1175.55 2735.48,1176.55 2735,1177.5C 2731.5,1180.33 2728,1183.17 2724.5,1186C 2718.96,1187 2713.46,1188.17 2708,1189.5C 2707.42,1191.38 2707.59,1193.21 2708.5,1195C 2707.54,1196.37 2706.88,1197.87 2706.5,1199.5C 2708.14,1204.01 2707.81,1208.35 2705.5,1212.5C 2706.3,1213.94 2706.97,1215.44 2707.5,1217C 2706.67,1218.47 2706.5,1219.97 2707,1221.5C 2708.51,1224.53 2710.01,1227.53 2711.5,1230.5C 2707.41,1229.85 2704.08,1231.01 2701.5,1234C 2699.32,1234.87 2697.15,1235.7 2695,1236.5C 2691.66,1234.03 2687.83,1232.53 2683.5,1232C 2680.77,1229.7 2677.77,1227.87 2674.5,1226.5C 2673.06,1222.62 2673.73,1219.12 2676.5,1216C 2675.77,1214.23 2675.43,1212.4 2675.5,1210.5C 2673.5,1210.5 2671.5,1210.5 2669.5,1210.5C 2668.07,1205.66 2665.57,1201.33 2662,1197.5C 2661.04,1198.58 2660.21,1199.75 2659.5,1201C 2655.36,1203.41 2651.03,1205.24 2646.5,1206.5C 2645.17,1206.17 2643.83,1205.83 2642.5,1205.5C 2645.08,1202.39 2646.41,1199.06 2646.5,1195.5C 2642.12,1195.79 2637.79,1195.79 2633.5,1195.5C 2632.04,1197.42 2630.37,1198.09 2628.5,1197.5C 2627.97,1194.9 2627.8,1192.23 2628,1189.5C 2618.05,1183.26 2613.71,1174.26 2615,1162.5C 2614.63,1161.58 2614.13,1160.75 2613.5,1160C 2614.93,1159.53 2616.1,1158.7 2617,1157.5C 2619.48,1159.82 2621.81,1159.48 2624,1156.5C 2625.26,1151.62 2626.92,1146.95 2629,1142.5C 2633.13,1141.16 2633.96,1139 2631.5,1136C 2631.83,1135 2632.17,1134 2632.5,1133C 2630.89,1130.79 2630.22,1128.29 2630.5,1125.5C 2641.41,1124.45 2651.75,1121.62 2661.5,1117C 2662.05,1116.08 2662.71,1115.24 2663.5,1114.5C 2667.58,1115.36 2671.58,1116.53 2675.5,1118C 2681.98,1117.8 2688.14,1118.97 2694,1121.5C 2697.84,1120 2700.67,1121.16 2702.5,1125C 2705.26,1125.78 2707.76,1125.28 2710,1123.5C 2710.83,1124.33 2711.67,1125.17 2712.5,1126C 2711.14,1127.94 2711.47,1129.6 2713.5,1131C 2716.91,1132.45 2720.08,1134.29 2723,1136.5C 2723.43,1139.19 2723.26,1141.86 2722.5,1144.5C 2724.2,1144.38 2725.87,1144.05 2727.5,1143.5C 2730.39,1144.39 2733.06,1145.72 2735.5,1147.5C 2739.36,1146.62 2743.36,1146.62 2747.5,1147.5 Z"/></g>
<g><path style="opacity:1" fill="#bb7a4d" d="M 2804.5,1219.5 C 2801.92,1220.37 2799.42,1221.37 2797,1222.5C 2785.86,1221.55 2774.69,1221.22 2763.5,1221.5C 2763.33,1224.85 2763.5,1228.18 2764,1231.5C 2764.99,1236.53 2766.15,1241.53 2767.5,1246.5C 2767,1246.83 2766.5,1247.17 2766,1247.5C 2762.88,1245.39 2760.05,1242.89 2757.5,1240C 2755.3,1239.63 2753.14,1239.13 2751,1238.5C 2746.32,1239.29 2742.32,1241.29 2739,1244.5C 2733.91,1241.74 2729.74,1237.91 2726.5,1233C 2724.35,1232.9 2722.68,1232.07 2721.5,1230.5C 2722.75,1227.34 2722.75,1224.17 2721.5,1221C 2723.02,1217.39 2723.85,1213.55 2724,1209.5C 2728.03,1205.71 2732.87,1203.88 2738.5,1204C 2740.48,1199.84 2742.81,1195.84 2745.5,1192C 2747.31,1190.76 2749.31,1190.43 2751.5,1191C 2752.52,1188.68 2754.02,1188.18 2756,1189.5C 2757.51,1187.79 2759.01,1186.13 2760.5,1184.5C 2761.77,1185.43 2763.1,1185.59 2764.5,1185C 2763.66,1183.99 2763.33,1182.82 2763.5,1181.5C 2765.53,1181.34 2767.53,1181.5 2769.5,1182C 2773.7,1184.57 2776.87,1188.07 2779,1192.5C 2781.9,1189.39 2784.74,1186.23 2787.5,1183C 2789.53,1182.32 2791.53,1181.99 2793.5,1182C 2793.8,1183.32 2793.97,1184.82 2794,1186.5C 2798.31,1188.89 2799.48,1192.05 2797.5,1196C 2799.24,1199.45 2798.24,1201.78 2794.5,1203C 2796.89,1204.95 2798.39,1207.45 2799,1210.5C 2800.42,1212.42 2802.25,1213.76 2804.5,1214.5C 2803.46,1216.13 2803.46,1217.8 2804.5,1219.5 Z"/></g>
</svg>
