<?xml version="1.0" encoding="UTF-8"?>
<!DOCTYPE svg PUBLIC "-//W3C//DTD SVG 1.1//EN" "http://www.w3.org/Graphics/SVG/1.1/DTD/svg11.dtd">
<svg xmlns="http://www.w3.org/2000/svg" version="1.1" width="5632px" height="2048px" style="shape-rendering:geometricPrecision; text-rendering:geometricPrecision; image-rendering:optimizeQuality; fill-rule:evenodd; clip-rule:evenodd" xmlns:xlink="http://www.w3.org/1999/xlink">
<g><path style="opacity:1" fill="#6c372c" d="M 2564.5,1470.5 C 2570.32,1470.86 2572.32,1473.69 2570.5,1479C 2568.63,1479.71 2567.13,1479.21 2566,1477.5C 2564.17,1475.27 2563.67,1472.93 2564.5,1470.5 Z"/></g>
<g><path style="opacity:1" fill="#70755b" d="M 3010.5,1492.5 C 3029.18,1492.17 3047.85,1492.5 3066.5,1493.5C 3068.65,1499.34 3070.48,1505.34 3072,1511.5C 3075.23,1516.41 3078.07,1521.58 3080.5,1527C 3089.82,1525.72 3099.15,1525.22 3108.5,1525.5C 3109.37,1520.82 3110.37,1516.15 3111.5,1511.5C 3115.18,1511.67 3118.85,1511.5 3122.5,1511C 3124.48,1509.17 3126.81,1508.34 3129.5,1508.5C 3129.71,1510.14 3129.38,1511.64 3128.5,1513C 3129.33,1513.91 3130.33,1514.58 3131.5,1515C 3136.15,1515.5 3140.82,1515.67 3145.5,1515.5C 3145.33,1521.96 3146,1528.29 3147.5,1534.5C 3146.78,1539.5 3146.61,1544.5 3147,1549.5C 3148.29,1551.79 3149.96,1553.79 3152,1555.5C 3152.78,1560.89 3152.62,1566.22 3151.5,1571.5C 3152.04,1573.66 3152.87,1575.66 3154,1577.5C 3156.07,1575.03 3158.73,1573.7 3162,1573.5C 3166.94,1574.19 3171.77,1574.19 3176.5,1573.5C 3178.06,1573.28 3179.39,1572.61 3180.5,1571.5C 3181.35,1574.46 3182.02,1577.46 3182.5,1580.5C 3181.15,1582.41 3180.48,1584.58 3180.5,1587C 3181.34,1592.81 3181.34,1598.64 3180.5,1604.5C 3170.5,1604.5 3160.5,1604.5 3150.5,1604.5C 3150.33,1622.84 3150.5,1641.17 3151,1659.5C 3152.69,1661.24 3153.86,1663.24 3154.5,1665.5C 3157.9,1667.71 3161.23,1670.21 3164.5,1673C 3164.17,1673.33 3163.83,1673.67 3163.5,1674C 3165.64,1675.31 3167.64,1676.81 3169.5,1678.5C 3170.48,1681.09 3170.81,1683.75 3170.5,1686.5C 3163.74,1687.08 3157.08,1688.25 3150.5,1690C 3144.84,1690.5 3139.18,1690.67 3133.5,1690.5C 3133.5,1710.5 3133.5,1730.5 3133.5,1750.5C 3128.17,1750.5 3122.83,1750.5 3117.5,1750.5C 3117.62,1786.86 3117.62,1823.19 3117.5,1859.5C 3112.27,1861.76 3107.6,1864.76 3103.5,1868.5C 3098.17,1866.6 3092.84,1866.93 3087.5,1869.5C 3083.99,1868.22 3080.65,1866.55 3077.5,1864.5C 3076.25,1862.96 3076.25,1861.46 3077.5,1860C 3075.01,1858.51 3072.85,1856.68 3071,1854.5C 3069.02,1856.36 3067.85,1858.69 3067.5,1861.5C 3065.58,1862.71 3063.74,1864.04 3062,1865.5C 3058.65,1861.98 3055.15,1858.65 3051.5,1855.5C 3047.07,1849.9 3044.24,1843.56 3043,1836.5C 3040.37,1834.49 3040.2,1832.49 3042.5,1830.5C 3041.17,1828.17 3039.83,1825.83 3038.5,1823.5C 3038.83,1822.83 3039.17,1822.17 3039.5,1821.5C 3037.96,1817.15 3036.96,1812.65 3036.5,1808C 3036.83,1807 3037.17,1806 3037.5,1805C 3034.57,1799.56 3032.57,1793.73 3031.5,1787.5C 3031.62,1786.11 3031.95,1784.77 3032.5,1783.5C 3030.53,1779.27 3029.86,1774.94 3030.5,1770.5C 3032.23,1767.69 3032.73,1764.69 3032,1761.5C 3026.12,1753.57 3020.79,1745.24 3016,1736.5C 3011.48,1724.47 3006.15,1712.8 3000,1701.5C 2988.35,1691.25 2985.18,1678.58 2990.5,1663.5C 2990,1659.46 2989.33,1655.46 2988.5,1651.5C 2990.71,1650.94 2992.21,1649.6 2993,1647.5C 2994.44,1640.52 2996.27,1633.68 2998.5,1627C 2998.26,1626.13 2997.93,1625.29 2997.5,1624.5C 3000.03,1620.86 3001.03,1617.03 3000.5,1613C 3002.31,1610.19 3004.48,1607.69 3007,1605.5C 3008,1601.3 3010.66,1598.64 3015,1597.5C 3019.77,1590.67 3021.93,1583.01 3021.5,1574.5C 3021.67,1572.31 3021.01,1570.47 3019.5,1569C 3020.03,1566.86 3019.2,1565.03 3017,1563.5C 3013.95,1556.67 3011.12,1549.84 3008.5,1543C 3009.64,1540.69 3011.31,1538.86 3013.5,1537.5C 3014.65,1534.89 3014.82,1532.23 3014,1529.5C 3010.35,1522.88 3007.68,1515.88 3006,1508.5C 3002.35,1504.86 2999.52,1500.69 2997.5,1496C 3002.16,1495.59 3006.49,1494.42 3010.5,1492.5 Z"/></g>
<g><path style="opacity:1" fill="#6c372c" d="M 2721.5,1645.5 C 2723.17,1645.5 2724.83,1645.5 2726.5,1645.5C 2727.95,1647.82 2728.61,1650.15 2728.5,1652.5C 2727.02,1653.48 2725.69,1654.65 2724.5,1656C 2723.55,1656.62 2722.72,1656.45 2722,1655.5C 2720.14,1657.67 2717.97,1658.01 2715.5,1656.5C 2714.37,1654.93 2714.2,1653.26 2715,1651.5C 2716.87,1649.15 2719.04,1647.15 2721.5,1645.5 Z"/></g>
</svg>
