<?xml version="1.0" encoding="UTF-8"?>
<!DOCTYPE svg PUBLIC "-//W3C//DTD SVG 1.1//EN" "http://www.w3.org/Graphics/SVG/1.1/DTD/svg11.dtd">
<svg xmlns="http://www.w3.org/2000/svg" version="1.1" width="5632px" height="2048px" style="shape-rendering:geometricPrecision; text-rendering:geometricPrecision; image-rendering:optimizeQuality; fill-rule:evenodd; clip-rule:evenodd" xmlns:xlink="http://www.w3.org/1999/xlink">
<g><path style="opacity:1" fill="#a83231" d="M 2937.5,576.5 C 2939.99,576.329 2941.83,577.329 2943,579.5C 2945.04,578.715 2947.04,579.048 2949,580.5C 2951.58,577.975 2953.75,578.475 2955.5,582C 2953.11,582.691 2953.11,583.691 2955.5,585C 2952.09,585.967 2951.59,587.8 2954,590.5C 2956.88,591.689 2959.71,593.022 2962.5,594.5C 2964.26,593.872 2965.76,592.872 2967,591.5C 2968.14,593.679 2968.98,596.012 2969.5,598.5C 2968.08,599.547 2966.58,599.547 2965,598.5C 2963.57,598.93 2962.4,599.764 2961.5,601C 2964.06,602.258 2964.72,604.091 2963.5,606.5C 2962.17,605.01 2960.67,603.676 2959,602.5C 2957.91,603.293 2956.75,603.96 2955.5,604.5C 2954.17,603.167 2952.83,601.833 2951.5,600.5C 2950.65,604.158 2948.65,607.492 2945.5,610.5C 2946.59,611.609 2946.59,612.609 2945.5,613.5C 2944.05,612.15 2943.38,610.484 2943.5,608.5C 2939.55,607.885 2937.22,605.552 2936.5,601.5C 2934.83,602.833 2933.17,604.167 2931.5,605.5C 2931.83,606.167 2932.17,606.833 2932.5,607.5C 2930.98,609.185 2929.32,610.685 2927.5,612C 2924.88,611.528 2922.38,611.361 2920,611.5C 2919,612.167 2918,612.833 2917,613.5C 2915.12,610.967 2913.29,608.467 2911.5,606C 2912.38,604.2 2913.05,602.367 2913.5,600.5C 2909.09,598.861 2905.42,599.861 2902.5,603.5C 2903.25,604.736 2903.58,606.07 2903.5,607.5C 2901.71,607.785 2900.05,607.452 2898.5,606.5C 2900.54,605.497 2900.88,604.163 2899.5,602.5C 2901.89,599.281 2904.06,595.947 2906,592.5C 2909.48,590.18 2912.65,587.513 2915.5,584.5C 2914.97,583.808 2914.31,583.308 2913.5,583C 2913.83,582.667 2914.17,582.333 2914.5,582C 2916.11,581.885 2917.61,582.385 2919,583.5C 2921.53,581.9 2924.2,580.567 2927,579.5C 2928.67,580.833 2930.33,580.833 2932,579.5C 2934.05,581.787 2936.21,581.954 2938.5,580C 2935.29,579.073 2934.96,577.907 2937.5,576.5 Z"/></g>
</svg>
