<?xml version="1.0" encoding="UTF-8"?>
<!DOCTYPE svg PUBLIC "-//W3C//DTD SVG 1.1//EN" "http://www.w3.org/Graphics/SVG/1.1/DTD/svg11.dtd">
<svg xmlns="http://www.w3.org/2000/svg" version="1.1" width="5632px" height="2048px" style="shape-rendering:geometricPrecision; text-rendering:geometricPrecision; image-rendering:optimizeQuality; fill-rule:evenodd; clip-rule:evenodd" xmlns:xlink="http://www.w3.org/1999/xlink">
<g><path style="opacity:1" fill="#575e64" d="M 3369.5,596.5 C 3368.05,595.175 3368.38,594.342 3370.5,594C 3368.65,591.982 3366.65,590.149 3364.5,588.5C 3362.58,588.106 3360.74,588.773 3359,590.5C 3357.67,588.331 3356.01,587.998 3354,589.5C 3352.34,588.516 3350.68,587.516 3349,586.5C 3348,587.833 3347,587.833 3346,586.5C 3341.95,589.711 3338.12,589.711 3334.5,586.5C 3335.45,584.38 3336.95,582.714 3339,581.5C 3340.34,582.214 3341.68,581.88 3343,580.5C 3344.33,581.833 3345.67,581.833 3347,580.5C 3349.59,584.31 3352.42,584.477 3355.5,581C 3354.46,579.082 3353.29,577.249 3352,575.5C 3350.45,579.863 3347.95,580.53 3344.5,577.5C 3342.75,579.531 3340.75,579.865 3338.5,578.5C 3333.4,579.88 3331.73,582.88 3333.5,587.5C 3331.51,588.934 3329.84,590.768 3328.5,593C 3323.02,592.911 3318.35,594.744 3314.5,598.5C 3312.07,598.352 3309.4,598.186 3306.5,598C 3306.17,593.485 3304.84,589.318 3302.5,585.5C 3296.78,581.779 3292.11,577.112 3288.5,571.5C 3283.95,568.034 3278.95,566.534 3273.5,567C 3270.95,563.428 3267.61,561.095 3263.5,560C 3261.81,557.586 3260.31,555.086 3259,552.5C 3257.76,552.461 3256.42,552.795 3255,553.5C 3251.33,551.833 3247.67,550.167 3244,548.5C 3242.53,548.903 3241.19,549.57 3240,550.5C 3238.76,549.664 3237.59,549.997 3236.5,551.5C 3236.42,553.092 3236.75,554.759 3237.5,556.5C 3237.23,560.13 3235.56,561.13 3232.5,559.5C 3228.02,560.354 3223.69,561.187 3219.5,562C 3217.91,560.954 3216.41,559.787 3215,558.5C 3213.93,554.465 3212.77,550.465 3211.5,546.5C 3211.98,545.522 3212.64,544.689 3213.5,544C 3211.37,542.143 3210.87,539.977 3212,537.5C 3208.14,536.82 3204.97,534.986 3202.5,532C 3202.83,531.667 3203.17,531.333 3203.5,531C 3199.8,528.814 3196.47,526.147 3193.5,523C 3189.63,520.76 3185.63,518.927 3181.5,517.5C 3181.66,516.127 3181.49,514.793 3181,513.5C 3177.44,510.983 3175.6,507.816 3175.5,504C 3174.73,501.393 3174.06,498.727 3173.5,496C 3175.53,490.555 3173.86,486.722 3168.5,484.5C 3168.83,483.5 3169.5,482.833 3170.5,482.5C 3173.76,484.763 3177.1,484.93 3180.5,483C 3183.18,480.661 3186.18,478.828 3189.5,477.5C 3189.29,476.914 3188.96,476.414 3188.5,476C 3190.02,474.315 3191.68,472.815 3193.5,471.5C 3195.53,474.223 3197.2,477.223 3198.5,480.5C 3201.03,481.132 3203.36,482.132 3205.5,483.5C 3207.43,482.939 3209.43,482.773 3211.5,483C 3213.68,481.485 3215.84,479.985 3218,478.5C 3226.93,482.835 3236.09,483.169 3245.5,479.5C 3251.16,481.01 3256.83,481.677 3262.5,481.5C 3266.57,478.755 3271.07,477.088 3276,476.5C 3279.41,480.328 3282.58,484.328 3285.5,488.5C 3286.29,487.758 3286.95,486.925 3287.5,486C 3293.06,485.003 3298.39,485.503 3303.5,487.5C 3305.33,486.349 3307.33,485.682 3309.5,485.5C 3309.34,484.127 3309.51,482.793 3310,481.5C 3311.82,483.045 3313.99,483.712 3316.5,483.5C 3319.32,483.832 3321.65,482.999 3323.5,481C 3328.9,479.821 3329.57,480.821 3325.5,484C 3329.62,484.806 3332.78,486.973 3335,490.5C 3337.08,489.353 3338.58,490.02 3339.5,492.5C 3338.26,493.281 3337.26,494.281 3336.5,495.5C 3337.03,496.192 3337.69,496.692 3338.5,497C 3337.43,497.739 3336.76,498.739 3336.5,500C 3338.79,509.798 3344.12,512.298 3352.5,507.5C 3354.21,508.581 3355.71,509.915 3357,511.5C 3358.33,510.167 3359.67,510.167 3361,511.5C 3363.79,509.951 3366.13,507.951 3368,505.5C 3372.67,508.082 3377.34,508.082 3382,505.5C 3384.24,505.68 3384.74,506.513 3383.5,508C 3385.51,508.68 3386.85,510.013 3387.5,512C 3385.96,514.33 3385.46,516.83 3386,519.5C 3389.13,521.299 3391.63,523.799 3393.5,527C 3395.93,527.295 3397.76,528.462 3399,530.5C 3400.06,529.101 3401.39,528.101 3403,527.5C 3409.34,531.171 3416.17,533.671 3423.5,535C 3424.98,537.571 3426.98,538.071 3429.5,536.5C 3433.09,542.55 3431.76,547.05 3425.5,550C 3426.81,551.395 3426.48,552.395 3424.5,553C 3424.55,557.5 3425.89,561.833 3428.5,566C 3427.14,568.264 3427.31,570.43 3429,572.5C 3432.72,575.097 3435.89,578.263 3438.5,582C 3437.02,583.983 3435.35,585.816 3433.5,587.5C 3431.94,586.926 3430.44,586.26 3429,585.5C 3426.97,587.032 3424.8,588.365 3422.5,589.5C 3420.32,587.767 3418.16,586.1 3416,584.5C 3407.81,587.318 3399.31,588.984 3390.5,589.5C 3384.67,592.795 3378.51,595.461 3372,597.5C 3371.33,596.748 3370.5,596.414 3369.5,596.5 Z M 3275.5,503.5 C 3277.02,503.511 3278.18,504.177 3279,505.5C 3279.67,504.833 3280.33,504.167 3281,503.5C 3281.5,505 3282,506.5 3282.5,508C 3281.32,510.646 3281.32,513.312 3282.5,516C 3282.22,518.292 3281.55,520.458 3280.5,522.5C 3276.17,519.523 3275.51,515.856 3278.5,511.5C 3277.62,510.029 3276.29,509.196 3274.5,509C 3275.62,508.751 3276.62,508.251 3277.5,507.5C 3276.37,506.378 3275.7,505.044 3275.5,503.5 Z M 3303.5,540.5 C 3306,540.98 3308.34,541.98 3310.5,543.5C 3311.09,543.291 3311.59,542.957 3312,542.5C 3314.88,544.702 3318.05,545.869 3321.5,546C 3321.17,545 3320.83,544 3320.5,543C 3321,542.833 3321.5,542.667 3322,542.5C 3325.57,545.888 3328.07,549.888 3329.5,554.5C 3325.43,555.988 3322.1,554.822 3319.5,551C 3313.33,550.499 3308.17,547.999 3304,543.5C 3303.52,542.552 3303.35,541.552 3303.5,540.5 Z M 3334.5,586.5 C 3333.83,586.5 3333.5,586.833 3333.5,587.5C 3331.73,582.88 3333.4,579.88 3338.5,578.5C 3340.75,579.865 3342.75,579.531 3344.5,577.5C 3347.95,580.53 3350.45,579.863 3352,575.5C 3353.29,577.249 3354.46,579.082 3355.5,581C 3352.42,584.477 3349.59,584.31 3347,580.5C 3345.67,581.833 3344.33,581.833 3343,580.5C 3341.68,581.88 3340.34,582.214 3339,581.5C 3336.95,582.714 3335.45,584.38 3334.5,586.5 Z"/></g>
<g><path style="opacity:1" fill="#3b3c3b" d="M 3334.5,586.5 C 3338.12,589.711 3341.95,589.711 3346,586.5C 3347,587.833 3348,587.833 3349,586.5C 3350.68,587.516 3352.34,588.516 3354,589.5C 3356.01,587.998 3357.67,588.331 3359,590.5C 3360.74,588.773 3362.58,588.106 3364.5,588.5C 3366.65,590.149 3368.65,591.982 3370.5,594C 3368.38,594.342 3368.05,595.175 3369.5,596.5C 3365.17,597.827 3361.17,599.827 3357.5,602.5C 3356.91,602.291 3356.41,601.957 3356,601.5C 3352.84,604.517 3349.34,606.85 3345.5,608.5C 3343.79,606.985 3341.79,605.652 3339.5,604.5C 3338.75,605.376 3338.25,606.376 3338,607.5C 3336.56,606.13 3334.89,605.13 3333,604.5C 3332.31,605.025 3331.81,605.692 3331.5,606.5C 3333.19,607.228 3334.69,608.228 3336,609.5C 3337.15,608.542 3338.15,608.875 3339,610.5C 3339.72,609.549 3340.55,609.383 3341.5,610C 3346.06,613.086 3350.39,616.253 3354.5,619.5C 3354.59,620.496 3354.25,621.329 3353.5,622C 3354.77,622.309 3355.93,622.809 3357,623.5C 3358.52,623.481 3360.02,623.148 3361.5,622.5C 3365.17,622.042 3368.67,621.042 3372,619.5C 3373.83,620.103 3375.66,620.77 3377.5,621.5C 3376.26,622.281 3375.26,623.281 3374.5,624.5C 3375.75,626.042 3375.75,627.542 3374.5,629C 3369.13,629.997 3363.79,629.664 3358.5,628C 3356.33,629.5 3354.5,631.333 3353,633.5C 3348.01,632.039 3344.18,633.539 3341.5,638C 3336.24,641.512 3331.24,641.179 3326.5,637C 3328.89,636.716 3329.55,635.716 3328.5,634C 3331.1,631.541 3331.1,629.041 3328.5,626.5C 3327.28,625.289 3326.11,625.289 3325,626.5C 3322.06,622.886 3318.22,621.553 3313.5,622.5C 3313.56,620.408 3314.56,618.908 3316.5,618C 3321.75,615.472 3327.08,613.139 3332.5,611C 3331.03,609.902 3330.2,608.402 3330,606.5C 3329.69,607.308 3329.19,607.975 3328.5,608.5C 3327.06,607.696 3325.56,607.029 3324,606.5C 3320.28,607.096 3316.62,607.762 3313,608.5C 3309.58,606.043 3305.75,604.543 3301.5,604C 3302.95,602.883 3304.62,602.216 3306.5,602C 3304.04,600.784 3301.37,600.118 3298.5,600C 3299.42,599.626 3300.25,599.126 3301,598.5C 3305.59,600.626 3310.09,600.626 3314.5,598.5C 3318.35,594.744 3323.02,592.911 3328.5,593C 3329.84,590.768 3331.51,588.934 3333.5,587.5C 3333.5,586.833 3333.83,586.5 3334.5,586.5 Z M 3354.5,619.5 C 3356.69,620.758 3359.02,621.758 3361.5,622.5C 3360.02,623.148 3358.52,623.481 3357,623.5C 3355.93,622.809 3354.77,622.309 3353.5,622C 3354.25,621.329 3354.59,620.496 3354.5,619.5 Z"/></g>
<g><path style="opacity:1" fill="#3b3c3b" d="M 3345.5,608.5 C 3344.92,609.773 3344.26,609.773 3343.5,608.5C 3343.97,607.537 3344.64,607.537 3345.5,608.5 Z"/></g>
<g><path style="opacity:1" fill="#3b3c3b" d="M 3361.5,622.5 C 3359.02,621.758 3356.69,620.758 3354.5,619.5C 3354.02,616.345 3352.35,614.012 3349.5,612.5C 3348.11,610.831 3347.78,609.164 3348.5,607.5C 3352.6,612.718 3356.94,617.718 3361.5,622.5 Z"/></g>
</svg>
