<?xml version="1.0" encoding="UTF-8"?>
<!DOCTYPE svg PUBLIC "-//W3C//DTD SVG 1.1//EN" "http://www.w3.org/Graphics/SVG/1.1/DTD/svg11.dtd">
<svg xmlns="http://www.w3.org/2000/svg" version="1.1" width="5632px" height="2048px" style="shape-rendering:geometricPrecision; text-rendering:geometricPrecision; image-rendering:optimizeQuality; fill-rule:evenodd; clip-rule:evenodd" xmlns:xlink="http://www.w3.org/1999/xlink">
<g><path style="opacity:1" fill="#0f7e90" d="M 1915.5,1672.5 C 1917.65,1672.37 1919.65,1672.87 1921.5,1674C 1925.14,1677.39 1928.64,1680.89 1932,1684.5C 1932.2,1686.26 1932.7,1687.92 1933.5,1689.5C 1935.17,1688.17 1936.83,1686.83 1938.5,1685.5C 1940.78,1686.75 1941.95,1688.75 1942,1691.5C 1943.36,1690.74 1944.53,1691.24 1945.5,1693C 1947.97,1694.46 1950.64,1695.46 1953.5,1696C 1956.11,1700.3 1959.77,1702.96 1964.5,1704C 1966.78,1709.47 1970.45,1713.81 1975.5,1717C 1973.63,1719.29 1972.13,1721.79 1971,1724.5C 1972.82,1732.21 1969.98,1737.21 1962.5,1739.5C 1959.71,1745.81 1955.54,1751.14 1950,1755.5C 1949.67,1754.83 1949.33,1754.17 1949,1753.5C 1947.52,1756.66 1945.02,1758.5 1941.5,1759C 1936.96,1759.72 1932.63,1759.22 1928.5,1757.5C 1920.02,1759.97 1912.68,1757.8 1906.5,1751C 1902.79,1750.59 1899.12,1750.59 1895.5,1751C 1893,1747.83 1890.5,1744.67 1888,1741.5C 1887.09,1735.58 1888.59,1730.41 1892.5,1726C 1890.08,1720.66 1891.58,1717.16 1897,1715.5C 1897.6,1713.86 1898.1,1712.2 1898.5,1710.5C 1897.67,1708.53 1897.5,1706.53 1898,1704.5C 1899.37,1702.63 1900.53,1700.63 1901.5,1698.5C 1901.07,1697.71 1900.74,1696.87 1900.5,1696C 1902.74,1691.71 1903.41,1687.21 1902.5,1682.5C 1903.84,1679.14 1905.68,1676.14 1908,1673.5C 1910.92,1676.25 1913.42,1675.91 1915.5,1672.5 Z"/></g>
</svg>
