<?xml version="1.0" encoding="UTF-8"?>
<!DOCTYPE svg PUBLIC "-//W3C//DTD SVG 1.1//EN" "http://www.w3.org/Graphics/SVG/1.1/DTD/svg11.dtd">
<svg xmlns="http://www.w3.org/2000/svg" version="1.1" width="5632px" height="2048px" style="shape-rendering:geometricPrecision; text-rendering:geometricPrecision; image-rendering:optimizeQuality; fill-rule:evenodd; clip-rule:evenodd" xmlns:xlink="http://www.w3.org/1999/xlink">
<g><path style="opacity:1" fill="#a59b73" d="M 4291.5,661.5 C 4290.71,662.794 4289.71,663.961 4288.5,665C 4292.8,666.929 4294.97,670.096 4295,674.5C 4293.78,675.774 4292.95,677.274 4292.5,679C 4292.25,682.332 4292.92,685.665 4294.5,689C 4293.42,692.323 4291.42,693.49 4288.5,692.5C 4277.67,694.486 4271.67,700.652 4270.5,711C 4267.56,713.363 4266.23,716.196 4266.5,719.5C 4265.24,720.382 4264.07,721.382 4263,722.5C 4263.7,730.444 4265.54,738.11 4268.5,745.5C 4267.25,747.136 4265.58,748.303 4263.5,749C 4252.97,752.196 4242.8,756.029 4233,760.5C 4232.23,760.355 4231.56,760.022 4231,759.5C 4227.4,760.863 4223.9,762.53 4220.5,764.5C 4220.17,765.167 4219.83,765.833 4219.5,766.5C 4223.22,773.719 4228.72,779.052 4236,782.5C 4238.12,785.502 4237.96,788.336 4235.5,791C 4235.83,791.333 4236.17,791.667 4236.5,792C 4234.65,793.684 4232.98,795.517 4231.5,797.5C 4234.21,799.524 4235.54,802.19 4235.5,805.5C 4230.04,807.851 4224.37,808.518 4218.5,807.5C 4216.83,808.167 4215.17,808.833 4213.5,809.5C 4208.48,806.324 4203.15,803.658 4197.5,801.5C 4189.36,803.339 4181.19,803.673 4173,802.5C 4169.5,802.833 4166,803.167 4162.5,803.5C 4161.2,805.937 4159.53,808.104 4157.5,810C 4154.88,810.151 4152.55,810.985 4150.5,812.5C 4148.52,810.679 4146.19,809.679 4143.5,809.5C 4136.12,810.811 4128.95,812.811 4122,815.5C 4117.34,813.558 4112.51,811.892 4107.5,810.5C 4106.55,808.955 4106.21,807.288 4106.5,805.5C 4103.6,805.681 4100.77,805.348 4098,804.5C 4094.91,805.924 4092.07,807.757 4089.5,810C 4088.33,810.167 4087.17,810.333 4086,810.5C 4082.92,809.434 4079.75,808.434 4076.5,807.5C 4075.71,807.931 4074.87,808.265 4074,808.5C 4070.72,806.684 4067.22,805.351 4063.5,804.5C 4059.79,806.592 4058.29,809.592 4059,813.5C 4055.69,816.561 4052.53,819.728 4049.5,823C 4050.45,823.718 4050.62,824.551 4050,825.5C 4048.11,826.13 4046.44,827.13 4045,828.5C 4044.67,828.167 4044.33,827.833 4044,827.5C 4042.53,828.267 4041.03,828.933 4039.5,829.5C 4036.22,827.844 4032.89,826.177 4029.5,824.5C 4026.95,820.524 4025.62,816.19 4025.5,811.5C 4021.87,811.26 4018.2,810.926 4014.5,810.5C 4015.33,809.549 4015.49,808.549 4015,807.5C 4012.93,806.475 4010.76,805.642 4008.5,805C 4005.88,801.588 4003.38,798.088 4001,794.5C 4000.67,794.833 4000.33,795.167 4000,795.5C 3995.53,792.686 3991.36,789.519 3987.5,786C 3988.21,784.657 3987.88,783.324 3986.5,782C 3984.24,781.956 3982.24,782.789 3980.5,784.5C 3979.19,783.687 3978.02,782.687 3977,781.5C 3973.86,782.774 3971.53,781.774 3970,778.5C 3969.33,777.167 3969.33,775.833 3970,774.5C 3972.08,773.667 3974.25,773.667 3976.5,774.5C 3978.6,768.865 3977.94,763.365 3974.5,758C 3976.2,750.78 3973.37,746.614 3966,745.5C 3963.83,746.522 3961.66,747.522 3959.5,748.5C 3959.68,743.401 3958.68,738.567 3956.5,734C 3958.76,733.547 3960.09,732.214 3960.5,730C 3959.7,727.123 3959.7,724.456 3960.5,722C 3966.14,721.021 3970.81,718.354 3974.5,714C 3978.25,713.934 3981.75,713.101 3985,711.5C 3987.54,712.207 3988.71,713.873 3988.5,716.5C 3991.95,715.072 3995.61,714.239 3999.5,714C 4001.37,710.955 4003.04,707.788 4004.5,704.5C 4005.83,703.833 4007.17,703.167 4008.5,702.5C 4009.83,703.167 4011.17,703.833 4012.5,704.5C 4016.81,703.622 4021.14,702.788 4025.5,702C 4027.94,699.14 4030.61,696.473 4033.5,694C 4041.78,690.348 4050.11,686.848 4058.5,683.5C 4058.02,682.522 4057.36,681.689 4056.5,681C 4058.89,678.134 4058.89,675.134 4056.5,672C 4057.82,670.386 4059.48,669.219 4061.5,668.5C 4061.02,667.522 4060.36,666.689 4059.5,666C 4061.5,664.667 4063.5,663.333 4065.5,662C 4064.12,654.405 4062.12,646.405 4059.5,638C 4060.26,636.488 4061.26,635.154 4062.5,634C 4058.84,633.113 4055.18,631.78 4051.5,630C 4058.19,628.555 4064.69,626.722 4071,624.5C 4074.08,624.969 4077.25,625.135 4080.5,625C 4083.57,626.653 4086.74,627.82 4090,628.5C 4092.55,627.527 4094.05,625.693 4094.5,623C 4093.38,621.956 4092.04,621.29 4090.5,621C 4089.92,620.107 4089.59,619.107 4089.5,618C 4092.25,609.869 4095.08,601.702 4098,593.5C 4099.35,591.981 4100.85,590.648 4102.5,589.5C 4109.01,594.207 4116.18,595.54 4124,593.5C 4125.89,593.785 4127.22,594.785 4128,596.5C 4131.22,593.449 4135.05,591.616 4139.5,591C 4142.85,589.504 4143.69,587.338 4142,584.5C 4141.78,579.447 4141.28,574.447 4140.5,569.5C 4141.25,568.264 4141.58,566.93 4141.5,565.5C 4145.6,565.766 4149.6,565.266 4153.5,564C 4154.75,562.041 4156.41,560.541 4158.5,559.5C 4159.71,557.516 4159.71,555.516 4158.5,553.5C 4159.85,550.256 4162.01,549.256 4165,550.5C 4166.44,549.74 4167.94,549.074 4169.5,548.5C 4170.72,549.002 4171.88,549.335 4173,549.5C 4173.48,548.552 4173.65,547.552 4173.5,546.5C 4176.57,546.453 4179.57,545.953 4182.5,545C 4182.95,542.242 4184.45,540.409 4187,539.5C 4190.27,540.016 4193.43,540.35 4196.5,540.5C 4196.34,541.873 4196.51,543.207 4197,544.5C 4199.46,545.958 4201.63,547.791 4203.5,550C 4206.09,551.686 4208.75,551.853 4211.5,550.5C 4211.83,551.5 4212.17,552.5 4212.5,553.5C 4210.82,556.611 4210.32,559.944 4211,563.5C 4212,565.833 4213.67,567.5 4216,568.5C 4217.27,573.089 4219.94,576.423 4224,578.5C 4224.67,582.5 4225.33,586.5 4226,590.5C 4230.38,593.875 4234.55,597.709 4238.5,602C 4241.09,603.197 4243.76,604.197 4246.5,605C 4246.67,606.837 4247.33,608.837 4248.5,611C 4255.61,611.708 4261.78,614.541 4267,619.5C 4267.42,621.355 4267.92,623.189 4268.5,625C 4266.1,630.12 4266.1,635.287 4268.5,640.5C 4271.17,641.432 4273.84,641.598 4276.5,641C 4276.83,641.333 4277.17,641.667 4277.5,642C 4275.04,645.485 4275.7,648.485 4279.5,651C 4284.53,651.408 4288.53,653.575 4291.5,657.5C 4290.29,658.995 4290.29,660.328 4291.5,661.5 Z"/></g>
<g><path style="opacity:1" fill="#8b4758" d="M 4406.5,842.5 C 4402.24,839.713 4398.24,836.547 4394.5,833C 4396.08,829.176 4398.42,825.843 4401.5,823C 4399.19,819.884 4397.86,816.384 4397.5,812.5C 4399.5,812.833 4401.5,813.167 4403.5,813.5C 4403.64,811.738 4403.31,810.071 4402.5,808.5C 4403.35,807.155 4404.51,806.155 4406,805.5C 4405.49,802.616 4405.65,799.782 4406.5,797C 4404.61,795.417 4402.61,793.917 4400.5,792.5C 4400.93,791.707 4401.26,790.873 4401.5,790C 4398.69,785.889 4396.85,781.389 4396,776.5C 4394.44,774.641 4392.61,773.141 4390.5,772C 4391.91,771.632 4392.91,770.799 4393.5,769.5C 4392.15,768.315 4390.98,766.981 4390,765.5C 4386.54,766.791 4383.04,766.791 4379.5,765.5C 4377.11,763.639 4374.45,762.306 4371.5,761.5C 4369.53,758.148 4366.53,756.648 4362.5,757C 4360.67,755.167 4358.83,753.333 4357,751.5C 4357.97,745.152 4355.47,743.318 4349.5,746C 4350.84,747.826 4350.34,748.993 4348,749.5C 4345.65,747.379 4342.82,746.212 4339.5,746C 4336.87,743.714 4334.54,741.214 4332.5,738.5C 4330.28,741.614 4327.61,744.28 4324.5,746.5C 4323.81,745.975 4323.31,745.308 4323,744.5C 4321.33,744.833 4319.67,745.167 4318,745.5C 4317.67,744.833 4317.33,744.167 4317,743.5C 4312.66,747.18 4308.32,750.847 4304,754.5C 4299.63,753.113 4296.13,750.613 4293.5,747C 4288.75,746.449 4284.08,745.616 4279.5,744.5C 4275.84,744.944 4272.17,745.278 4268.5,745.5C 4265.54,738.11 4263.7,730.444 4263,722.5C 4264.07,721.382 4265.24,720.382 4266.5,719.5C 4266.23,716.196 4267.56,713.363 4270.5,711C 4271.67,700.652 4277.67,694.486 4288.5,692.5C 4291.42,693.49 4293.42,692.323 4294.5,689C 4292.92,685.665 4292.25,682.332 4292.5,679C 4292.95,677.274 4293.78,675.774 4295,674.5C 4294.97,670.096 4292.8,666.929 4288.5,665C 4289.71,663.961 4290.71,662.794 4291.5,661.5C 4294.83,661.002 4298,660.002 4301,658.5C 4302.93,660.038 4305.1,661.205 4307.5,662C 4308.98,664.643 4310.98,666.81 4313.5,668.5C 4314.29,668.069 4315.13,667.735 4316,667.5C 4318.48,668.888 4321.14,669.554 4324,669.5C 4328.81,669.063 4333.31,667.729 4337.5,665.5C 4351.41,671.151 4365.75,675.318 4380.5,678C 4382.67,679.586 4385,680.92 4387.5,682C 4392.92,683.194 4398.25,684.694 4403.5,686.5C 4408.4,685.39 4413.07,685.39 4417.5,686.5C 4418.85,685.104 4420.52,684.437 4422.5,684.5C 4425.5,685 4428.5,685.5 4431.5,686C 4433.12,687.117 4434.12,688.617 4434.5,690.5C 4433.14,692.801 4431.31,694.801 4429,696.5C 4428.83,697.333 4428.67,698.167 4428.5,699C 4429.54,703.584 4431.21,707.917 4433.5,712C 4436.47,712.694 4439.47,713.194 4442.5,713.5C 4448.51,712.317 4454.51,711.484 4460.5,711C 4461.77,711.309 4462.93,711.809 4464,712.5C 4463.8,714.126 4463.8,715.793 4464,717.5C 4466.22,720.021 4468.72,722.188 4471.5,724C 4471.04,724.414 4470.71,724.914 4470.5,725.5C 4472.35,730.697 4472.85,736.03 4472,741.5C 4469.11,746.114 4466.61,750.947 4464.5,756C 4465.29,757.626 4466.29,759.126 4467.5,760.5C 4471.58,762.844 4475.58,765.177 4479.5,767.5C 4477.45,769.555 4475.78,771.888 4474.5,774.5C 4475.07,776.059 4475.74,777.559 4476.5,779C 4475.62,780.356 4475.29,781.856 4475.5,783.5C 4480.23,783.413 4484.4,784.746 4488,787.5C 4492.9,786.38 4495.74,788.38 4496.5,793.5C 4494.98,796.289 4494.32,799.123 4494.5,802C 4496.11,804.228 4496.78,806.728 4496.5,809.5C 4492.51,808.817 4488.68,808.817 4485,809.5C 4481.96,812.019 4482.13,814.519 4485.5,817C 4482.46,817.798 4479.62,818.965 4477,820.5C 4474.51,816.825 4471.34,815.992 4467.5,818C 4466.25,819.458 4466.25,820.958 4467.5,822.5C 4466.35,824.149 4465.02,825.649 4463.5,827C 4466.08,827.782 4468.08,829.282 4469.5,831.5C 4468.42,833.996 4467.09,836.33 4465.5,838.5C 4465.71,839.086 4466.04,839.586 4466.5,840C 4463.7,841.232 4460.7,841.899 4457.5,842C 4453.98,844.237 4453.65,846.904 4456.5,850C 4456.17,850.333 4455.83,850.667 4455.5,851C 4460.54,853.41 4460.71,856.243 4456,859.5C 4452.91,858.317 4449.41,857.317 4445.5,856.5C 4445.95,854.023 4445.28,852.023 4443.5,850.5C 4441.98,851.937 4440.15,852.604 4438,852.5C 4435.02,851.545 4432.02,850.545 4429,849.5C 4425.67,853.426 4422.67,853.093 4420,848.5C 4418.95,850.754 4417.45,851.087 4415.5,849.5C 4414.73,847.187 4414.06,844.854 4413.5,842.5C 4411.19,841.425 4408.86,841.425 4406.5,842.5 Z"/></g>
<g><path style="opacity:1" fill="#555b7d" d="M 4406.5,842.5 C 4405.41,845.428 4403.41,847.594 4400.5,849C 4402.66,851.149 4403.83,853.649 4404,856.5C 4402.03,857.64 4400.19,858.973 4398.5,860.5C 4397.67,858.5 4396.83,856.5 4396,854.5C 4394.62,856.376 4393.46,858.376 4392.5,860.5C 4390.78,859.339 4389.11,859.505 4387.5,861C 4386.99,863.718 4386.99,866.551 4387.5,869.5C 4385.52,870.149 4383.69,870.149 4382,869.5C 4380.61,870.613 4379.44,871.947 4378.5,873.5C 4378.39,871.902 4378.06,870.235 4377.5,868.5C 4375.99,867.261 4374.83,867.595 4374,869.5C 4372.72,868.428 4372.38,867.095 4373,865.5C 4371.98,864.313 4370.81,863.313 4369.5,862.5C 4368.78,864.482 4367.62,866.149 4366,867.5C 4364.76,865.462 4362.93,864.295 4360.5,864C 4357.16,860.991 4354.16,857.657 4351.5,854C 4347.02,853.734 4342.69,852.901 4338.5,851.5C 4337.75,855.006 4336.42,858.34 4334.5,861.5C 4330.54,859.184 4326.54,856.85 4322.5,854.5C 4321.07,852.78 4320.23,850.78 4320,848.5C 4316.42,846.433 4314.25,843.433 4313.5,839.5C 4310.31,839.105 4307.31,838.105 4304.5,836.5C 4303.68,830.182 4300.18,826.182 4294,824.5C 4292.33,824.833 4290.67,825.167 4289,825.5C 4287.54,823.342 4285.71,821.509 4283.5,820C 4278.81,820.83 4274.14,821.996 4269.5,823.5C 4269.58,820.729 4269.08,818.063 4268,815.5C 4264.97,813.158 4261.97,810.824 4259,808.5C 4258,808.833 4257,809.167 4256,809.5C 4249.34,807.284 4242.51,805.951 4235.5,805.5C 4235.54,802.19 4234.21,799.524 4231.5,797.5C 4232.98,795.517 4234.65,793.684 4236.5,792C 4236.17,791.667 4235.83,791.333 4235.5,791C 4237.96,788.336 4238.12,785.502 4236,782.5C 4228.72,779.052 4223.22,773.719 4219.5,766.5C 4219.83,765.833 4220.17,765.167 4220.5,764.5C 4223.9,762.53 4227.4,760.863 4231,759.5C 4231.56,760.022 4232.23,760.355 4233,760.5C 4242.8,756.029 4252.97,752.196 4263.5,749C 4265.58,748.303 4267.25,747.136 4268.5,745.5C 4272.17,745.278 4275.84,744.944 4279.5,744.5C 4284.08,745.616 4288.75,746.449 4293.5,747C 4296.13,750.613 4299.63,753.113 4304,754.5C 4308.32,750.847 4312.66,747.18 4317,743.5C 4317.33,744.167 4317.67,744.833 4318,745.5C 4319.67,745.167 4321.33,744.833 4323,744.5C 4323.31,745.308 4323.81,745.975 4324.5,746.5C 4327.61,744.28 4330.28,741.614 4332.5,738.5C 4334.54,741.214 4336.87,743.714 4339.5,746C 4342.82,746.212 4345.65,747.379 4348,749.5C 4350.34,748.993 4350.84,747.826 4349.5,746C 4355.47,743.318 4357.97,745.152 4357,751.5C 4358.83,753.333 4360.67,755.167 4362.5,757C 4366.53,756.648 4369.53,758.148 4371.5,761.5C 4374.45,762.306 4377.11,763.639 4379.5,765.5C 4383.04,766.791 4386.54,766.791 4390,765.5C 4390.98,766.981 4392.15,768.315 4393.5,769.5C 4392.91,770.799 4391.91,771.632 4390.5,772C 4392.61,773.141 4394.44,774.641 4396,776.5C 4396.85,781.389 4398.69,785.889 4401.5,790C 4401.26,790.873 4400.93,791.707 4400.5,792.5C 4402.61,793.917 4404.61,795.417 4406.5,797C 4405.65,799.782 4405.49,802.616 4406,805.5C 4404.51,806.155 4403.35,807.155 4402.5,808.5C 4403.31,810.071 4403.64,811.738 4403.5,813.5C 4401.5,813.167 4399.5,812.833 4397.5,812.5C 4397.86,816.384 4399.19,819.884 4401.5,823C 4398.42,825.843 4396.08,829.176 4394.5,833C 4398.24,836.547 4402.24,839.713 4406.5,842.5 Z M 4363.5,772.5 C 4368.61,773.121 4372.11,775.788 4374,780.5C 4374.91,779.346 4375.75,779.513 4376.5,781C 4376.87,782.61 4376.2,784.11 4374.5,785.5C 4371.03,783.938 4367.36,783.105 4363.5,783C 4361.94,781.401 4360.28,779.901 4358.5,778.5C 4358.94,777.494 4359.6,777.494 4360.5,778.5C 4361.64,777.224 4361.64,775.891 4360.5,774.5C 4361.6,773.824 4362.6,773.158 4363.5,772.5 Z"/></g>
<g><path style="opacity:1" fill="#eaebea" d="M 4235.5,805.5 C 4242.51,805.951 4249.34,807.284 4256,809.5C 4257,809.167 4258,808.833 4259,808.5C 4261.97,810.824 4264.97,813.158 4268,815.5C 4269.08,818.063 4269.58,820.729 4269.5,823.5C 4274.14,821.996 4278.81,820.83 4283.5,820C 4285.71,821.509 4287.54,823.342 4289,825.5C 4290.67,825.167 4292.33,824.833 4294,824.5C 4300.18,826.182 4303.68,830.182 4304.5,836.5C 4307.31,838.105 4310.31,839.105 4313.5,839.5C 4314.25,843.433 4316.42,846.433 4320,848.5C 4320.23,850.78 4321.07,852.78 4322.5,854.5C 4326.54,856.85 4330.54,859.184 4334.5,861.5C 4333.04,864.885 4331.04,867.885 4328.5,870.5C 4328.7,872.208 4329.54,873.541 4331,874.5C 4331.83,877.814 4330.5,879.481 4327,879.5C 4319.03,877.106 4310.87,875.606 4302.5,875C 4299.04,871.704 4295.71,868.204 4292.5,864.5C 4291.19,865.313 4290.02,866.313 4289,867.5C 4287.06,866.14 4285.4,866.473 4284,868.5C 4280.71,865.866 4277.21,863.699 4273.5,862C 4268.83,861.291 4264.33,860.124 4260,858.5C 4258.3,859.529 4257.47,861.029 4257.5,863C 4259.5,867.264 4261.5,871.597 4263.5,876C 4259.5,880.219 4259.84,883.885 4264.5,887C 4262.92,889.085 4260.92,890.585 4258.5,891.5C 4257.21,893.667 4256.37,896 4256,898.5C 4253.5,899.667 4251.67,901.5 4250.5,904C 4253.13,908.755 4255.63,913.588 4258,918.5C 4259.25,922.846 4259.58,927.18 4259,931.5C 4260.72,928.383 4263.22,927.717 4266.5,929.5C 4270.31,926.858 4273.98,924.025 4277.5,921C 4278.87,920.598 4280.21,920.098 4281.5,919.5C 4283.17,920.833 4284.83,922.167 4286.5,923.5C 4288.31,922.264 4290.14,922.264 4292,923.5C 4295.26,920.622 4299.09,918.955 4303.5,918.5C 4305.27,919.091 4306.93,919.924 4308.5,921C 4303.01,924.899 4303.35,926.066 4309.5,924.5C 4312.26,925.628 4312.93,927.462 4311.5,930C 4309.38,930.815 4307.38,931.815 4305.5,933C 4306,933.5 4306.5,934 4307,934.5C 4311,931.833 4315,931.833 4319,934.5C 4319.41,934.043 4319.91,933.709 4320.5,933.5C 4322.03,934.763 4323.7,935.763 4325.5,936.5C 4325.68,937.695 4326.01,938.862 4326.5,940C 4326.33,941.5 4325.5,942.333 4324,942.5C 4316.51,939.186 4308.67,937.686 4300.5,938C 4298.5,938.667 4296.5,939.333 4294.5,940C 4295.63,941.016 4295.3,941.683 4293.5,942C 4287.26,943.464 4281.26,945.464 4275.5,948C 4272.2,950.295 4269.2,952.962 4266.5,956C 4260.72,959.727 4254.72,960.227 4248.5,957.5C 4244.44,959.39 4241.11,958.556 4238.5,955C 4240.21,953.867 4240.71,952.367 4240,950.5C 4237.35,948.947 4234.51,947.78 4231.5,947C 4231.35,945.026 4231.02,943.026 4230.5,941C 4226.6,940.818 4222.76,939.985 4219,938.5C 4215.17,940.18 4214.34,939.68 4216.5,937C 4211.9,933.639 4207.74,934.139 4204,938.5C 4203.28,937.549 4202.45,937.383 4201.5,938C 4198.55,941.408 4195.71,944.908 4193,948.5C 4191.98,947.646 4191.14,946.646 4190.5,945.5C 4192.35,941.9 4191.52,939.234 4188,937.5C 4186.49,938.257 4185.15,939.257 4184,940.5C 4183.67,940.167 4183.33,939.833 4183,939.5C 4181.21,940.97 4179.21,941.97 4177,942.5C 4173.97,942.225 4170.81,942.058 4167.5,942C 4164.38,940.027 4161.22,938.193 4158,936.5C 4155.4,939.144 4152.74,939.144 4150,936.5C 4149.13,936.735 4148.29,937.069 4147.5,937.5C 4144.47,933.324 4140.47,931.824 4135.5,933C 4134.87,930.645 4134.87,928.478 4135.5,926.5C 4133.26,925.617 4131.1,925.95 4129,927.5C 4128.25,926.874 4127.42,926.374 4126.5,926C 4125.63,923.632 4123.96,922.132 4121.5,921.5C 4120.27,920.349 4120.27,919.183 4121.5,918C 4118.13,913.245 4114.96,913.412 4112,918.5C 4110.5,916.167 4109,913.833 4107.5,911.5C 4101.98,909.244 4096.98,906.244 4092.5,902.5C 4091.68,900.892 4091.01,899.225 4090.5,897.5C 4087.46,896.625 4084.46,895.625 4081.5,894.5C 4078.65,896.027 4077.65,898.194 4078.5,901C 4076.84,901.265 4075.34,900.765 4074,899.5C 4073.44,900.022 4072.77,900.355 4072,900.5C 4068.43,898.629 4064.93,896.629 4061.5,894.5C 4061.71,893.914 4062.04,893.414 4062.5,893C 4059.01,889.276 4054.67,887.276 4049.5,887C 4045.78,883.037 4041.12,881.037 4035.5,881C 4036.21,873.821 4034.54,867.154 4030.5,861C 4031.77,859.779 4033.27,858.946 4035,858.5C 4036.55,860.938 4038.55,862.938 4041,864.5C 4042.68,863.135 4042.85,861.635 4041.5,860C 4042.17,858 4042.83,856 4043.5,854C 4042.58,853.626 4041.75,853.126 4041,852.5C 4041,850.5 4041,848.5 4041,846.5C 4039.03,845.695 4037.53,844.361 4036.5,842.5C 4037.11,840.36 4036.77,838.193 4035.5,836C 4037.92,834.429 4039.26,832.263 4039.5,829.5C 4041.03,828.933 4042.53,828.267 4044,827.5C 4044.33,827.833 4044.67,828.167 4045,828.5C 4046.44,827.13 4048.11,826.13 4050,825.5C 4050.62,824.551 4050.45,823.718 4049.5,823C 4052.53,819.728 4055.69,816.561 4059,813.5C 4058.29,809.592 4059.79,806.592 4063.5,804.5C 4067.22,805.351 4070.72,806.684 4074,808.5C 4074.87,808.265 4075.71,807.931 4076.5,807.5C 4079.75,808.434 4082.92,809.434 4086,810.5C 4087.17,810.333 4088.33,810.167 4089.5,810C 4092.07,807.757 4094.91,805.924 4098,804.5C 4100.77,805.348 4103.6,805.681 4106.5,805.5C 4106.21,807.288 4106.55,808.955 4107.5,810.5C 4112.51,811.892 4117.34,813.558 4122,815.5C 4128.95,812.811 4136.12,810.811 4143.5,809.5C 4146.19,809.679 4148.52,810.679 4150.5,812.5C 4152.55,810.985 4154.88,810.151 4157.5,810C 4159.53,808.104 4161.2,805.937 4162.5,803.5C 4166,803.167 4169.5,802.833 4173,802.5C 4181.19,803.673 4189.36,803.339 4197.5,801.5C 4203.15,803.658 4208.48,806.324 4213.5,809.5C 4215.17,808.833 4216.83,808.167 4218.5,807.5C 4224.37,808.518 4230.04,807.851 4235.5,805.5 Z"/></g>
<g><path style="opacity:1" fill="#ad99ba" d="M 4387.5,869.5 C 4389.09,870.219 4390.59,871.219 4392,872.5C 4392.33,875.5 4392.67,878.5 4393,881.5C 4393.5,882 4394,882.5 4394.5,883C 4389.77,888.069 4390.77,891.402 4397.5,893C 4398.52,895.2 4399.86,897.2 4401.5,899C 4404.29,897.918 4407.29,897.585 4410.5,898C 4414.54,900.959 4415.87,904.792 4414.5,909.5C 4416.64,912.68 4416.64,916.013 4414.5,919.5C 4415.67,920.906 4415.33,922.072 4413.5,923C 4413.9,926.741 4415.23,930.074 4417.5,933C 4416.67,934.465 4416.5,935.965 4417,937.5C 4420.59,940.277 4421.26,943.61 4419,947.5C 4417.27,949.611 4415.43,951.611 4413.5,953.5C 4416.28,958.268 4416.95,963.268 4415.5,968.5C 4411.96,969.807 4408.29,970.974 4404.5,972C 4403.31,973.019 4402.31,974.186 4401.5,975.5C 4399.02,976.861 4396.68,976.694 4394.5,975C 4396.79,972.952 4396.95,970.785 4395,968.5C 4392.04,966.539 4389.37,964.206 4387,961.5C 4384.15,957.313 4381.49,952.98 4379,948.5C 4378.03,946.608 4377.36,944.608 4377,942.5C 4375.85,943.743 4374.51,944.743 4373,945.5C 4371.85,944.257 4370.51,943.257 4369,942.5C 4368.35,940.765 4368.52,939.098 4369.5,937.5C 4368.07,935.78 4367.23,933.78 4367,931.5C 4366.01,930.061 4364.68,929.061 4363,928.5C 4361.7,931.295 4360.2,933.961 4358.5,936.5C 4359.92,938.127 4359.59,938.627 4357.5,938C 4353.24,934.544 4351.41,930.044 4352,924.5C 4350.59,923.332 4349.43,923.665 4348.5,925.5C 4348.02,929.717 4347.02,933.717 4345.5,937.5C 4342.93,937.222 4340.27,937.056 4337.5,937C 4335.21,934.341 4332.55,933.175 4329.5,933.5C 4328.72,935.288 4327.38,936.288 4325.5,936.5C 4323.7,935.763 4322.03,934.763 4320.5,933.5C 4319.91,933.709 4319.41,934.043 4319,934.5C 4315,931.833 4311,931.833 4307,934.5C 4306.5,934 4306,933.5 4305.5,933C 4307.38,931.815 4309.38,930.815 4311.5,930C 4312.93,927.462 4312.26,925.628 4309.5,924.5C 4303.35,926.066 4303.01,924.899 4308.5,921C 4306.93,919.924 4305.27,919.091 4303.5,918.5C 4299.09,918.955 4295.26,920.622 4292,923.5C 4290.14,922.264 4288.31,922.264 4286.5,923.5C 4284.83,922.167 4283.17,920.833 4281.5,919.5C 4280.21,920.098 4278.87,920.598 4277.5,921C 4273.98,924.025 4270.31,926.858 4266.5,929.5C 4263.22,927.717 4260.72,928.383 4259,931.5C 4259.58,927.18 4259.25,922.846 4258,918.5C 4255.63,913.588 4253.13,908.755 4250.5,904C 4251.67,901.5 4253.5,899.667 4256,898.5C 4256.37,896 4257.21,893.667 4258.5,891.5C 4260.92,890.585 4262.92,889.085 4264.5,887C 4259.84,883.885 4259.5,880.219 4263.5,876C 4261.5,871.597 4259.5,867.264 4257.5,863C 4257.47,861.029 4258.3,859.529 4260,858.5C 4264.33,860.124 4268.83,861.291 4273.5,862C 4277.21,863.699 4280.71,865.866 4284,868.5C 4285.4,866.473 4287.06,866.14 4289,867.5C 4290.02,866.313 4291.19,865.313 4292.5,864.5C 4295.71,868.204 4299.04,871.704 4302.5,875C 4310.87,875.606 4319.03,877.106 4327,879.5C 4330.5,879.481 4331.83,877.814 4331,874.5C 4329.54,873.541 4328.7,872.208 4328.5,870.5C 4331.04,867.885 4333.04,864.885 4334.5,861.5C 4336.42,858.34 4337.75,855.006 4338.5,851.5C 4342.69,852.901 4347.02,853.734 4351.5,854C 4354.16,857.657 4357.16,860.991 4360.5,864C 4362.93,864.295 4364.76,865.462 4366,867.5C 4367.62,866.149 4368.78,864.482 4369.5,862.5C 4370.81,863.313 4371.98,864.313 4373,865.5C 4372.38,867.095 4372.72,868.428 4374,869.5C 4374.83,867.595 4375.99,867.261 4377.5,868.5C 4378.06,870.235 4378.39,871.902 4378.5,873.5C 4379.44,871.947 4380.61,870.613 4382,869.5C 4383.69,870.149 4385.52,870.149 4387.5,869.5 Z"/></g>
</svg>
