<?xml version="1.0" encoding="UTF-8"?>
<!DOCTYPE svg PUBLIC "-//W3C//DTD SVG 1.1//EN" "http://www.w3.org/Graphics/SVG/1.1/DTD/svg11.dtd">
<svg xmlns="http://www.w3.org/2000/svg" version="1.1" width="5632px" height="2048px" style="shape-rendering:geometricPrecision; text-rendering:geometricPrecision; image-rendering:optimizeQuality; fill-rule:evenodd; clip-rule:evenodd" xmlns:xlink="http://www.w3.org/1999/xlink">
<g><path style="opacity:1" fill="#b84342" d="M 3509.5,1189.5 C 3508.17,1189.5 3506.83,1189.5 3505.5,1189.5C 3505.5,1190.83 3505.5,1192.17 3505.5,1193.5C 3504.58,1193.02 3503.58,1192.69 3502.5,1192.5C 3497.6,1195.62 3492.6,1195.96 3487.5,1193.5C 3486.45,1193.68 3485.45,1194.01 3484.5,1194.5C 3484.33,1191.78 3483.16,1189.11 3481,1186.5C 3480.22,1183.24 3480.38,1180.07 3481.5,1177C 3480.52,1175.02 3479.19,1173.36 3477.5,1172C 3478.21,1169.86 3477.87,1167.69 3476.5,1165.5C 3476.59,1163.3 3476.59,1161.13 3476.5,1159C 3475.53,1156.37 3473.86,1154.37 3471.5,1153C 3473.91,1150.63 3473.91,1148.13 3471.5,1145.5C 3474.46,1143.01 3475.13,1140.01 3473.5,1136.5C 3476.45,1135.05 3478.95,1133.05 3481,1130.5C 3481.5,1128.47 3481.33,1126.47 3480.5,1124.5C 3480.94,1122.9 3481.61,1121.4 3482.5,1120C 3481.25,1118.46 3481.42,1117.29 3483,1116.5C 3486.11,1117.97 3489.28,1119.31 3492.5,1120.5C 3495.92,1118.61 3499.59,1118.11 3503.5,1119C 3511.5,1122.67 3519.5,1126.33 3527.5,1130C 3528.3,1134.41 3528.8,1138.91 3529,1143.5C 3541.86,1130.97 3554.36,1118.14 3566.5,1105C 3582.89,1101.32 3599.22,1097.49 3615.5,1093.5C 3615.34,1096.52 3615.5,1099.52 3616,1102.5C 3620,1107.83 3624,1113.17 3628,1118.5C 3628.33,1120.5 3628.67,1122.5 3629,1124.5C 3630.88,1126.04 3632.38,1127.88 3633.5,1130C 3629.36,1131.27 3625.52,1133.1 3622,1135.5C 3621.16,1137.35 3620.33,1139.18 3619.5,1141C 3620.83,1143 3620.83,1145 3619.5,1147C 3606.64,1153.14 3593.3,1157.8 3579.5,1161C 3577.5,1162 3575.5,1163 3573.5,1164C 3569.08,1171.96 3562.42,1174.96 3553.5,1173C 3550.89,1174.28 3548.55,1175.95 3546.5,1178C 3542.66,1178.88 3538.99,1180.21 3535.5,1182C 3529.44,1182.19 3523.44,1182.86 3517.5,1184C 3516,1187.54 3513.33,1189.37 3509.5,1189.5 Z"/></g>
<g><path style="opacity:1" fill="#b84342" d="M 3470.5,1149.5 C 3471.71,1150.5 3471.55,1151.5 3470,1152.5C 3469.53,1151.42 3469.7,1150.42 3470.5,1149.5 Z"/></g>
<g><path style="opacity:1" fill="#b84342" d="M 3472.5,1171.5 C 3474.76,1172.24 3474.93,1173.24 3473,1174.5C 3471.27,1173.65 3471.1,1172.65 3472.5,1171.5 Z"/></g>
<g><path style="opacity:1" fill="#6c8e5f" d="M 3509.5,1189.5 C 3509.88,1191.94 3509.21,1192.61 3507.5,1191.5C 3506.3,1191.85 3506.3,1192.35 3507.5,1193C 3506.91,1193.46 3506.24,1193.63 3505.5,1193.5C 3505.5,1192.17 3505.5,1190.83 3505.5,1189.5C 3506.83,1189.5 3508.17,1189.5 3509.5,1189.5 Z"/></g>
<g><path style="opacity:1" fill="#b84342" d="M 3640.5,1193.5 C 3642.6,1193.48 3644.43,1194.14 3646,1195.5C 3649.22,1193.3 3652.39,1193.63 3655.5,1196.5C 3650.09,1200.9 3644.59,1201.23 3639,1197.5C 3638.7,1195.93 3639.2,1194.6 3640.5,1193.5 Z"/></g>
<g><path style="opacity:1" fill="#b84342" d="M 3619.5,1200.5 C 3620.9,1200.97 3622.23,1201.64 3623.5,1202.5C 3621.81,1203.57 3620.15,1203.4 3618.5,1202C 3619.06,1201.62 3619.39,1201.12 3619.5,1200.5 Z"/></g>
</svg>
